<?xml version="1.0" encoding="UTF-8" standalone="no"?>
<!DOCTYPE svg PUBLIC "-//W3C//DTD SVG 1.1//EN"
 "http://www.w3.org/Graphics/SVG/1.1/DTD/svg11.dtd">
<!-- Generated by graphviz version 10.0.1 (20240210.2158)
 -->
<!-- Title: snakemake_dag Pages: 1 -->
<svg width="444pt" height="2348pt"
 viewBox="0.00 0.00 443.62 2348.00" xmlns="http://www.w3.org/2000/svg" xmlns:xlink="http://www.w3.org/1999/xlink">
<g id="graph0" class="graph" transform="scale(1 1) rotate(0) translate(4 2344)">
<title>snakemake_dag</title>
<polygon fill="white" stroke="none" points="-4,4 -4,-2344 439.62,-2344 439.62,4 -4,4"/>
<!-- 0 -->
<g id="node1" class="node">
<title>0</title>
<path fill="none" stroke="#d8cb56" stroke-width="2" d="M182.75,-36C182.75,-36 152.75,-36 152.75,-36 146.75,-36 140.75,-30 140.75,-24 140.75,-24 140.75,-12 140.75,-12 140.75,-6 146.75,0 152.75,0 152.75,0 182.75,0 182.75,0 188.75,0 194.75,-6 194.75,-12 194.75,-12 194.75,-24 194.75,-24 194.75,-30 188.75,-36 182.75,-36"/>
<text text-anchor="middle" x="167.75" y="-14.12" font-family="sans" font-size="10.00">all</text>
</g>
<!-- 1 -->
<g id="node2" class="node">
<title>1</title>
<path fill="none" stroke="#afd856" stroke-width="2" d="M185.12,-108C185.12,-108 150.38,-108 150.38,-108 144.38,-108 138.38,-102 138.38,-96 138.38,-96 138.38,-84 138.38,-84 138.38,-78 144.38,-72 150.38,-72 150.38,-72 185.12,-72 185.12,-72 191.12,-72 197.12,-78 197.12,-84 197.12,-84 197.12,-96 197.12,-96 197.12,-102 191.12,-108 185.12,-108"/>
<text text-anchor="middle" x="167.75" y="-86.12" font-family="sans" font-size="10.00">create_sc</text>
</g>
<!-- 1&#45;&gt;0 -->
<g id="edge1" class="edge">
<title>1&#45;&gt;0</title>
<path fill="none" stroke="grey" stroke-width="2" d="M167.75,-71.34C167.75,-64.75 167.75,-57.08 167.75,-49.67"/>
<polygon fill="grey" stroke="grey" stroke-width="2" points="171.25,-49.93 167.75,-39.93 164.25,-49.93 171.25,-49.93"/>
</g>
<!-- 2 -->
<g id="node3" class="node">
<title>2</title>
<path fill="none" stroke="#569ad8" stroke-width="2" d="M99.38,-180C99.38,-180 24.12,-180 24.12,-180 18.12,-180 12.12,-174 12.12,-168 12.12,-168 12.12,-156 12.12,-156 12.12,-150 18.12,-144 24.12,-144 24.12,-144 99.38,-144 99.38,-144 105.38,-144 111.38,-150 111.38,-156 111.38,-156 111.38,-168 111.38,-168 111.38,-174 105.38,-180 99.38,-180"/>
<text text-anchor="middle" x="61.75" y="-158.12" font-family="sans" font-size="10.00">mmp_vol_to_mrtrix</text>
</g>
<!-- 2&#45;&gt;1 -->
<g id="edge2" class="edge">
<title>2&#45;&gt;1</title>
<path fill="none" stroke="grey" stroke-width="2" d="M88.77,-143.15C101.36,-134.84 116.54,-124.82 130.21,-115.79"/>
<polygon fill="grey" stroke="grey" stroke-width="2" points="131.83,-118.91 138.25,-110.48 127.98,-113.07 131.83,-118.91"/>
</g>
<!-- 3 -->
<g id="node4" class="node">
<title>3</title>
<path fill="none" stroke="#56d8a2" stroke-width="2" d="M66.62,-252C66.62,-252 34.88,-252 34.88,-252 28.88,-252 22.88,-246 22.88,-240 22.88,-240 22.88,-228 22.88,-228 22.88,-222 28.88,-216 34.88,-216 34.88,-216 66.62,-216 66.62,-216 72.62,-216 78.62,-222 78.62,-228 78.62,-228 78.62,-240 78.62,-240 78.62,-246 72.62,-252 66.62,-252"/>
<text text-anchor="middle" x="50.75" y="-230.12" font-family="sans" font-size="10.00">mmp2vol</text>
</g>
<!-- 3&#45;&gt;2 -->
<g id="edge5" class="edge">
<title>3&#45;&gt;2</title>
<path fill="none" stroke="grey" stroke-width="2" d="M53.53,-215.34C54.56,-208.75 55.77,-201.08 56.93,-193.67"/>
<polygon fill="grey" stroke="grey" stroke-width="2" points="60.37,-194.31 58.47,-183.89 53.46,-193.23 60.37,-194.31"/>
</g>
<!-- 4 -->
<g id="node5" class="node">
<title>4</title>
<path fill="none" stroke="#d6d856" stroke-width="2" d="M47.5,-324C47.5,-324 12,-324 12,-324 6,-324 0,-318 0,-312 0,-312 0,-300 0,-300 0,-294 6,-288 12,-288 12,-288 47.5,-288 47.5,-288 53.5,-288 59.5,-294 59.5,-300 59.5,-300 59.5,-312 59.5,-312 59.5,-318 53.5,-324 47.5,-324"/>
<text text-anchor="middle" x="29.75" y="-302.12" font-family="sans" font-size="10.00">mmp2surf</text>
</g>
<!-- 4&#45;&gt;3 -->
<g id="edge6" class="edge">
<title>4&#45;&gt;3</title>
<path fill="none" stroke="grey" stroke-width="2" d="M35.05,-287.34C37.07,-280.59 39.44,-272.69 41.72,-265.11"/>
<polygon fill="grey" stroke="grey" stroke-width="2" points="44.99,-266.39 44.51,-255.8 38.28,-264.37 44.99,-266.39"/>
</g>
<!-- 5 -->
<g id="node6" class="node">
<title>5</title>
<path fill="none" stroke="#56d89a" stroke-width="2" d="M272.12,-252C272.12,-252 207.38,-252 207.38,-252 201.38,-252 195.38,-246 195.38,-240 195.38,-240 195.38,-228 195.38,-228 195.38,-222 201.38,-216 207.38,-216 207.38,-216 272.12,-216 272.12,-216 278.12,-216 284.12,-222 284.12,-228 284.12,-228 284.12,-240 284.12,-240 284.12,-246 278.12,-252 272.12,-252"/>
<text text-anchor="middle" x="239.75" y="-230.12" font-family="sans" font-size="10.00">run_tractography</text>
</g>
<!-- 5&#45;&gt;1 -->
<g id="edge3" class="edge">
<title>5&#45;&gt;1</title>
<path fill="none" stroke="grey" stroke-width="2" d="M233.78,-215.11C227.37,-196.77 216.39,-167.67 203.75,-144 199.26,-135.6 193.75,-126.89 188.4,-119.01"/>
<polygon fill="grey" stroke="grey" stroke-width="2" points="191.41,-117.21 182.8,-111.04 185.68,-121.23 191.41,-117.21"/>
</g>
<!-- 44 -->
<g id="node45" class="node">
<title>44</title>
<path fill="none" stroke="#d89c56" stroke-width="2" d="M182.75,-180C182.75,-180 152.75,-180 152.75,-180 146.75,-180 140.75,-174 140.75,-168 140.75,-168 140.75,-156 140.75,-156 140.75,-150 146.75,-144 152.75,-144 152.75,-144 182.75,-144 182.75,-144 188.75,-144 194.75,-150 194.75,-156 194.75,-156 194.75,-168 194.75,-168 194.75,-174 188.75,-180 182.75,-180"/>
<text text-anchor="middle" x="167.75" y="-158.12" font-family="sans" font-size="10.00">run_sift</text>
</g>
<!-- 5&#45;&gt;44 -->
<g id="edge69" class="edge">
<title>5&#45;&gt;44</title>
<path fill="none" stroke="grey" stroke-width="2" d="M221.58,-215.34C213.63,-207.6 204.12,-198.36 195.32,-189.81"/>
<polygon fill="grey" stroke="grey" stroke-width="2" points="197.94,-187.47 188.33,-183.01 193.06,-192.49 197.94,-187.47"/>
</g>
<!-- 6 -->
<g id="node7" class="node">
<title>6</title>
<path fill="none" stroke="#56d892" stroke-width="2" d="M266.12,-324C266.12,-324 213.38,-324 213.38,-324 207.38,-324 201.38,-318 201.38,-312 201.38,-312 201.38,-300 201.38,-300 201.38,-294 207.38,-288 213.38,-288 213.38,-288 266.12,-288 266.12,-288 272.12,-288 278.12,-294 278.12,-300 278.12,-300 278.12,-312 278.12,-312 278.12,-318 272.12,-324 266.12,-324"/>
<text text-anchor="middle" x="239.75" y="-302.12" font-family="sans" font-size="10.00">normalize_fod</text>
</g>
<!-- 6&#45;&gt;5 -->
<g id="edge7" class="edge">
<title>6&#45;&gt;5</title>
<path fill="none" stroke="grey" stroke-width="2" d="M239.75,-287.34C239.75,-280.75 239.75,-273.08 239.75,-265.67"/>
<polygon fill="grey" stroke="grey" stroke-width="2" points="243.25,-265.93 239.75,-255.93 236.25,-265.93 243.25,-265.93"/>
</g>
<!-- 6&#45;&gt;44 -->
<g id="edge68" class="edge">
<title>6&#45;&gt;44</title>
<path fill="none" stroke="grey" stroke-width="2" d="M216.54,-287.16C205.92,-277.81 194.08,-265.49 186.75,-252 177,-234.06 172.25,-211.55 169.94,-193.65"/>
<polygon fill="grey" stroke="grey" stroke-width="2" points="173.42,-193.33 168.9,-183.75 166.46,-194.07 173.42,-193.33"/>
</g>
<!-- 7 -->
<g id="node8" class="node">
<title>7</title>
<path fill="none" stroke="#56d8b1" stroke-width="2" d="M198.12,-468C198.12,-468 139.38,-468 139.38,-468 133.38,-468 127.38,-462 127.38,-456 127.38,-456 127.38,-444 127.38,-444 127.38,-438 133.38,-432 139.38,-432 139.38,-432 198.12,-432 198.12,-432 204.12,-432 210.12,-438 210.12,-444 210.12,-444 210.12,-456 210.12,-456 210.12,-462 204.12,-468 198.12,-468"/>
<text text-anchor="middle" x="168.75" y="-446.12" font-family="sans" font-size="10.00">generate_mask</text>
</g>
<!-- 7&#45;&gt;6 -->
<g id="edge10" class="edge">
<title>7&#45;&gt;6</title>
<path fill="none" stroke="grey" stroke-width="2" d="M177.74,-431.02C189.64,-407.22 210.76,-364.97 225.01,-336.48"/>
<polygon fill="grey" stroke="grey" stroke-width="2" points="228.14,-338.06 229.48,-327.55 221.87,-334.92 228.14,-338.06"/>
</g>
<!-- 41 -->
<g id="node42" class="node">
<title>41</title>
<path fill="none" stroke="#56a2d8" stroke-width="2" d="M303.88,-396C303.88,-396 255.62,-396 255.62,-396 249.62,-396 243.62,-390 243.62,-384 243.62,-384 243.62,-372 243.62,-372 243.62,-366 249.62,-360 255.62,-360 255.62,-360 303.88,-360 303.88,-360 309.88,-360 315.88,-366 315.88,-372 315.88,-372 315.88,-384 315.88,-384 315.88,-390 309.88,-396 303.88,-396"/>
<text text-anchor="middle" x="279.75" y="-374.12" font-family="sans" font-size="10.00">generate_fod</text>
</g>
<!-- 7&#45;&gt;41 -->
<g id="edge66" class="edge">
<title>7&#45;&gt;41</title>
<path fill="none" stroke="grey" stroke-width="2" d="M197.05,-431.15C210.36,-422.76 226.44,-412.62 240.87,-403.52"/>
<polygon fill="grey" stroke="grey" stroke-width="2" points="242.35,-406.72 248.94,-398.43 238.62,-400.8 242.35,-406.72"/>
</g>
<!-- 8 -->
<g id="node9" class="node">
<title>8</title>
<path fill="none" stroke="#56d86b" stroke-width="2" d="M324.75,-540C324.75,-540 266.75,-540 266.75,-540 260.75,-540 254.75,-534 254.75,-528 254.75,-528 254.75,-516 254.75,-516 254.75,-510 260.75,-504 266.75,-504 266.75,-504 324.75,-504 324.75,-504 330.75,-504 336.75,-510 336.75,-516 336.75,-516 336.75,-528 336.75,-528 336.75,-534 330.75,-540 324.75,-540"/>
<text text-anchor="middle" x="295.75" y="-518.12" font-family="sans" font-size="10.00">bias_correction</text>
</g>
<!-- 8&#45;&gt;7 -->
<g id="edge11" class="edge">
<title>8&#45;&gt;7</title>
<path fill="none" stroke="grey" stroke-width="2" d="M263.37,-503.15C247.85,-494.6 229.03,-484.22 212.27,-474.99"/>
<polygon fill="grey" stroke="grey" stroke-width="2" points="214.17,-472.04 203.72,-470.27 210.79,-478.17 214.17,-472.04"/>
</g>
<!-- 8&#45;&gt;41 -->
<g id="edge64" class="edge">
<title>8&#45;&gt;41</title>
<path fill="none" stroke="grey" stroke-width="2" d="M336.24,-503.18C350.44,-494.71 364.82,-483.08 372.75,-468 380.19,-453.84 380.79,-445.83 372.75,-432 362.96,-415.16 345.6,-403.22 328.51,-395"/>
<polygon fill="grey" stroke="grey" stroke-width="2" points="330.15,-391.9 319.59,-391.1 327.35,-398.31 330.15,-391.9"/>
</g>
<!-- 42 -->
<g id="node43" class="node">
<title>42</title>
<path fill="none" stroke="#d86e56" stroke-width="2" d="M351.75,-468C351.75,-468 239.75,-468 239.75,-468 233.75,-468 227.75,-462 227.75,-456 227.75,-456 227.75,-444 227.75,-444 227.75,-438 233.75,-432 239.75,-432 239.75,-432 351.75,-432 351.75,-432 357.75,-432 363.75,-438 363.75,-444 363.75,-444 363.75,-456 363.75,-456 363.75,-462 357.75,-468 351.75,-468"/>
<text text-anchor="middle" x="295.75" y="-446.12" font-family="sans" font-size="10.00">extract_response_functions</text>
</g>
<!-- 8&#45;&gt;42 -->
<g id="edge67" class="edge">
<title>8&#45;&gt;42</title>
<path fill="none" stroke="grey" stroke-width="2" d="M295.75,-503.34C295.75,-496.75 295.75,-489.08 295.75,-481.67"/>
<polygon fill="grey" stroke="grey" stroke-width="2" points="299.25,-481.93 295.75,-471.93 292.25,-481.93 299.25,-481.93"/>
</g>
<!-- 9 -->
<g id="node10" class="node">
<title>9</title>
<path fill="none" stroke="#d85656" stroke-width="2" d="M314.62,-612C314.62,-612 276.88,-612 276.88,-612 270.88,-612 264.88,-606 264.88,-600 264.88,-600 264.88,-588 264.88,-588 264.88,-582 270.88,-576 276.88,-576 276.88,-576 314.62,-576 314.62,-576 320.62,-576 326.62,-582 326.62,-588 326.62,-588 326.62,-600 326.62,-600 326.62,-606 320.62,-612 314.62,-612"/>
<text text-anchor="middle" x="295.75" y="-590.12" font-family="sans" font-size="10.00">create_mif</text>
</g>
<!-- 9&#45;&gt;8 -->
<g id="edge12" class="edge">
<title>9&#45;&gt;8</title>
<path fill="none" stroke="grey" stroke-width="2" d="M295.75,-575.34C295.75,-568.75 295.75,-561.08 295.75,-553.67"/>
<polygon fill="grey" stroke="grey" stroke-width="2" points="299.25,-553.93 295.75,-543.93 292.25,-553.93 299.25,-553.93"/>
</g>
<!-- 10 -->
<g id="node11" class="node">
<title>10</title>
<path fill="none" stroke="#56d87b" stroke-width="2" d="M289.62,-684C289.62,-684 233.88,-684 233.88,-684 227.88,-684 221.88,-678 221.88,-672 221.88,-672 221.88,-660 221.88,-660 221.88,-654 227.88,-648 233.88,-648 233.88,-648 289.62,-648 289.62,-648 295.62,-648 301.62,-654 301.62,-660 301.62,-660 301.62,-672 301.62,-672 301.62,-678 295.62,-684 289.62,-684"/>
<text text-anchor="middle" x="261.75" y="-662.12" font-family="sans" font-size="10.00">threshold_data</text>
</g>
<!-- 10&#45;&gt;9 -->
<g id="edge13" class="edge">
<title>10&#45;&gt;9</title>
<path fill="none" stroke="grey" stroke-width="2" d="M270.33,-647.34C273.69,-640.43 277.63,-632.31 281.39,-624.56"/>
<polygon fill="grey" stroke="grey" stroke-width="2" points="284.51,-626.15 285.73,-615.62 278.21,-623.09 284.51,-626.15"/>
</g>
<!-- 11 -->
<g id="node12" class="node">
<title>11</title>
<path fill="none" stroke="#d8b456" stroke-width="2" d="M260.12,-756C260.12,-756 201.38,-756 201.38,-756 195.38,-756 189.38,-750 189.38,-744 189.38,-744 189.38,-732 189.38,-732 189.38,-726 195.38,-720 201.38,-720 201.38,-720 260.12,-720 260.12,-720 266.12,-720 272.12,-726 272.12,-732 272.12,-732 272.12,-744 272.12,-744 272.12,-750 266.12,-756 260.12,-756"/>
<text text-anchor="middle" x="230.75" y="-734.12" font-family="sans" font-size="10.00">fov_mask_data</text>
</g>
<!-- 11&#45;&gt;10 -->
<g id="edge15" class="edge">
<title>11&#45;&gt;10</title>
<path fill="none" stroke="grey" stroke-width="2" d="M238.57,-719.34C241.63,-712.43 245.23,-704.31 248.66,-696.56"/>
<polygon fill="grey" stroke="grey" stroke-width="2" points="251.75,-698.23 252.6,-687.67 245.35,-695.4 251.75,-698.23"/>
</g>
<!-- 12 -->
<g id="node13" class="node">
<title>12</title>
<path fill="none" stroke="#567bd8" stroke-width="2" d="M146.88,-828C146.88,-828 80.62,-828 80.62,-828 74.62,-828 68.62,-822 68.62,-816 68.62,-816 68.62,-804 68.62,-804 68.62,-798 74.62,-792 80.62,-792 80.62,-792 146.88,-792 146.88,-792 152.88,-792 158.88,-798 158.88,-804 158.88,-804 158.88,-816 158.88,-816 158.88,-822 152.88,-828 146.88,-828"/>
<text text-anchor="middle" x="113.75" y="-806.12" font-family="sans" font-size="10.00">adjust_fov_mask</text>
</g>
<!-- 12&#45;&gt;11 -->
<g id="edge18" class="edge">
<title>12&#45;&gt;11</title>
<path fill="none" stroke="grey" stroke-width="2" d="M143.58,-791.15C157.74,-782.68 174.89,-772.42 190.21,-763.25"/>
<polygon fill="grey" stroke="grey" stroke-width="2" points="191.6,-766.5 198.38,-758.37 188,-760.5 191.6,-766.5"/>
</g>
<!-- 13 -->
<g id="node14" class="node">
<title>13</title>
<path fill="none" stroke="#59d856" stroke-width="2" d="M167,-900C167,-900 86.5,-900 86.5,-900 80.5,-900 74.5,-894 74.5,-888 74.5,-888 74.5,-876 74.5,-876 74.5,-870 80.5,-864 86.5,-864 86.5,-864 167,-864 167,-864 173,-864 179,-870 179,-876 179,-876 179,-888 179,-888 179,-894 173,-900 167,-900"/>
<text text-anchor="middle" x="126.75" y="-878.12" font-family="sans" font-size="10.00">register_diff_to_T1w</text>
</g>
<!-- 13&#45;&gt;11 -->
<g id="edge16" class="edge">
<title>13&#45;&gt;11</title>
<path fill="none" stroke="grey" stroke-width="2" d="M140.61,-863.48C148.64,-853.22 158.89,-839.97 167.75,-828 182.53,-808.03 198.72,-785.14 210.98,-767.58"/>
<polygon fill="grey" stroke="grey" stroke-width="2" points="213.85,-769.58 216.69,-759.37 208.1,-765.58 213.85,-769.58"/>
</g>
<!-- 13&#45;&gt;12 -->
<g id="edge19" class="edge">
<title>13&#45;&gt;12</title>
<path fill="none" stroke="grey" stroke-width="2" d="M123.47,-863.34C122.25,-856.75 120.82,-849.08 119.45,-841.67"/>
<polygon fill="grey" stroke="grey" stroke-width="2" points="122.89,-841.07 117.63,-831.88 116.01,-842.35 122.89,-841.07"/>
</g>
<!-- 14 -->
<g id="node15" class="node">
<title>14</title>
<path fill="none" stroke="#d89556" stroke-width="2" d="M191.12,-1620C191.12,-1620 132.38,-1620 132.38,-1620 126.38,-1620 120.38,-1614 120.38,-1608 120.38,-1608 120.38,-1596 120.38,-1596 120.38,-1590 126.38,-1584 132.38,-1584 132.38,-1584 191.12,-1584 191.12,-1584 197.12,-1584 203.12,-1590 203.12,-1596 203.12,-1596 203.12,-1608 203.12,-1608 203.12,-1614 197.12,-1620 191.12,-1620"/>
<text text-anchor="middle" x="161.75" y="-1598.12" font-family="sans" font-size="10.00">mask_out_data</text>
</g>
<!-- 14&#45;&gt;13 -->
<g id="edge23" class="edge">
<title>14&#45;&gt;13</title>
<path fill="none" stroke="grey" stroke-width="2" d="M144.88,-1583.35C122.49,-1557.98 85.75,-1508.77 85.75,-1459 85.75,-1459 85.75,-1459 85.75,-1025 85.75,-984.95 100.99,-940.94 112.89,-912.7"/>
<polygon fill="grey" stroke="grey" stroke-width="2" points="116.04,-914.24 116.84,-903.68 109.62,-911.43 116.04,-914.24"/>
</g>
<!-- 27 -->
<g id="node28" class="node">
<title>27</title>
<path fill="none" stroke="#56d0d8" stroke-width="2" d="M227.5,-972C227.5,-972 126,-972 126,-972 120,-972 114,-966 114,-960 114,-960 114,-948 114,-948 114,-942 120,-936 126,-936 126,-936 227.5,-936 227.5,-936 233.5,-936 239.5,-942 239.5,-948 239.5,-948 239.5,-960 239.5,-960 239.5,-966 233.5,-972 227.5,-972"/>
<text text-anchor="middle" x="176.75" y="-950.12" font-family="sans" font-size="10.00">diff_res_structural_space</text>
</g>
<!-- 14&#45;&gt;27 -->
<g id="edge42" class="edge">
<title>14&#45;&gt;27</title>
<path fill="none" stroke="grey" stroke-width="2" d="M153.69,-1583.03C142.54,-1556.48 123.75,-1504.94 123.75,-1459 123.75,-1459 123.75,-1459 123.75,-1097 123.75,-1056.55 127.36,-1045.4 142.75,-1008 146.22,-999.58 151.03,-991.02 155.94,-983.32"/>
<polygon fill="grey" stroke="grey" stroke-width="2" points="158.69,-985.5 161.38,-975.25 152.88,-981.59 158.69,-985.5"/>
</g>
<!-- 29 -->
<g id="node30" class="node">
<title>29</title>
<path fill="none" stroke="#70d856" stroke-width="2" d="M211.12,-1116C211.12,-1116 164.38,-1116 164.38,-1116 158.38,-1116 152.38,-1110 152.38,-1104 152.38,-1104 152.38,-1092 152.38,-1092 152.38,-1086 158.38,-1080 164.38,-1080 164.38,-1080 211.12,-1080 211.12,-1080 217.12,-1080 223.12,-1086 223.12,-1092 223.12,-1092 223.12,-1104 223.12,-1104 223.12,-1110 217.12,-1116 211.12,-1116"/>
<text text-anchor="middle" x="187.75" y="-1094.12" font-family="sans" font-size="10.00">apply_warp3</text>
</g>
<!-- 14&#45;&gt;29 -->
<g id="edge45" class="edge">
<title>14&#45;&gt;29</title>
<path fill="none" stroke="grey" stroke-width="2" d="M161.75,-1583.07C161.75,-1556.13 161.75,-1503.62 161.75,-1459 161.75,-1459 161.75,-1459 161.75,-1241 161.75,-1201.84 171.44,-1157.58 178.98,-1129.04"/>
<polygon fill="grey" stroke="grey" stroke-width="2" points="182.29,-1130.23 181.56,-1119.66 175.54,-1128.38 182.29,-1130.23"/>
</g>
<!-- 31 -->
<g id="node32" class="node">
<title>31</title>
<path fill="none" stroke="#d8c356" stroke-width="2" d="M281.88,-1548C281.88,-1548 239.62,-1548 239.62,-1548 233.62,-1548 227.62,-1542 227.62,-1536 227.62,-1536 227.62,-1524 227.62,-1524 227.62,-1518 233.62,-1512 239.62,-1512 239.62,-1512 281.88,-1512 281.88,-1512 287.88,-1512 293.88,-1518 293.88,-1524 293.88,-1524 293.88,-1536 293.88,-1536 293.88,-1542 287.88,-1548 281.88,-1548"/>
<text text-anchor="middle" x="260.75" y="-1526.12" font-family="sans" font-size="10.00">epi_reg_dof</text>
</g>
<!-- 14&#45;&gt;31 -->
<g id="edge48" class="edge">
<title>14&#45;&gt;31</title>
<path fill="none" stroke="grey" stroke-width="2" d="M186.99,-1583.15C198.51,-1575.01 212.36,-1565.22 224.93,-1556.33"/>
<polygon fill="grey" stroke="grey" stroke-width="2" points="226.94,-1559.19 233.09,-1550.56 222.9,-1553.48 226.94,-1559.19"/>
</g>
<!-- 35 -->
<g id="node36" class="node">
<title>35</title>
<path fill="none" stroke="#b6d856" stroke-width="2" d="M261.12,-1476C261.12,-1476 214.38,-1476 214.38,-1476 208.38,-1476 202.38,-1470 202.38,-1464 202.38,-1464 202.38,-1452 202.38,-1452 202.38,-1446 208.38,-1440 214.38,-1440 214.38,-1440 261.12,-1440 261.12,-1440 267.12,-1440 273.12,-1446 273.12,-1452 273.12,-1452 273.12,-1464 273.12,-1464 273.12,-1470 267.12,-1476 261.12,-1476"/>
<text text-anchor="middle" x="237.75" y="-1454.12" font-family="sans" font-size="10.00">apply_warp2</text>
</g>
<!-- 14&#45;&gt;35 -->
<g id="edge54" class="edge">
<title>14&#45;&gt;35</title>
<path fill="none" stroke="grey" stroke-width="2" d="M171.38,-1583.02C184.17,-1559.12 206.92,-1516.59 222.18,-1488.1"/>
<polygon fill="grey" stroke="grey" stroke-width="2" points="225.14,-1489.98 226.77,-1479.51 218.97,-1486.67 225.14,-1489.98"/>
</g>
<!-- 15 -->
<g id="node16" class="node">
<title>15</title>
<path fill="none" stroke="#d88556" stroke-width="2" d="M123.25,-1692C123.25,-1692 56.25,-1692 56.25,-1692 50.25,-1692 44.25,-1686 44.25,-1680 44.25,-1680 44.25,-1668 44.25,-1668 44.25,-1662 50.25,-1656 56.25,-1656 56.25,-1656 123.25,-1656 123.25,-1656 129.25,-1656 135.25,-1662 135.25,-1668 135.25,-1668 135.25,-1680 135.25,-1680 135.25,-1686 129.25,-1692 123.25,-1692"/>
<text text-anchor="middle" x="89.75" y="-1670.12" font-family="sans" font-size="10.00">create_fov_mask</text>
</g>
<!-- 15&#45;&gt;13 -->
<g id="edge22" class="edge">
<title>15&#45;&gt;13</title>
<path fill="none" stroke="grey" stroke-width="2" d="M80.84,-1655.12C68.51,-1628.68 47.75,-1577.28 47.75,-1531 47.75,-1531 47.75,-1531 47.75,-1025 47.75,-980.72 77.44,-937.36 100.42,-910.44"/>
<polygon fill="grey" stroke="grey" stroke-width="2" points="102.8,-913.03 106.82,-903.22 97.56,-908.39 102.8,-913.03"/>
</g>
<!-- 15&#45;&gt;14 -->
<g id="edge25" class="edge">
<title>15&#45;&gt;14</title>
<path fill="none" stroke="grey" stroke-width="2" d="M107.92,-1655.34C115.87,-1647.6 125.38,-1638.36 134.18,-1629.81"/>
<polygon fill="grey" stroke="grey" stroke-width="2" points="136.44,-1632.49 141.17,-1623.01 131.56,-1627.47 136.44,-1632.49"/>
</g>
<!-- 16 -->
<g id="node17" class="node">
<title>16</title>
<path fill="none" stroke="#97d856" stroke-width="2" d="M190.12,-1764C190.12,-1764 137.38,-1764 137.38,-1764 131.38,-1764 125.38,-1758 125.38,-1752 125.38,-1752 125.38,-1740 125.38,-1740 125.38,-1734 131.38,-1728 137.38,-1728 137.38,-1728 190.12,-1728 190.12,-1728 196.12,-1728 202.12,-1734 202.12,-1740 202.12,-1740 202.12,-1752 202.12,-1752 202.12,-1758 196.12,-1764 190.12,-1764"/>
<text text-anchor="middle" x="163.75" y="-1742.12" font-family="sans" font-size="10.00">combine_data</text>
</g>
<!-- 16&#45;&gt;14 -->
<g id="edge24" class="edge">
<title>16&#45;&gt;14</title>
<path fill="none" stroke="grey" stroke-width="2" d="M163.5,-1727.02C163.17,-1703.54 162.58,-1662.11 162.18,-1633.64"/>
<polygon fill="grey" stroke="grey" stroke-width="2" points="165.68,-1633.81 162.04,-1623.87 158.69,-1633.91 165.68,-1633.81"/>
</g>
<!-- 16&#45;&gt;15 -->
<g id="edge26" class="edge">
<title>16&#45;&gt;15</title>
<path fill="none" stroke="grey" stroke-width="2" d="M145.08,-1727.34C136.9,-1719.6 127.13,-1710.36 118.09,-1701.81"/>
<polygon fill="grey" stroke="grey" stroke-width="2" points="120.54,-1699.31 110.87,-1694.98 115.73,-1704.4 120.54,-1699.31"/>
</g>
<!-- 17 -->
<g id="node18" class="node">
<title>17</title>
<path fill="none" stroke="#56b9d8" stroke-width="2" d="M335.25,-2124C335.25,-2124 292.25,-2124 292.25,-2124 286.25,-2124 280.25,-2118 280.25,-2112 280.25,-2112 280.25,-2100 280.25,-2100 280.25,-2094 286.25,-2088 292.25,-2088 292.25,-2088 335.25,-2088 335.25,-2088 341.25,-2088 347.25,-2094 347.25,-2100 347.25,-2100 347.25,-2112 347.25,-2112 347.25,-2118 341.25,-2124 335.25,-2124"/>
<text text-anchor="middle" x="313.75" y="-2102.12" font-family="sans" font-size="10.00">merge_data</text>
</g>
<!-- 17&#45;&gt;16 -->
<g id="edge27" class="edge">
<title>17&#45;&gt;16</title>
<path fill="none" stroke="grey" stroke-width="2" d="M279.35,-2091.58C233.69,-2071.24 158.75,-2027.96 158.75,-1963 158.75,-1963 158.75,-1963 158.75,-1889 158.75,-1850.63 160.6,-1806.46 162.04,-1777.71"/>
<polygon fill="grey" stroke="grey" stroke-width="2" points="165.53,-1778.12 162.56,-1767.95 158.54,-1777.75 165.53,-1778.12"/>
</g>
<!-- 22 -->
<g id="node23" class="node">
<title>22</title>
<path fill="none" stroke="#56b1d8" stroke-width="2" d="M344.75,-1836C344.75,-1836 314.75,-1836 314.75,-1836 308.75,-1836 302.75,-1830 302.75,-1824 302.75,-1824 302.75,-1812 302.75,-1812 302.75,-1806 308.75,-1800 314.75,-1800 314.75,-1800 344.75,-1800 344.75,-1800 350.75,-1800 356.75,-1806 356.75,-1812 356.75,-1812 356.75,-1824 356.75,-1824 356.75,-1830 350.75,-1836 344.75,-1836"/>
<text text-anchor="middle" x="329.75" y="-1814.12" font-family="sans" font-size="10.00">eddy</text>
</g>
<!-- 17&#45;&gt;22 -->
<g id="edge34" class="edge">
<title>17&#45;&gt;22</title>
<path fill="none" stroke="grey" stroke-width="2" d="M282.46,-2087.09C270.18,-2078.26 257.45,-2066.38 250.75,-2052 244,-2037.49 249.38,-2031.94 250.75,-2016 256.33,-1951.28 245.56,-1929.52 275.75,-1872 280.83,-1862.33 288.31,-1853.34 296.09,-1845.62"/>
<polygon fill="grey" stroke="grey" stroke-width="2" points="298.38,-1848.27 303.37,-1838.92 293.64,-1843.12 298.38,-1848.27"/>
</g>
<!-- 23 -->
<g id="node24" class="node">
<title>23</title>
<path fill="none" stroke="#ced856" stroke-width="2" d="M301.75,-2052C301.75,-2052 271.75,-2052 271.75,-2052 265.75,-2052 259.75,-2046 259.75,-2040 259.75,-2040 259.75,-2028 259.75,-2028 259.75,-2022 265.75,-2016 271.75,-2016 271.75,-2016 301.75,-2016 301.75,-2016 307.75,-2016 313.75,-2022 313.75,-2028 313.75,-2028 313.75,-2040 313.75,-2040 313.75,-2046 307.75,-2052 301.75,-2052"/>
<text text-anchor="middle" x="286.75" y="-2030.12" font-family="sans" font-size="10.00">topup</text>
</g>
<!-- 17&#45;&gt;23 -->
<g id="edge37" class="edge">
<title>17&#45;&gt;23</title>
<path fill="none" stroke="grey" stroke-width="2" d="M306.94,-2087.34C304.3,-2080.51 301.21,-2072.5 298.26,-2064.83"/>
<polygon fill="grey" stroke="grey" stroke-width="2" points="301.61,-2063.8 294.74,-2055.73 295.08,-2066.32 301.61,-2063.8"/>
</g>
<!-- 25 -->
<g id="node26" class="node">
<title>25</title>
<path fill="none" stroke="#565bd8" stroke-width="2" d="M349.38,-1980C349.38,-1980 310.12,-1980 310.12,-1980 304.12,-1980 298.12,-1974 298.12,-1968 298.12,-1968 298.12,-1956 298.12,-1956 298.12,-1950 304.12,-1944 310.12,-1944 310.12,-1944 349.38,-1944 349.38,-1944 355.38,-1944 361.38,-1950 361.38,-1956 361.38,-1956 361.38,-1968 361.38,-1968 361.38,-1974 355.38,-1980 349.38,-1980"/>
<text text-anchor="middle" x="329.75" y="-1958.12" font-family="sans" font-size="10.00">get_hifi_b0</text>
</g>
<!-- 17&#45;&gt;25 -->
<g id="edge39" class="edge">
<title>17&#45;&gt;25</title>
<path fill="none" stroke="grey" stroke-width="2" d="M317.15,-2087.39C319.03,-2077.11 321.28,-2063.86 322.75,-2052 325.15,-2032.68 326.88,-2010.89 328.02,-1993.7"/>
<polygon fill="grey" stroke="grey" stroke-width="2" points="331.5,-1994 328.63,-1983.8 324.52,-1993.56 331.5,-1994"/>
</g>
<!-- 39 -->
<g id="node40" class="node">
<title>39</title>
<path fill="none" stroke="#56d882" stroke-width="2" d="M402.38,-1692C402.38,-1692 309.12,-1692 309.12,-1692 303.12,-1692 297.12,-1686 297.12,-1680 297.12,-1680 297.12,-1668 297.12,-1668 297.12,-1662 303.12,-1656 309.12,-1656 309.12,-1656 402.38,-1656 402.38,-1656 408.38,-1656 414.38,-1662 414.38,-1668 414.38,-1668 414.38,-1680 414.38,-1680 414.38,-1686 408.38,-1692 402.38,-1692"/>
<text text-anchor="middle" x="355.75" y="-1670.12" font-family="sans" font-size="10.00">average_rotated_bvecs</text>
</g>
<!-- 17&#45;&gt;39 -->
<g id="edge59" class="edge">
<title>17&#45;&gt;39</title>
<path fill="none" stroke="grey" stroke-width="2" d="M341.93,-2087.15C375.69,-2063.31 427.75,-2017.69 427.75,-1963 427.75,-1963 427.75,-1963 427.75,-1817 427.75,-1776.55 428.07,-1763.54 408.75,-1728 403.54,-1718.41 396.05,-1709.41 388.34,-1701.65"/>
<polygon fill="grey" stroke="grey" stroke-width="2" points="390.85,-1699.21 381.16,-1694.91 386.05,-1704.31 390.85,-1699.21"/>
</g>
<!-- 40 -->
<g id="node41" class="node">
<title>40</title>
<path fill="none" stroke="#d8d356" stroke-width="2" d="M387.88,-1764C387.88,-1764 315.62,-1764 315.62,-1764 309.62,-1764 303.62,-1758 303.62,-1752 303.62,-1752 303.62,-1740 303.62,-1740 303.62,-1734 309.62,-1728 315.62,-1728 315.62,-1728 387.88,-1728 387.88,-1728 393.88,-1728 399.88,-1734 399.88,-1740 399.88,-1740 399.88,-1752 399.88,-1752 399.88,-1758 393.88,-1764 387.88,-1764"/>
<text text-anchor="middle" x="351.75" y="-1742.12" font-family="sans" font-size="10.00">get_rotated_bvecs</text>
</g>
<!-- 17&#45;&gt;40 -->
<g id="edge62" class="edge">
<title>17&#45;&gt;40</title>
<path fill="none" stroke="grey" stroke-width="2" d="M330.62,-2087.35C353.01,-2061.98 389.75,-2012.77 389.75,-1963 389.75,-1963 389.75,-1963 389.75,-1889 389.75,-1849.16 375.62,-1805.11 364.6,-1776.8"/>
<polygon fill="grey" stroke="grey" stroke-width="2" points="367.94,-1775.73 360.94,-1767.77 361.45,-1778.36 367.94,-1775.73"/>
</g>
<!-- 18 -->
<g id="node19" class="node">
<title>18</title>
<path fill="none" stroke="#d8ac56" stroke-width="2" d="M301.88,-2196C301.88,-2196 187.62,-2196 187.62,-2196 181.62,-2196 175.62,-2190 175.62,-2184 175.62,-2184 175.62,-2172 175.62,-2172 175.62,-2166 181.62,-2160 187.62,-2160 187.62,-2160 301.88,-2160 301.88,-2160 307.88,-2160 313.88,-2166 313.88,-2172 313.88,-2172 313.88,-2184 313.88,-2184 313.88,-2190 307.88,-2196 301.88,-2196"/>
<text text-anchor="middle" x="244.75" y="-2174.12" font-family="sans" font-size="10.00">rescale_series_conditionally</text>
</g>
<!-- 18&#45;&gt;17 -->
<g id="edge30" class="edge">
<title>18&#45;&gt;17</title>
<path fill="none" stroke="grey" stroke-width="2" d="M262.16,-2159.34C269.7,-2151.69 278.7,-2142.56 287.06,-2134.08"/>
<polygon fill="grey" stroke="grey" stroke-width="2" points="289.45,-2136.64 293.98,-2127.06 284.47,-2131.72 289.45,-2136.64"/>
</g>
<!-- 19 -->
<g id="node20" class="node">
<title>19</title>
<path fill="none" stroke="#8fd856" stroke-width="2" d="M259.75,-2268C259.75,-2268 229.75,-2268 229.75,-2268 223.75,-2268 217.75,-2262 217.75,-2256 217.75,-2256 217.75,-2244 217.75,-2244 217.75,-2238 223.75,-2232 229.75,-2232 229.75,-2232 259.75,-2232 259.75,-2232 265.75,-2232 271.75,-2238 271.75,-2244 271.75,-2244 271.75,-2256 271.75,-2256 271.75,-2262 265.75,-2268 259.75,-2268"/>
<text text-anchor="middle" x="244.75" y="-2246.12" font-family="sans" font-size="10.00">meants</text>
</g>
<!-- 19&#45;&gt;18 -->
<g id="edge32" class="edge">
<title>19&#45;&gt;18</title>
<path fill="none" stroke="grey" stroke-width="2" d="M244.75,-2231.34C244.75,-2224.75 244.75,-2217.08 244.75,-2209.67"/>
<polygon fill="grey" stroke="grey" stroke-width="2" points="248.25,-2209.93 244.75,-2199.93 241.25,-2209.93 248.25,-2209.93"/>
</g>
<!-- 20 -->
<g id="node21" class="node">
<title>20</title>
<path fill="none" stroke="#5663d8" stroke-width="2" d="M274.88,-2340C274.88,-2340 214.62,-2340 214.62,-2340 208.62,-2340 202.62,-2334 202.62,-2328 202.62,-2328 202.62,-2316 202.62,-2316 202.62,-2310 208.62,-2304 214.62,-2304 214.62,-2304 274.88,-2304 274.88,-2304 280.88,-2304 286.88,-2310 286.88,-2316 286.88,-2316 286.88,-2328 286.88,-2328 286.88,-2334 280.88,-2340 274.88,-2340"/>
<text text-anchor="middle" x="244.75" y="-2318.12" font-family="sans" font-size="10.00">calculate_mean</text>
</g>
<!-- 20&#45;&gt;19 -->
<g id="edge33" class="edge">
<title>20&#45;&gt;19</title>
<path fill="none" stroke="grey" stroke-width="2" d="M244.75,-2303.34C244.75,-2296.75 244.75,-2289.08 244.75,-2281.67"/>
<polygon fill="grey" stroke="grey" stroke-width="2" points="248.25,-2281.93 244.75,-2271.93 241.25,-2281.93 248.25,-2281.93"/>
</g>
<!-- 21 -->
<g id="node22" class="node">
<title>21</title>
<path fill="none" stroke="#9fd856" stroke-width="2" d="M423.62,-2196C423.62,-2196 343.88,-2196 343.88,-2196 337.88,-2196 331.88,-2190 331.88,-2184 331.88,-2184 331.88,-2172 331.88,-2172 331.88,-2166 337.88,-2160 343.88,-2160 343.88,-2160 423.62,-2160 423.62,-2160 429.62,-2160 435.62,-2166 435.62,-2172 435.62,-2172 435.62,-2184 435.62,-2184 435.62,-2190 429.62,-2196 423.62,-2196"/>
<text text-anchor="middle" x="383.75" y="-2174.12" font-family="sans" font-size="10.00">extract_b0_volumes</text>
</g>
<!-- 21&#45;&gt;17 -->
<g id="edge31" class="edge">
<title>21&#45;&gt;17</title>
<path fill="none" stroke="grey" stroke-width="2" d="M366.09,-2159.34C358.44,-2151.69 349.31,-2142.56 340.83,-2134.08"/>
<polygon fill="grey" stroke="grey" stroke-width="2" points="343.34,-2131.64 333.79,-2127.04 338.39,-2136.59 343.34,-2131.64"/>
</g>
<!-- 22&#45;&gt;16 -->
<g id="edge29" class="edge">
<title>22&#45;&gt;16</title>
<path fill="none" stroke="grey" stroke-width="2" d="M301.91,-1803.67C299.16,-1802.41 296.41,-1801.17 293.75,-1800 268,-1788.68 239.06,-1776.8 215.02,-1767.16"/>
<polygon fill="grey" stroke="grey" stroke-width="2" points="216.34,-1763.92 205.76,-1763.46 213.75,-1770.42 216.34,-1763.92"/>
</g>
<!-- 22&#45;&gt;40 -->
<g id="edge63" class="edge">
<title>22&#45;&gt;40</title>
<path fill="none" stroke="grey" stroke-width="2" d="M335.3,-1799.34C337.42,-1792.59 339.9,-1784.69 342.29,-1777.11"/>
<polygon fill="grey" stroke="grey" stroke-width="2" points="345.56,-1778.38 345.22,-1767.79 338.88,-1776.28 345.56,-1778.38"/>
</g>
<!-- 23&#45;&gt;22 -->
<g id="edge36" class="edge">
<title>23&#45;&gt;22</title>
<path fill="none" stroke="grey" stroke-width="2" d="M283.44,-2015.46C278.48,-1985.19 271.45,-1921.62 288.75,-1872 291.87,-1863.04 297.17,-1854.41 302.93,-1846.81"/>
<polygon fill="grey" stroke="grey" stroke-width="2" points="305.6,-1849.08 309.29,-1839.15 300.21,-1844.61 305.6,-1849.08"/>
</g>
<!-- 23&#45;&gt;25 -->
<g id="edge40" class="edge">
<title>23&#45;&gt;25</title>
<path fill="none" stroke="grey" stroke-width="2" d="M297.6,-2015.34C302,-2008.18 307.19,-1999.73 312.1,-1991.73"/>
<polygon fill="grey" stroke="grey" stroke-width="2" points="314.92,-1993.83 317.17,-1983.48 308.95,-1990.17 314.92,-1993.83"/>
</g>
<!-- 24 -->
<g id="node25" class="node">
<title>24</title>
<path fill="none" stroke="#566bd8" stroke-width="2" d="M349.38,-1908C349.38,-1908 310.12,-1908 310.12,-1908 304.12,-1908 298.12,-1902 298.12,-1896 298.12,-1896 298.12,-1884 298.12,-1884 298.12,-1878 304.12,-1872 310.12,-1872 310.12,-1872 349.38,-1872 349.38,-1872 355.38,-1872 361.38,-1878 361.38,-1884 361.38,-1884 361.38,-1896 361.38,-1896 361.38,-1902 355.38,-1908 349.38,-1908"/>
<text text-anchor="middle" x="329.75" y="-1886.12" font-family="sans" font-size="10.00">bet_hifi_b0</text>
</g>
<!-- 24&#45;&gt;22 -->
<g id="edge35" class="edge">
<title>24&#45;&gt;22</title>
<path fill="none" stroke="grey" stroke-width="2" d="M329.75,-1871.34C329.75,-1864.75 329.75,-1857.08 329.75,-1849.67"/>
<polygon fill="grey" stroke="grey" stroke-width="2" points="333.25,-1849.93 329.75,-1839.93 326.25,-1849.93 333.25,-1849.93"/>
</g>
<!-- 25&#45;&gt;24 -->
<g id="edge38" class="edge">
<title>25&#45;&gt;24</title>
<path fill="none" stroke="grey" stroke-width="2" d="M329.75,-1943.34C329.75,-1936.75 329.75,-1929.08 329.75,-1921.67"/>
<polygon fill="grey" stroke="grey" stroke-width="2" points="333.25,-1921.93 329.75,-1911.93 326.25,-1921.93 333.25,-1921.93"/>
</g>
<!-- 26 -->
<g id="node27" class="node">
<title>26</title>
<path fill="none" stroke="#56c9d8" stroke-width="2" d="M272.62,-1836C272.62,-1836 198.88,-1836 198.88,-1836 192.88,-1836 186.88,-1830 186.88,-1824 186.88,-1824 186.88,-1812 186.88,-1812 186.88,-1806 192.88,-1800 198.88,-1800 198.88,-1800 272.62,-1800 272.62,-1800 278.62,-1800 284.62,-1806 284.62,-1812 284.62,-1812 284.62,-1824 284.62,-1824 284.62,-1830 278.62,-1836 272.62,-1836"/>
<text text-anchor="middle" x="235.75" y="-1814.12" font-family="sans" font-size="10.00">create_series_files</text>
</g>
<!-- 26&#45;&gt;16 -->
<g id="edge28" class="edge">
<title>26&#45;&gt;16</title>
<path fill="none" stroke="grey" stroke-width="2" d="M217.58,-1799.34C209.63,-1791.6 200.12,-1782.36 191.32,-1773.81"/>
<polygon fill="grey" stroke="grey" stroke-width="2" points="193.94,-1771.47 184.33,-1767.01 189.06,-1776.49 193.94,-1771.47"/>
</g>
<!-- 26&#45;&gt;39 -->
<g id="edge61" class="edge">
<title>26&#45;&gt;39</title>
<path fill="none" stroke="grey" stroke-width="2" d="M245.56,-1799.29C256.35,-1780.58 274.82,-1750.71 294.75,-1728 303.04,-1718.55 313,-1709.23 322.45,-1701.1"/>
<polygon fill="grey" stroke="grey" stroke-width="2" points="324.63,-1703.83 330.07,-1694.73 320.15,-1698.46 324.63,-1703.83"/>
</g>
<!-- 27&#45;&gt;13 -->
<g id="edge20" class="edge">
<title>27&#45;&gt;13</title>
<path fill="none" stroke="grey" stroke-width="2" d="M164.13,-935.34C158.96,-928.1 152.84,-919.53 147.07,-911.45"/>
<polygon fill="grey" stroke="grey" stroke-width="2" points="149.96,-909.47 141.3,-903.37 144.26,-913.54 149.96,-909.47"/>
</g>
<!-- 37 -->
<g id="node38" class="node">
<title>37</title>
<path fill="none" stroke="#d85e56" stroke-width="2" d="M273.5,-900C273.5,-900 220,-900 220,-900 214,-900 208,-894 208,-888 208,-888 208,-876 208,-876 208,-870 214,-864 220,-864 220,-864 273.5,-864 273.5,-864 279.5,-864 285.5,-870 285.5,-876 285.5,-876 285.5,-888 285.5,-888 285.5,-894 279.5,-900 273.5,-900"/>
<text text-anchor="middle" x="246.75" y="-878.12" font-family="sans" font-size="10.00">diff_res_mask</text>
</g>
<!-- 27&#45;&gt;37 -->
<g id="edge56" class="edge">
<title>27&#45;&gt;37</title>
<path fill="none" stroke="grey" stroke-width="2" d="M194.41,-935.34C202.06,-927.69 211.19,-918.56 219.67,-910.08"/>
<polygon fill="grey" stroke="grey" stroke-width="2" points="222.11,-912.59 226.71,-903.04 217.16,-907.64 222.11,-912.59"/>
</g>
<!-- 28 -->
<g id="node29" class="node">
<title>28</title>
<path fill="none" stroke="#56d8d8" stroke-width="2" d="M211.5,-1044C211.5,-1044 164,-1044 164,-1044 158,-1044 152,-1038 152,-1032 152,-1032 152,-1020 152,-1020 152,-1014 158,-1008 164,-1008 164,-1008 211.5,-1008 211.5,-1008 217.5,-1008 223.5,-1014 223.5,-1020 223.5,-1020 223.5,-1032 223.5,-1032 223.5,-1038 217.5,-1044 211.5,-1044"/>
<text text-anchor="middle" x="187.75" y="-1022.12" font-family="sans" font-size="10.00">remove_bias</text>
</g>
<!-- 28&#45;&gt;27 -->
<g id="edge41" class="edge">
<title>28&#45;&gt;27</title>
<path fill="none" stroke="grey" stroke-width="2" d="M184.97,-1007.34C183.94,-1000.75 182.73,-993.08 181.57,-985.67"/>
<polygon fill="grey" stroke="grey" stroke-width="2" points="185.04,-985.23 180.03,-975.89 178.13,-986.31 185.04,-985.23"/>
</g>
<!-- 29&#45;&gt;28 -->
<g id="edge43" class="edge">
<title>29&#45;&gt;28</title>
<path fill="none" stroke="grey" stroke-width="2" d="M187.75,-1079.34C187.75,-1072.75 187.75,-1065.08 187.75,-1057.67"/>
<polygon fill="grey" stroke="grey" stroke-width="2" points="191.25,-1057.93 187.75,-1047.93 184.25,-1057.93 191.25,-1057.93"/>
</g>
<!-- 30 -->
<g id="node31" class="node">
<title>30</title>
<path fill="none" stroke="#bed856" stroke-width="2" d="M317.62,-1188C317.62,-1188 201.88,-1188 201.88,-1188 195.88,-1188 189.88,-1182 189.88,-1176 189.88,-1176 189.88,-1164 189.88,-1164 189.88,-1158 195.88,-1152 201.88,-1152 201.88,-1152 317.62,-1152 317.62,-1152 323.62,-1152 329.62,-1158 329.62,-1164 329.62,-1164 329.62,-1176 329.62,-1176 329.62,-1182 323.62,-1188 317.62,-1188"/>
<text text-anchor="middle" x="259.75" y="-1166.12" font-family="sans" font-size="10.00">get_transformation_matrices</text>
</g>
<!-- 30&#45;&gt;13 -->
<g id="edge21" class="edge">
<title>30&#45;&gt;13</title>
<path fill="none" stroke="grey" stroke-width="2" d="M264.69,-1151.26C275.2,-1109.47 295.21,-1003.33 248.75,-936 241.36,-925.29 216.85,-913.75 191.72,-904.17"/>
<polygon fill="grey" stroke="grey" stroke-width="2" points="193.23,-901 182.63,-900.83 190.81,-907.57 193.23,-901"/>
</g>
<!-- 30&#45;&gt;29 -->
<g id="edge44" class="edge">
<title>30&#45;&gt;29</title>
<path fill="none" stroke="grey" stroke-width="2" d="M241.58,-1151.34C233.63,-1143.6 224.12,-1134.36 215.32,-1125.81"/>
<polygon fill="grey" stroke="grey" stroke-width="2" points="217.94,-1123.47 208.33,-1119.01 213.06,-1128.49 217.94,-1123.47"/>
</g>
<!-- 38 -->
<g id="node39" class="node">
<title>38</title>
<path fill="none" stroke="#56d8c9" stroke-width="2" d="M399.62,-1116C399.62,-1116 307.88,-1116 307.88,-1116 301.88,-1116 295.88,-1110 295.88,-1104 295.88,-1104 295.88,-1092 295.88,-1092 295.88,-1086 301.88,-1080 307.88,-1080 307.88,-1080 399.62,-1080 399.62,-1080 405.62,-1080 411.62,-1086 411.62,-1092 411.62,-1092 411.62,-1104 411.62,-1104 411.62,-1110 405.62,-1116 399.62,-1116"/>
<text text-anchor="middle" x="353.75" y="-1094.12" font-family="sans" font-size="10.00">rotate_bvecs_to_struct</text>
</g>
<!-- 30&#45;&gt;38 -->
<g id="edge57" class="edge">
<title>30&#45;&gt;38</title>
<path fill="none" stroke="grey" stroke-width="2" d="M283.47,-1151.34C294.41,-1143.19 307.59,-1133.37 319.58,-1124.45"/>
<polygon fill="grey" stroke="grey" stroke-width="2" points="321.35,-1127.49 327.28,-1118.71 317.17,-1121.88 321.35,-1127.49"/>
</g>
<!-- 31&#45;&gt;30 -->
<g id="edge46" class="edge">
<title>31&#45;&gt;30</title>
<path fill="none" stroke="grey" stroke-width="2" d="M271.99,-1511.41C287.55,-1485.33 313.75,-1434.37 313.75,-1387 313.75,-1387 313.75,-1387 313.75,-1313 313.75,-1272.55 310.39,-1261.3 294.75,-1224 291.2,-1215.53 286.25,-1206.96 281.19,-1199.25"/>
<polygon fill="grey" stroke="grey" stroke-width="2" points="284.16,-1197.39 275.58,-1191.17 278.41,-1201.38 284.16,-1197.39"/>
</g>
<!-- 31&#45;&gt;35 -->
<g id="edge53" class="edge">
<title>31&#45;&gt;35</title>
<path fill="none" stroke="grey" stroke-width="2" d="M254.95,-1511.34C252.73,-1504.59 250.14,-1496.69 247.64,-1489.11"/>
<polygon fill="grey" stroke="grey" stroke-width="2" points="251.02,-1488.19 244.58,-1479.78 244.37,-1490.37 251.02,-1488.19"/>
</g>
<!-- 32 -->
<g id="node33" class="node">
<title>32</title>
<path fill="none" stroke="#d86656" stroke-width="2" d="M273.62,-1260C273.62,-1260 235.88,-1260 235.88,-1260 229.88,-1260 223.88,-1254 223.88,-1248 223.88,-1248 223.88,-1236 223.88,-1236 223.88,-1230 229.88,-1224 235.88,-1224 235.88,-1224 273.62,-1224 273.62,-1224 279.62,-1224 285.62,-1230 285.62,-1236 285.62,-1236 285.62,-1248 285.62,-1248 285.62,-1254 279.62,-1260 273.62,-1260"/>
<text text-anchor="middle" x="254.75" y="-1238.12" font-family="sans" font-size="10.00">tkregister2</text>
</g>
<!-- 32&#45;&gt;30 -->
<g id="edge47" class="edge">
<title>32&#45;&gt;30</title>
<path fill="none" stroke="grey" stroke-width="2" d="M256.01,-1223.34C256.48,-1216.75 257.03,-1209.08 257.56,-1201.67"/>
<polygon fill="grey" stroke="grey" stroke-width="2" points="261.03,-1202.15 258.26,-1191.92 254.05,-1201.65 261.03,-1202.15"/>
</g>
<!-- 33 -->
<g id="node34" class="node">
<title>33</title>
<path fill="none" stroke="#56d88a" stroke-width="2" d="M236.12,-1332C236.12,-1332 201.38,-1332 201.38,-1332 195.38,-1332 189.38,-1326 189.38,-1320 189.38,-1320 189.38,-1308 189.38,-1308 189.38,-1302 195.38,-1296 201.38,-1296 201.38,-1296 236.12,-1296 236.12,-1296 242.12,-1296 248.12,-1302 248.12,-1308 248.12,-1308 248.12,-1320 248.12,-1320 248.12,-1326 242.12,-1332 236.12,-1332"/>
<text text-anchor="middle" x="218.75" y="-1310.12" font-family="sans" font-size="10.00">bbregister</text>
</g>
<!-- 33&#45;&gt;32 -->
<g id="edge49" class="edge">
<title>33&#45;&gt;32</title>
<path fill="none" stroke="grey" stroke-width="2" d="M227.83,-1295.34C231.43,-1288.34 235.66,-1280.12 239.69,-1272.28"/>
<polygon fill="grey" stroke="grey" stroke-width="2" points="242.7,-1274.09 244.16,-1263.59 236.47,-1270.89 242.7,-1274.09"/>
</g>
<!-- 34 -->
<g id="node35" class="node">
<title>34</title>
<path fill="none" stroke="#56a9d8" stroke-width="2" d="M273.12,-1404C273.12,-1404 202.38,-1404 202.38,-1404 196.38,-1404 190.38,-1398 190.38,-1392 190.38,-1392 190.38,-1380 190.38,-1380 190.38,-1374 196.38,-1368 202.38,-1368 202.38,-1368 273.12,-1368 273.12,-1368 279.12,-1368 285.12,-1374 285.12,-1380 285.12,-1380 285.12,-1392 285.12,-1392 285.12,-1398 279.12,-1404 273.12,-1404"/>
<text text-anchor="middle" x="237.75" y="-1382.12" font-family="sans" font-size="10.00">remove_bias_field</text>
</g>
<!-- 34&#45;&gt;32 -->
<g id="edge50" class="edge">
<title>34&#45;&gt;32</title>
<path fill="none" stroke="grey" stroke-width="2" d="M245.84,-1367.27C250.01,-1357.16 254.64,-1344.13 256.75,-1332 260.09,-1312.78 259.65,-1290.87 258.35,-1273.6"/>
<polygon fill="grey" stroke="grey" stroke-width="2" points="261.85,-1273.53 257.45,-1263.9 254.88,-1274.18 261.85,-1273.53"/>
</g>
<!-- 34&#45;&gt;33 -->
<g id="edge51" class="edge">
<title>34&#45;&gt;33</title>
<path fill="none" stroke="grey" stroke-width="2" d="M232.96,-1367.34C231.15,-1360.67 229.03,-1352.89 227,-1345.39"/>
<polygon fill="grey" stroke="grey" stroke-width="2" points="230.4,-1344.56 224.4,-1335.82 223.64,-1346.39 230.4,-1344.56"/>
</g>
<!-- 35&#45;&gt;34 -->
<g id="edge52" class="edge">
<title>35&#45;&gt;34</title>
<path fill="none" stroke="grey" stroke-width="2" d="M237.75,-1439.34C237.75,-1432.75 237.75,-1425.08 237.75,-1417.67"/>
<polygon fill="grey" stroke="grey" stroke-width="2" points="241.25,-1417.93 237.75,-1407.93 234.25,-1417.93 241.25,-1417.93"/>
</g>
<!-- 36 -->
<g id="node37" class="node">
<title>36</title>
<path fill="none" stroke="#56d8d0" stroke-width="2" d="M271,-828C271,-828 226.5,-828 226.5,-828 220.5,-828 214.5,-822 214.5,-816 214.5,-816 214.5,-804 214.5,-804 214.5,-798 220.5,-792 226.5,-792 226.5,-792 271,-792 271,-792 277,-792 283,-798 283,-804 283,-804 283,-816 283,-816 283,-822 277,-828 271,-828"/>
<text text-anchor="middle" x="248.75" y="-806.12" font-family="sans" font-size="10.00">dilate_mask</text>
</g>
<!-- 36&#45;&gt;11 -->
<g id="edge17" class="edge">
<title>36&#45;&gt;11</title>
<path fill="none" stroke="grey" stroke-width="2" d="M244.21,-791.34C242.49,-784.67 240.49,-776.89 238.56,-769.39"/>
<polygon fill="grey" stroke="grey" stroke-width="2" points="241.99,-768.65 236.11,-759.83 235.21,-770.39 241.99,-768.65"/>
</g>
<!-- 37&#45;&gt;36 -->
<g id="edge55" class="edge">
<title>37&#45;&gt;36</title>
<path fill="none" stroke="grey" stroke-width="2" d="M247.25,-863.34C247.44,-856.75 247.66,-849.08 247.87,-841.67"/>
<polygon fill="grey" stroke="grey" stroke-width="2" points="251.36,-842.02 248.15,-831.93 244.37,-841.82 251.36,-842.02"/>
</g>
<!-- 38&#45;&gt;9 -->
<g id="edge14" class="edge">
<title>38&#45;&gt;9</title>
<path fill="none" stroke="grey" stroke-width="2" d="M348.78,-1079.23C341.75,-1052.5 329.75,-1000.25 329.75,-955 329.75,-955 329.75,-955 329.75,-737 329.75,-697.39 317.08,-653.23 307.21,-624.83"/>
<polygon fill="grey" stroke="grey" stroke-width="2" points="310.51,-623.67 303.82,-615.45 303.93,-626.05 310.51,-623.67"/>
</g>
<!-- 39&#45;&gt;38 -->
<g id="edge58" class="edge">
<title>39&#45;&gt;38</title>
<path fill="none" stroke="grey" stroke-width="2" d="M356.16,-1655.07C356.75,-1628.13 357.75,-1575.63 357.75,-1531 357.75,-1531 357.75,-1531 357.75,-1241 357.75,-1202.64 356.27,-1158.47 355.11,-1129.71"/>
<polygon fill="grey" stroke="grey" stroke-width="2" points="358.62,-1129.8 354.71,-1119.95 351.63,-1130.09 358.62,-1129.8"/>
</g>
<!-- 40&#45;&gt;39 -->
<g id="edge60" class="edge">
<title>40&#45;&gt;39</title>
<path fill="none" stroke="grey" stroke-width="2" d="M352.76,-1727.34C353.14,-1720.75 353.57,-1713.08 354,-1705.67"/>
<polygon fill="grey" stroke="grey" stroke-width="2" points="357.48,-1706.11 354.55,-1695.92 350.49,-1705.71 357.48,-1706.11"/>
</g>
<!-- 41&#45;&gt;6 -->
<g id="edge9" class="edge">
<title>41&#45;&gt;6</title>
<path fill="none" stroke="grey" stroke-width="2" d="M269.66,-359.34C265.61,-352.26 260.85,-343.92 256.32,-336"/>
<polygon fill="grey" stroke="grey" stroke-width="2" points="259.48,-334.48 251.48,-327.53 253.4,-337.95 259.48,-334.48"/>
</g>
<!-- 42&#45;&gt;41 -->
<g id="edge65" class="edge">
<title>42&#45;&gt;41</title>
<path fill="none" stroke="grey" stroke-width="2" d="M291.71,-431.34C290.19,-424.67 288.41,-416.89 286.7,-409.39"/>
<polygon fill="grey" stroke="grey" stroke-width="2" points="290.16,-408.82 284.52,-399.85 283.33,-410.38 290.16,-408.82"/>
</g>
<!-- 43 -->
<g id="node44" class="node">
<title>43</title>
<path fill="none" stroke="#56d8b9" stroke-width="2" d="M171.75,-324C171.75,-324 89.75,-324 89.75,-324 83.75,-324 77.75,-318 77.75,-312 77.75,-312 77.75,-300 77.75,-300 77.75,-294 83.75,-288 89.75,-288 89.75,-288 171.75,-288 171.75,-288 177.75,-288 183.75,-294 183.75,-300 183.75,-300 183.75,-312 183.75,-312 183.75,-318 177.75,-324 171.75,-324"/>
<text text-anchor="middle" x="130.75" y="-302.12" font-family="sans" font-size="10.00">tissue_segmentation</text>
</g>
<!-- 43&#45;&gt;5 -->
<g id="edge8" class="edge">
<title>43&#45;&gt;5</title>
<path fill="none" stroke="grey" stroke-width="2" d="M158.54,-287.15C171.48,-278.84 187.09,-268.82 201.15,-259.79"/>
<polygon fill="grey" stroke="grey" stroke-width="2" points="202.94,-262.8 209.47,-254.45 199.16,-256.91 202.94,-262.8"/>
</g>
<!-- 43&#45;&gt;44 -->
<g id="edge70" class="edge">
<title>43&#45;&gt;44</title>
<path fill="none" stroke="grey" stroke-width="2" d="M135.3,-287.26C139.92,-269.29 147.29,-240.71 153.75,-216 155.7,-208.54 157.82,-200.5 159.8,-192.98"/>
<polygon fill="grey" stroke="grey" stroke-width="2" points="163.11,-194.15 162.29,-183.59 156.34,-192.36 163.11,-194.15"/>
</g>
<!-- 44&#45;&gt;1 -->
<g id="edge4" class="edge">
<title>44&#45;&gt;1</title>
<path fill="none" stroke="grey" stroke-width="2" d="M167.75,-143.34C167.75,-136.75 167.75,-129.08 167.75,-121.67"/>
<polygon fill="grey" stroke="grey" stroke-width="2" points="171.25,-121.93 167.75,-111.93 164.25,-121.93 171.25,-121.93"/>
</g>
</g>
</svg>
