<?xml version="1.0" encoding="UTF-8" standalone="no"?>
<!DOCTYPE svg PUBLIC "-//W3C//DTD SVG 1.1//EN"
 "http://www.w3.org/Graphics/SVG/1.1/DTD/svg11.dtd">
<!-- Generated by graphviz version 9.0.0 (0)
 -->
<!-- Title: snakemake_dag Pages: 1 -->
<svg width="1667pt" height="2420pt"
 viewBox="0.00 0.00 1667.00 2420.00" xmlns="http://www.w3.org/2000/svg" xmlns:xlink="http://www.w3.org/1999/xlink">
<g id="graph0" class="graph" transform="scale(1 1) rotate(0) translate(4 2416)">
<title>snakemake_dag</title>
<polygon fill="white" stroke="none" points="-4,4 -4,-2416 1663,-2416 1663,4 -4,4"/>
<!-- 0 -->
<g id="node1" class="node">
<title>0</title>
<path fill="none" stroke="#d86e56" stroke-width="2" d="M745,-36C745,-36 715,-36 715,-36 709,-36 703,-30 703,-24 703,-24 703,-12 703,-12 703,-6 709,0 715,0 715,0 745,0 745,0 751,0 757,-6 757,-12 757,-12 757,-24 757,-24 757,-30 751,-36 745,-36"/>
<text text-anchor="middle" x="730" y="-14.12" font-family="sans" font-size="10.00">all</text>
</g>
<!-- 1 -->
<g id="node2" class="node">
<title>1</title>
<path fill="none" stroke="#56d882" stroke-width="2" d="M1149,-2196C1149,-2196 1119,-2196 1119,-2196 1113,-2196 1107,-2190 1107,-2184 1107,-2184 1107,-2172 1107,-2172 1107,-2166 1113,-2160 1119,-2160 1119,-2160 1149,-2160 1149,-2160 1155,-2160 1161,-2166 1161,-2172 1161,-2172 1161,-2184 1161,-2184 1161,-2190 1155,-2196 1149,-2196"/>
<text text-anchor="middle" x="1134" y="-2174.12" font-family="sans" font-size="10.00">qc1</text>
</g>
<!-- 1&#45;&gt;0 -->
<g id="edge20" class="edge">
<title>1&#45;&gt;0</title>
<path fill="none" stroke="grey" stroke-width="2" d="M1106.25,-2176.53C932.35,-2173.23 0,-2150.14 0,-2035 0,-2035 0,-2035 0,-161 0,-117.26 5.98,-96.82 42,-72 95.34,-35.24 549.69,-22.76 689.34,-19.78"/>
<polygon fill="grey" stroke="grey" stroke-width="2" points="689.26,-23.28 699.19,-19.57 689.12,-16.28 689.26,-23.28"/>
</g>
<!-- 2 -->
<g id="node3" class="node">
<title>2</title>
<path fill="none" stroke="#8fd856" stroke-width="2" d="M1330.12,-2268C1330.12,-2268 1215.88,-2268 1215.88,-2268 1209.88,-2268 1203.88,-2262 1203.88,-2256 1203.88,-2256 1203.88,-2244 1203.88,-2244 1203.88,-2238 1209.88,-2232 1215.88,-2232 1215.88,-2232 1330.12,-2232 1330.12,-2232 1336.12,-2232 1342.12,-2238 1342.12,-2244 1342.12,-2244 1342.12,-2256 1342.12,-2256 1342.12,-2262 1336.12,-2268 1330.12,-2268"/>
<text text-anchor="middle" x="1273" y="-2246.12" font-family="sans" font-size="10.00">rescale_series_conditionally</text>
</g>
<!-- 2&#45;&gt;1 -->
<g id="edge37" class="edge">
<title>2&#45;&gt;1</title>
<path fill="none" stroke="grey" stroke-width="2" d="M1237.56,-2231.15C1218.02,-2221.31 1193.71,-2209.07 1173.55,-2198.92"/>
<polygon fill="grey" stroke="grey" stroke-width="2" points="1175.13,-2195.8 1164.63,-2194.42 1171.98,-2202.05 1175.13,-2195.8"/>
</g>
<!-- 8 -->
<g id="node9" class="node">
<title>8</title>
<path fill="none" stroke="#d8bc56" stroke-width="2" d="M1294.5,-2196C1294.5,-2196 1251.5,-2196 1251.5,-2196 1245.5,-2196 1239.5,-2190 1239.5,-2184 1239.5,-2184 1239.5,-2172 1239.5,-2172 1239.5,-2166 1245.5,-2160 1251.5,-2160 1251.5,-2160 1294.5,-2160 1294.5,-2160 1300.5,-2160 1306.5,-2166 1306.5,-2172 1306.5,-2172 1306.5,-2184 1306.5,-2184 1306.5,-2190 1300.5,-2196 1294.5,-2196"/>
<text text-anchor="middle" x="1273" y="-2174.12" font-family="sans" font-size="10.00">merge_data</text>
</g>
<!-- 2&#45;&gt;8 -->
<g id="edge47" class="edge">
<title>2&#45;&gt;8</title>
<path fill="none" stroke="grey" stroke-width="2" d="M1273,-2231.34C1273,-2224.75 1273,-2217.08 1273,-2209.67"/>
<polygon fill="grey" stroke="grey" stroke-width="2" points="1276.5,-2209.93 1273,-2199.93 1269.5,-2209.93 1276.5,-2209.93"/>
</g>
<!-- 3 -->
<g id="node4" class="node">
<title>3</title>
<path fill="none" stroke="#56d85b" stroke-width="2" d="M1288,-2340C1288,-2340 1258,-2340 1258,-2340 1252,-2340 1246,-2334 1246,-2328 1246,-2328 1246,-2316 1246,-2316 1246,-2310 1252,-2304 1258,-2304 1258,-2304 1288,-2304 1288,-2304 1294,-2304 1300,-2310 1300,-2316 1300,-2316 1300,-2328 1300,-2328 1300,-2334 1294,-2340 1288,-2340"/>
<text text-anchor="middle" x="1273" y="-2318.12" font-family="sans" font-size="10.00">meants</text>
</g>
<!-- 3&#45;&gt;2 -->
<g id="edge39" class="edge">
<title>3&#45;&gt;2</title>
<path fill="none" stroke="grey" stroke-width="2" d="M1273,-2303.34C1273,-2296.75 1273,-2289.08 1273,-2281.67"/>
<polygon fill="grey" stroke="grey" stroke-width="2" points="1276.5,-2281.93 1273,-2271.93 1269.5,-2281.93 1276.5,-2281.93"/>
</g>
<!-- 4 -->
<g id="node5" class="node">
<title>4</title>
<path fill="none" stroke="#d87556" stroke-width="2" d="M1303.12,-2412C1303.12,-2412 1242.88,-2412 1242.88,-2412 1236.88,-2412 1230.88,-2406 1230.88,-2400 1230.88,-2400 1230.88,-2388 1230.88,-2388 1230.88,-2382 1236.88,-2376 1242.88,-2376 1242.88,-2376 1303.12,-2376 1303.12,-2376 1309.12,-2376 1315.12,-2382 1315.12,-2388 1315.12,-2388 1315.12,-2400 1315.12,-2400 1315.12,-2406 1309.12,-2412 1303.12,-2412"/>
<text text-anchor="middle" x="1273" y="-2390.12" font-family="sans" font-size="10.00">calculate_mean</text>
</g>
<!-- 4&#45;&gt;3 -->
<g id="edge40" class="edge">
<title>4&#45;&gt;3</title>
<path fill="none" stroke="grey" stroke-width="2" d="M1273,-2375.34C1273,-2368.75 1273,-2361.08 1273,-2353.67"/>
<polygon fill="grey" stroke="grey" stroke-width="2" points="1276.5,-2353.93 1273,-2343.93 1269.5,-2353.93 1276.5,-2353.93"/>
</g>
<!-- 5 -->
<g id="node6" class="node">
<title>5</title>
<path fill="none" stroke="#80d856" stroke-width="2" d="M1173.88,-2268C1173.88,-2268 1094.12,-2268 1094.12,-2268 1088.12,-2268 1082.12,-2262 1082.12,-2256 1082.12,-2256 1082.12,-2244 1082.12,-2244 1082.12,-2238 1088.12,-2232 1094.12,-2232 1094.12,-2232 1173.88,-2232 1173.88,-2232 1179.88,-2232 1185.88,-2238 1185.88,-2244 1185.88,-2244 1185.88,-2256 1185.88,-2256 1185.88,-2262 1179.88,-2268 1173.88,-2268"/>
<text text-anchor="middle" x="1134" y="-2246.12" font-family="sans" font-size="10.00">extract_b0_volumes</text>
</g>
<!-- 5&#45;&gt;1 -->
<g id="edge38" class="edge">
<title>5&#45;&gt;1</title>
<path fill="none" stroke="grey" stroke-width="2" d="M1134,-2231.34C1134,-2224.75 1134,-2217.08 1134,-2209.67"/>
<polygon fill="grey" stroke="grey" stroke-width="2" points="1137.5,-2209.93 1134,-2199.93 1130.5,-2209.93 1137.5,-2209.93"/>
</g>
<!-- 5&#45;&gt;8 -->
<g id="edge48" class="edge">
<title>5&#45;&gt;8</title>
<path fill="none" stroke="grey" stroke-width="2" d="M1169.44,-2231.15C1186.94,-2222.34 1208.27,-2211.6 1227.01,-2202.16"/>
<polygon fill="grey" stroke="grey" stroke-width="2" points="1228.53,-2205.31 1235.89,-2197.69 1225.38,-2199.06 1228.53,-2205.31"/>
</g>
<!-- 6 -->
<g id="node7" class="node">
<title>6</title>
<path fill="none" stroke="#568ad8" stroke-width="2" d="M1457,-1836C1457,-1836 1427,-1836 1427,-1836 1421,-1836 1415,-1830 1415,-1824 1415,-1824 1415,-1812 1415,-1812 1415,-1806 1421,-1800 1427,-1800 1427,-1800 1457,-1800 1457,-1800 1463,-1800 1469,-1806 1469,-1812 1469,-1812 1469,-1824 1469,-1824 1469,-1830 1463,-1836 1457,-1836"/>
<text text-anchor="middle" x="1442" y="-1814.12" font-family="sans" font-size="10.00">qc3</text>
</g>
<!-- 6&#45;&gt;0 -->
<g id="edge33" class="edge">
<title>6&#45;&gt;0</title>
<path fill="none" stroke="grey" stroke-width="2" d="M1469.92,-1812.25C1528.53,-1800.52 1659,-1764.37 1659,-1675 1659,-1675 1659,-1675 1659,-161 1659,-105.37 1621.63,-95.04 1571,-72 1497.73,-38.66 928.86,-23.47 770.69,-19.87"/>
<polygon fill="grey" stroke="grey" stroke-width="2" points="771.03,-16.38 760.95,-19.65 770.87,-23.37 771.03,-16.38"/>
</g>
<!-- 7 -->
<g id="node8" class="node">
<title>7</title>
<path fill="none" stroke="#5692d8" stroke-width="2" d="M1362,-1908C1362,-1908 1332,-1908 1332,-1908 1326,-1908 1320,-1902 1320,-1896 1320,-1896 1320,-1884 1320,-1884 1320,-1878 1326,-1872 1332,-1872 1332,-1872 1362,-1872 1362,-1872 1368,-1872 1374,-1878 1374,-1884 1374,-1884 1374,-1896 1374,-1896 1374,-1902 1368,-1908 1362,-1908"/>
<text text-anchor="middle" x="1347" y="-1886.12" font-family="sans" font-size="10.00">eddy</text>
</g>
<!-- 7&#45;&gt;6 -->
<g id="edge42" class="edge">
<title>7&#45;&gt;6</title>
<path fill="none" stroke="grey" stroke-width="2" d="M1370.97,-1871.34C1382.03,-1863.19 1395.35,-1853.37 1407.46,-1844.45"/>
<polygon fill="grey" stroke="grey" stroke-width="2" points="1409.29,-1847.45 1415.27,-1838.7 1405.14,-1841.81 1409.29,-1847.45"/>
</g>
<!-- 16 -->
<g id="node17" class="node">
<title>16</title>
<path fill="none" stroke="#bed856" stroke-width="2" d="M1040.38,-1836C1040.38,-1836 987.62,-1836 987.62,-1836 981.62,-1836 975.62,-1830 975.62,-1824 975.62,-1824 975.62,-1812 975.62,-1812 975.62,-1806 981.62,-1800 987.62,-1800 987.62,-1800 1040.38,-1800 1040.38,-1800 1046.38,-1800 1052.38,-1806 1052.38,-1812 1052.38,-1812 1052.38,-1824 1052.38,-1824 1052.38,-1830 1046.38,-1836 1040.38,-1836"/>
<text text-anchor="middle" x="1014" y="-1814.12" font-family="sans" font-size="10.00">combine_data</text>
</g>
<!-- 7&#45;&gt;16 -->
<g id="edge59" class="edge">
<title>7&#45;&gt;16</title>
<path fill="none" stroke="grey" stroke-width="2" d="M1319.18,-1883.15C1263.48,-1871.44 1137.5,-1844.96 1066.04,-1829.94"/>
<polygon fill="grey" stroke="grey" stroke-width="2" points="1066.83,-1826.53 1056.32,-1827.9 1065.39,-1833.38 1066.83,-1826.53"/>
</g>
<!-- 8&#45;&gt;6 -->
<g id="edge43" class="edge">
<title>8&#45;&gt;6</title>
<path fill="none" stroke="grey" stroke-width="2" d="M1307.48,-2168.02C1361.76,-2151.57 1461,-2111.08 1461,-2035 1461,-2035 1461,-2035 1461,-1961 1461,-1922.31 1453.99,-1878.21 1448.48,-1849.56"/>
<polygon fill="grey" stroke="grey" stroke-width="2" points="1451.92,-1848.92 1446.53,-1839.8 1445.06,-1850.29 1451.92,-1848.92"/>
</g>
<!-- 8&#45;&gt;7 -->
<g id="edge46" class="edge">
<title>8&#45;&gt;7</title>
<path fill="none" stroke="grey" stroke-width="2" d="M1307.36,-2170.57C1333.07,-2163.76 1366.54,-2150.21 1383,-2124 1423.17,-2060.05 1386.74,-1967.24 1363.25,-1920.4"/>
<polygon fill="grey" stroke="grey" stroke-width="2" points="1366.44,-1918.94 1358.73,-1911.68 1360.23,-1922.17 1366.44,-1918.94"/>
</g>
<!-- 9 -->
<g id="node10" class="node">
<title>9</title>
<path fill="none" stroke="#c6d856" stroke-width="2" d="M1362,-2124C1362,-2124 1332,-2124 1332,-2124 1326,-2124 1320,-2118 1320,-2112 1320,-2112 1320,-2100 1320,-2100 1320,-2094 1326,-2088 1332,-2088 1332,-2088 1362,-2088 1362,-2088 1368,-2088 1374,-2094 1374,-2100 1374,-2100 1374,-2112 1374,-2112 1374,-2118 1368,-2124 1362,-2124"/>
<text text-anchor="middle" x="1347" y="-2102.12" font-family="sans" font-size="10.00">topup</text>
</g>
<!-- 8&#45;&gt;9 -->
<g id="edge49" class="edge">
<title>8&#45;&gt;9</title>
<path fill="none" stroke="grey" stroke-width="2" d="M1291.67,-2159.34C1299.85,-2151.6 1309.62,-2142.36 1318.66,-2133.81"/>
<polygon fill="grey" stroke="grey" stroke-width="2" points="1321.02,-2136.4 1325.88,-2126.98 1316.21,-2131.31 1321.02,-2136.4"/>
</g>
<!-- 11 -->
<g id="node12" class="node">
<title>11</title>
<path fill="none" stroke="#56d8b1" stroke-width="2" d="M1306.62,-2052C1306.62,-2052 1267.38,-2052 1267.38,-2052 1261.38,-2052 1255.38,-2046 1255.38,-2040 1255.38,-2040 1255.38,-2028 1255.38,-2028 1255.38,-2022 1261.38,-2016 1267.38,-2016 1267.38,-2016 1306.62,-2016 1306.62,-2016 1312.62,-2016 1318.62,-2022 1318.62,-2028 1318.62,-2028 1318.62,-2040 1318.62,-2040 1318.62,-2046 1312.62,-2052 1306.62,-2052"/>
<text text-anchor="middle" x="1287" y="-2030.12" font-family="sans" font-size="10.00">get_hifi_b0</text>
</g>
<!-- 8&#45;&gt;11 -->
<g id="edge52" class="edge">
<title>8&#45;&gt;11</title>
<path fill="none" stroke="grey" stroke-width="2" d="M1274.77,-2159.02C1277.09,-2135.54 1281.17,-2094.11 1283.98,-2065.64"/>
<polygon fill="grey" stroke="grey" stroke-width="2" points="1287.45,-2066.15 1284.94,-2055.85 1280.48,-2065.46 1287.45,-2066.15"/>
</g>
<!-- 8&#45;&gt;16 -->
<g id="edge60" class="edge">
<title>8&#45;&gt;16</title>
<path fill="none" stroke="grey" stroke-width="2" d="M1238.72,-2171.25C1168.32,-2159.3 1013.34,-2132.22 1005,-2124 976.18,-2095.62 986,-2075.45 986,-2035 986,-2035 986,-2035 986,-1961 986,-1921.74 996.43,-1877.5 1004.56,-1848.99"/>
<polygon fill="grey" stroke="grey" stroke-width="2" points="1007.85,-1850.2 1007.34,-1839.61 1001.14,-1848.21 1007.85,-1850.2"/>
</g>
<!-- 29 -->
<g id="node30" class="node">
<title>29</title>
<path fill="none" stroke="#d89556" stroke-width="2" d="M1225.62,-2052C1225.62,-2052 1132.38,-2052 1132.38,-2052 1126.38,-2052 1120.38,-2046 1120.38,-2040 1120.38,-2040 1120.38,-2028 1120.38,-2028 1120.38,-2022 1126.38,-2016 1132.38,-2016 1132.38,-2016 1225.62,-2016 1225.62,-2016 1231.62,-2016 1237.62,-2022 1237.62,-2028 1237.62,-2028 1237.62,-2040 1237.62,-2040 1237.62,-2046 1231.62,-2052 1225.62,-2052"/>
<text text-anchor="middle" x="1179" y="-2030.12" font-family="sans" font-size="10.00">average_rotated_bvecs</text>
</g>
<!-- 8&#45;&gt;29 -->
<g id="edge79" class="edge">
<title>8&#45;&gt;29</title>
<path fill="none" stroke="grey" stroke-width="2" d="M1267.79,-2159.2C1261.78,-2140.41 1250.65,-2110.47 1235,-2088 1228.4,-2078.53 1219.89,-2069.42 1211.51,-2061.51"/>
<polygon fill="grey" stroke="grey" stroke-width="2" points="1213.88,-2058.93 1204.1,-2054.84 1209.2,-2064.13 1213.88,-2058.93"/>
</g>
<!-- 30 -->
<g id="node31" class="node">
<title>30</title>
<path fill="none" stroke="#d86656" stroke-width="2" d="M1214.12,-2124C1214.12,-2124 1141.88,-2124 1141.88,-2124 1135.88,-2124 1129.88,-2118 1129.88,-2112 1129.88,-2112 1129.88,-2100 1129.88,-2100 1129.88,-2094 1135.88,-2088 1141.88,-2088 1141.88,-2088 1214.12,-2088 1214.12,-2088 1220.12,-2088 1226.12,-2094 1226.12,-2100 1226.12,-2100 1226.12,-2112 1226.12,-2112 1226.12,-2118 1220.12,-2124 1214.12,-2124"/>
<text text-anchor="middle" x="1178" y="-2102.12" font-family="sans" font-size="10.00">get_rotated_bvecs</text>
</g>
<!-- 8&#45;&gt;30 -->
<g id="edge81" class="edge">
<title>8&#45;&gt;30</title>
<path fill="none" stroke="grey" stroke-width="2" d="M1249.03,-2159.34C1237.97,-2151.19 1224.65,-2141.37 1212.54,-2132.45"/>
<polygon fill="grey" stroke="grey" stroke-width="2" points="1214.86,-2129.81 1204.73,-2126.7 1210.71,-2135.45 1214.86,-2129.81"/>
</g>
<!-- 9&#45;&gt;6 -->
<g id="edge41" class="edge">
<title>9&#45;&gt;6</title>
<path fill="none" stroke="grey" stroke-width="2" d="M1352.94,-2087.11C1368.8,-2039.36 1412.27,-1908.51 1432.01,-1849.08"/>
<polygon fill="grey" stroke="grey" stroke-width="2" points="1435.27,-1850.35 1435.11,-1839.76 1428.63,-1848.14 1435.27,-1850.35"/>
</g>
<!-- 9&#45;&gt;7 -->
<g id="edge44" class="edge">
<title>9&#45;&gt;7</title>
<path fill="none" stroke="grey" stroke-width="2" d="M1347,-2087.12C1347,-2050.62 1347,-1967.13 1347,-1921.74"/>
<polygon fill="grey" stroke="grey" stroke-width="2" points="1350.5,-1922 1347,-1912 1343.5,-1922 1350.5,-1922"/>
</g>
<!-- 9&#45;&gt;11 -->
<g id="edge51" class="edge">
<title>9&#45;&gt;11</title>
<path fill="none" stroke="grey" stroke-width="2" d="M1331.86,-2087.34C1325.44,-2079.85 1317.81,-2070.95 1310.68,-2062.63"/>
<polygon fill="grey" stroke="grey" stroke-width="2" points="1313.48,-2060.51 1304.31,-2055.2 1308.16,-2065.07 1313.48,-2060.51"/>
</g>
<!-- 10 -->
<g id="node11" class="node">
<title>10</title>
<path fill="none" stroke="#56c9d8" stroke-width="2" d="M1306.62,-1980C1306.62,-1980 1267.38,-1980 1267.38,-1980 1261.38,-1980 1255.38,-1974 1255.38,-1968 1255.38,-1968 1255.38,-1956 1255.38,-1956 1255.38,-1950 1261.38,-1944 1267.38,-1944 1267.38,-1944 1306.62,-1944 1306.62,-1944 1312.62,-1944 1318.62,-1950 1318.62,-1956 1318.62,-1956 1318.62,-1968 1318.62,-1968 1318.62,-1974 1312.62,-1980 1306.62,-1980"/>
<text text-anchor="middle" x="1287" y="-1958.12" font-family="sans" font-size="10.00">bet_hifi_b0</text>
</g>
<!-- 10&#45;&gt;7 -->
<g id="edge45" class="edge">
<title>10&#45;&gt;7</title>
<path fill="none" stroke="grey" stroke-width="2" d="M1302.14,-1943.34C1308.56,-1935.85 1316.19,-1926.95 1323.32,-1918.63"/>
<polygon fill="grey" stroke="grey" stroke-width="2" points="1325.84,-1921.07 1329.69,-1911.2 1320.52,-1916.51 1325.84,-1921.07"/>
</g>
<!-- 11&#45;&gt;10 -->
<g id="edge50" class="edge">
<title>11&#45;&gt;10</title>
<path fill="none" stroke="grey" stroke-width="2" d="M1287,-2015.34C1287,-2008.75 1287,-2001.08 1287,-1993.67"/>
<polygon fill="grey" stroke="grey" stroke-width="2" points="1290.5,-1993.93 1287,-1983.93 1283.5,-1993.93 1290.5,-1993.93"/>
</g>
<!-- 12 -->
<g id="node13" class="node">
<title>12</title>
<path fill="none" stroke="#68d856" stroke-width="2" d="M1106,-828C1106,-828 1076,-828 1076,-828 1070,-828 1064,-822 1064,-816 1064,-816 1064,-804 1064,-804 1064,-798 1070,-792 1076,-792 1076,-792 1106,-792 1106,-792 1112,-792 1118,-798 1118,-804 1118,-804 1118,-816 1118,-816 1118,-822 1112,-828 1106,-828"/>
<text text-anchor="middle" x="1091" y="-806.12" font-family="sans" font-size="10.00">qc4</text>
</g>
<!-- 12&#45;&gt;0 -->
<g id="edge16" class="edge">
<title>12&#45;&gt;0</title>
<path fill="none" stroke="grey" stroke-width="2" d="M1094.52,-791.15C1099.5,-764.32 1108,-711.94 1108,-667 1108,-667 1108,-667 1108,-161 1108,-120.03 1114.58,-99.26 1084,-72 1038.35,-31.31 853.69,-21.86 770.72,-19.66"/>
<polygon fill="grey" stroke="grey" stroke-width="2" points="770.96,-16.17 760.88,-19.43 770.79,-23.17 770.96,-16.17"/>
</g>
<!-- 13 -->
<g id="node14" class="node">
<title>13</title>
<path fill="none" stroke="#d89c56" stroke-width="2" d="M1059.38,-1188C1059.38,-1188 1012.62,-1188 1012.62,-1188 1006.62,-1188 1000.62,-1182 1000.62,-1176 1000.62,-1176 1000.62,-1164 1000.62,-1164 1000.62,-1158 1006.62,-1152 1012.62,-1152 1012.62,-1152 1059.38,-1152 1059.38,-1152 1065.38,-1152 1071.38,-1158 1071.38,-1164 1071.38,-1164 1071.38,-1176 1071.38,-1176 1071.38,-1182 1065.38,-1188 1059.38,-1188"/>
<text text-anchor="middle" x="1036" y="-1166.12" font-family="sans" font-size="10.00">apply_warp3</text>
</g>
<!-- 13&#45;&gt;0 -->
<g id="edge4" class="edge">
<title>13&#45;&gt;0</title>
<path fill="none" stroke="grey" stroke-width="2" d="M1043.91,-1151.39C1069.13,-1093.59 1146,-903.9 1146,-739 1146,-739 1146,-739 1146,-161 1146,-118.33 1143.64,-98.25 1110,-72 1057.84,-31.31 857.87,-21.86 770.85,-19.66"/>
<polygon fill="grey" stroke="grey" stroke-width="2" points="770.99,-16.16 760.92,-19.44 770.84,-23.16 770.99,-16.16"/>
</g>
<!-- 13&#45;&gt;12 -->
<g id="edge53" class="edge">
<title>13&#45;&gt;12</title>
<path fill="none" stroke="grey" stroke-width="2" d="M1036,-1151.07C1036,-1124.13 1036,-1071.62 1036,-1027 1036,-1027 1036,-1027 1036,-953 1036,-911.59 1056.59,-867.7 1072.57,-839.86"/>
<polygon fill="grey" stroke="grey" stroke-width="2" points="1075.4,-841.95 1077.52,-831.57 1069.39,-838.37 1075.4,-841.95"/>
</g>
<!-- 24 -->
<g id="node25" class="node">
<title>24</title>
<path fill="none" stroke="#56d0d8" stroke-width="2" d="M995.75,-1116C995.75,-1116 948.25,-1116 948.25,-1116 942.25,-1116 936.25,-1110 936.25,-1104 936.25,-1104 936.25,-1092 936.25,-1092 936.25,-1086 942.25,-1080 948.25,-1080 948.25,-1080 995.75,-1080 995.75,-1080 1001.75,-1080 1007.75,-1086 1007.75,-1092 1007.75,-1092 1007.75,-1104 1007.75,-1104 1007.75,-1110 1001.75,-1116 995.75,-1116"/>
<text text-anchor="middle" x="972" y="-1094.12" font-family="sans" font-size="10.00">remove_bias</text>
</g>
<!-- 13&#45;&gt;24 -->
<g id="edge71" class="edge">
<title>13&#45;&gt;24</title>
<path fill="none" stroke="grey" stroke-width="2" d="M1019.85,-1151.34C1012.93,-1143.77 1004.69,-1134.75 997.01,-1126.35"/>
<polygon fill="grey" stroke="grey" stroke-width="2" points="999.74,-1124.15 990.41,-1119.14 994.57,-1128.88 999.74,-1124.15"/>
</g>
<!-- 14 -->
<g id="node15" class="node">
<title>14</title>
<path fill="none" stroke="#d88556" stroke-width="2" d="M997.38,-1692C997.38,-1692 938.62,-1692 938.62,-1692 932.62,-1692 926.62,-1686 926.62,-1680 926.62,-1680 926.62,-1668 926.62,-1668 926.62,-1662 932.62,-1656 938.62,-1656 938.62,-1656 997.38,-1656 997.38,-1656 1003.38,-1656 1009.38,-1662 1009.38,-1668 1009.38,-1668 1009.38,-1680 1009.38,-1680 1009.38,-1686 1003.38,-1692 997.38,-1692"/>
<text text-anchor="middle" x="968" y="-1670.12" font-family="sans" font-size="10.00">mask_out_data</text>
</g>
<!-- 14&#45;&gt;13 -->
<g id="edge55" class="edge">
<title>14&#45;&gt;13</title>
<path fill="none" stroke="grey" stroke-width="2" d="M968,-1655.07C968,-1628.13 968,-1575.62 968,-1531 968,-1531 968,-1531 968,-1313 968,-1270.24 993.4,-1226.71 1013.15,-1199.32"/>
<polygon fill="grey" stroke="grey" stroke-width="2" points="1015.9,-1201.49 1019.09,-1191.39 1010.3,-1197.29 1015.9,-1201.49"/>
</g>
<!-- 19 -->
<g id="node20" class="node">
<title>19</title>
<path fill="none" stroke="#d8b456" stroke-width="2" d="M1050.12,-1620C1050.12,-1620 1007.88,-1620 1007.88,-1620 1001.88,-1620 995.88,-1614 995.88,-1608 995.88,-1608 995.88,-1596 995.88,-1596 995.88,-1590 1001.88,-1584 1007.88,-1584 1007.88,-1584 1050.12,-1584 1050.12,-1584 1056.12,-1584 1062.12,-1590 1062.12,-1596 1062.12,-1596 1062.12,-1608 1062.12,-1608 1062.12,-1614 1056.12,-1620 1050.12,-1620"/>
<text text-anchor="middle" x="1029" y="-1598.12" font-family="sans" font-size="10.00">epi_reg_dof</text>
</g>
<!-- 14&#45;&gt;19 -->
<g id="edge64" class="edge">
<title>14&#45;&gt;19</title>
<path fill="none" stroke="grey" stroke-width="2" d="M983.39,-1655.34C989.92,-1647.85 997.67,-1638.95 1004.92,-1630.63"/>
<polygon fill="grey" stroke="grey" stroke-width="2" points="1007.48,-1633.02 1011.41,-1623.18 1002.2,-1628.42 1007.48,-1633.02"/>
</g>
<!-- 23 -->
<g id="node24" class="node">
<title>23</title>
<path fill="none" stroke="#d8ac56" stroke-width="2" d="M1114.38,-1548C1114.38,-1548 1067.62,-1548 1067.62,-1548 1061.62,-1548 1055.62,-1542 1055.62,-1536 1055.62,-1536 1055.62,-1524 1055.62,-1524 1055.62,-1518 1061.62,-1512 1067.62,-1512 1067.62,-1512 1114.38,-1512 1114.38,-1512 1120.38,-1512 1126.38,-1518 1126.38,-1524 1126.38,-1524 1126.38,-1536 1126.38,-1536 1126.38,-1542 1120.38,-1548 1114.38,-1548"/>
<text text-anchor="middle" x="1091" y="-1526.12" font-family="sans" font-size="10.00">apply_warp2</text>
</g>
<!-- 14&#45;&gt;23 -->
<g id="edge69" class="edge">
<title>14&#45;&gt;23</title>
<path fill="none" stroke="grey" stroke-width="2" d="M1010.26,-1660.79C1031.5,-1652.57 1055.87,-1639.57 1071,-1620 1083.8,-1603.45 1088.72,-1580.27 1090.48,-1561.72"/>
<polygon fill="grey" stroke="grey" stroke-width="2" points="1093.96,-1562.13 1091.09,-1551.93 1086.97,-1561.69 1093.96,-1562.13"/>
</g>
<!-- 25 -->
<g id="node26" class="node">
<title>25</title>
<path fill="none" stroke="#d6d856" stroke-width="2" d="M415.75,-1044C415.75,-1044 314.25,-1044 314.25,-1044 308.25,-1044 302.25,-1038 302.25,-1032 302.25,-1032 302.25,-1020 302.25,-1020 302.25,-1014 308.25,-1008 314.25,-1008 314.25,-1008 415.75,-1008 415.75,-1008 421.75,-1008 427.75,-1014 427.75,-1020 427.75,-1020 427.75,-1032 427.75,-1032 427.75,-1038 421.75,-1044 415.75,-1044"/>
<text text-anchor="middle" x="365" y="-1022.12" font-family="sans" font-size="10.00">diff_res_structural_space</text>
</g>
<!-- 14&#45;&gt;25 -->
<g id="edge72" class="edge">
<title>14&#45;&gt;25</title>
<path fill="none" stroke="grey" stroke-width="2" d="M925.72,-1672.91C780.64,-1671.47 312,-1657.07 312,-1531 312,-1531 312,-1531 312,-1169 312,-1127.74 331.88,-1083.75 347.29,-1055.86"/>
<polygon fill="grey" stroke="grey" stroke-width="2" points="350.31,-1057.63 352.25,-1047.22 344.24,-1054.15 350.31,-1057.63"/>
</g>
<!-- 31 -->
<g id="node32" class="node">
<title>31</title>
<path fill="none" stroke="#d8a456" stroke-width="2" d="M187.25,-972C187.25,-972 106.75,-972 106.75,-972 100.75,-972 94.75,-966 94.75,-960 94.75,-960 94.75,-948 94.75,-948 94.75,-942 100.75,-936 106.75,-936 106.75,-936 187.25,-936 187.25,-936 193.25,-936 199.25,-942 199.25,-948 199.25,-948 199.25,-960 199.25,-960 199.25,-966 193.25,-972 187.25,-972"/>
<text text-anchor="middle" x="147" y="-950.12" font-family="sans" font-size="10.00">register_diff_to_T1w</text>
</g>
<!-- 14&#45;&gt;31 -->
<g id="edge84" class="edge">
<title>14&#45;&gt;31</title>
<path fill="none" stroke="grey" stroke-width="2" d="M925.88,-1672.58C803.44,-1670.87 449.52,-1662.3 343,-1620 283.91,-1596.53 231,-1594.58 231,-1531 231,-1531 231,-1531 231,-1097 231,-1054.81 220.43,-1043.73 198,-1008 192.21,-998.77 184.61,-989.81 177.06,-981.96"/>
<polygon fill="grey" stroke="grey" stroke-width="2" points="179.71,-979.66 170.14,-975.12 174.79,-984.64 179.71,-979.66"/>
</g>
<!-- 15 -->
<g id="node16" class="node">
<title>15</title>
<path fill="none" stroke="#56b9d8" stroke-width="2" d="M973.5,-1764C973.5,-1764 906.5,-1764 906.5,-1764 900.5,-1764 894.5,-1758 894.5,-1752 894.5,-1752 894.5,-1740 894.5,-1740 894.5,-1734 900.5,-1728 906.5,-1728 906.5,-1728 973.5,-1728 973.5,-1728 979.5,-1728 985.5,-1734 985.5,-1740 985.5,-1740 985.5,-1752 985.5,-1752 985.5,-1758 979.5,-1764 973.5,-1764"/>
<text text-anchor="middle" x="940" y="-1742.12" font-family="sans" font-size="10.00">create_fov_mask</text>
</g>
<!-- 15&#45;&gt;14 -->
<g id="edge56" class="edge">
<title>15&#45;&gt;14</title>
<path fill="none" stroke="grey" stroke-width="2" d="M947.07,-1727.34C949.8,-1720.51 953,-1712.5 956.07,-1704.83"/>
<polygon fill="grey" stroke="grey" stroke-width="2" points="959.25,-1706.3 959.72,-1695.71 952.75,-1703.7 959.25,-1706.3"/>
</g>
<!-- 15&#45;&gt;31 -->
<g id="edge82" class="edge">
<title>15&#45;&gt;31</title>
<path fill="none" stroke="grey" stroke-width="2" d="M893.56,-1741.23C729.08,-1727.28 184,-1675.57 184,-1603 184,-1603 184,-1603 184,-1097 184,-1057.23 170.24,-1013.17 159.51,-984.83"/>
<polygon fill="grey" stroke="grey" stroke-width="2" points="162.87,-983.83 155.96,-975.81 156.36,-986.39 162.87,-983.83"/>
</g>
<!-- 16&#45;&gt;14 -->
<g id="edge57" class="edge">
<title>16&#45;&gt;14</title>
<path fill="none" stroke="grey" stroke-width="2" d="M1011.28,-1799.26C1008.2,-1781.05 1002.47,-1752.05 994,-1728 991.22,-1720.1 987.56,-1711.85 983.88,-1704.27"/>
<polygon fill="grey" stroke="grey" stroke-width="2" points="987.02,-1702.72 979.36,-1695.4 980.78,-1705.89 987.02,-1702.72"/>
</g>
<!-- 16&#45;&gt;15 -->
<g id="edge58" class="edge">
<title>16&#45;&gt;15</title>
<path fill="none" stroke="grey" stroke-width="2" d="M995.33,-1799.34C987.15,-1791.6 977.38,-1782.36 968.34,-1773.81"/>
<polygon fill="grey" stroke="grey" stroke-width="2" points="970.79,-1771.31 961.12,-1766.98 965.98,-1776.4 970.79,-1771.31"/>
</g>
<!-- 17 -->
<g id="node18" class="node">
<title>17</title>
<path fill="none" stroke="#d8c356" stroke-width="2" d="M1099.88,-2124C1099.88,-2124 1026.12,-2124 1026.12,-2124 1020.12,-2124 1014.12,-2118 1014.12,-2112 1014.12,-2112 1014.12,-2100 1014.12,-2100 1014.12,-2094 1020.12,-2088 1026.12,-2088 1026.12,-2088 1099.88,-2088 1099.88,-2088 1105.88,-2088 1111.88,-2094 1111.88,-2100 1111.88,-2100 1111.88,-2112 1111.88,-2112 1111.88,-2118 1105.88,-2124 1099.88,-2124"/>
<text text-anchor="middle" x="1063" y="-2102.12" font-family="sans" font-size="10.00">create_series_files</text>
</g>
<!-- 17&#45;&gt;16 -->
<g id="edge61" class="edge">
<title>17&#45;&gt;16</title>
<path fill="none" stroke="grey" stroke-width="2" d="M1059.93,-2087.11C1051.77,-2039.46 1029.43,-1909.05 1019.22,-1849.45"/>
<polygon fill="grey" stroke="grey" stroke-width="2" points="1022.71,-1849.13 1017.58,-1839.87 1015.81,-1850.31 1022.71,-1849.13"/>
</g>
<!-- 17&#45;&gt;29 -->
<g id="edge80" class="edge">
<title>17&#45;&gt;29</title>
<path fill="none" stroke="grey" stroke-width="2" d="M1092.57,-2087.15C1106.48,-2078.76 1123.28,-2068.62 1138.36,-2059.52"/>
<polygon fill="grey" stroke="grey" stroke-width="2" points="1140.14,-2062.54 1146.89,-2054.38 1136.52,-2056.55 1140.14,-2062.54"/>
</g>
<!-- 18 -->
<g id="node19" class="node">
<title>18</title>
<path fill="none" stroke="#d85656" stroke-width="2" d="M1149.88,-1260C1149.88,-1260 1034.12,-1260 1034.12,-1260 1028.12,-1260 1022.12,-1254 1022.12,-1248 1022.12,-1248 1022.12,-1236 1022.12,-1236 1022.12,-1230 1028.12,-1224 1034.12,-1224 1034.12,-1224 1149.88,-1224 1149.88,-1224 1155.88,-1224 1161.88,-1230 1161.88,-1236 1161.88,-1236 1161.88,-1248 1161.88,-1248 1161.88,-1254 1155.88,-1260 1149.88,-1260"/>
<text text-anchor="middle" x="1092" y="-1238.12" font-family="sans" font-size="10.00">get_transformation_matrices</text>
</g>
<!-- 18&#45;&gt;0 -->
<g id="edge1" class="edge">
<title>18&#45;&gt;0</title>
<path fill="none" stroke="grey" stroke-width="2" d="M1094.81,-1223.14C1101,-1184.07 1116.41,-1088.09 1131,-1008 1152.84,-888.12 1184,-860.85 1184,-739 1184,-739 1184,-739 1184,-161 1184,-116.68 1175.18,-97.6 1139,-72 1080.29,-30.46 861.83,-21.48 770.52,-19.54"/>
<polygon fill="grey" stroke="grey" stroke-width="2" points="770.85,-16.04 760.78,-19.35 770.71,-23.04 770.85,-16.04"/>
</g>
<!-- 18&#45;&gt;13 -->
<g id="edge54" class="edge">
<title>18&#45;&gt;13</title>
<path fill="none" stroke="grey" stroke-width="2" d="M1077.87,-1223.34C1071.95,-1215.93 1064.91,-1207.14 1058.32,-1198.9"/>
<polygon fill="grey" stroke="grey" stroke-width="2" points="1061.19,-1196.89 1052.21,-1191.27 1055.73,-1201.26 1061.19,-1196.89"/>
</g>
<!-- 28 -->
<g id="node29" class="node">
<title>28</title>
<path fill="none" stroke="#569ad8" stroke-width="2" d="M1243.88,-1044C1243.88,-1044 1152.12,-1044 1152.12,-1044 1146.12,-1044 1140.12,-1038 1140.12,-1032 1140.12,-1032 1140.12,-1020 1140.12,-1020 1140.12,-1014 1146.12,-1008 1152.12,-1008 1152.12,-1008 1243.88,-1008 1243.88,-1008 1249.88,-1008 1255.88,-1014 1255.88,-1020 1255.88,-1020 1255.88,-1032 1255.88,-1032 1255.88,-1038 1249.88,-1044 1243.88,-1044"/>
<text text-anchor="middle" x="1198" y="-1022.12" font-family="sans" font-size="10.00">rotate_bvecs_to_struct</text>
</g>
<!-- 18&#45;&gt;28 -->
<g id="edge76" class="edge">
<title>18&#45;&gt;28</title>
<path fill="none" stroke="grey" stroke-width="2" d="M1104.33,-1223.25C1111.11,-1213.15 1119.45,-1200.12 1126,-1188 1150.03,-1143.53 1173.01,-1089.46 1186.3,-1056.67"/>
<polygon fill="grey" stroke="grey" stroke-width="2" points="1189.46,-1058.2 1189.93,-1047.61 1182.96,-1055.59 1189.46,-1058.2"/>
</g>
<!-- 18&#45;&gt;31 -->
<g id="edge83" class="edge">
<title>18&#45;&gt;31</title>
<path fill="none" stroke="grey" stroke-width="2" d="M1021.23,-1233.2C877.84,-1215.37 545.23,-1163.55 293,-1044 268.9,-1032.58 267.46,-1022.38 245,-1008 229.01,-997.76 210.87,-987.58 194.58,-978.92"/>
<polygon fill="grey" stroke="grey" stroke-width="2" points="196.27,-975.85 185.79,-974.31 193.02,-982.05 196.27,-975.85"/>
</g>
<!-- 19&#45;&gt;18 -->
<g id="edge63" class="edge">
<title>19&#45;&gt;18</title>
<path fill="none" stroke="grey" stroke-width="2" d="M1028.79,-1583.07C1028.5,-1556.13 1028,-1503.62 1028,-1459 1028,-1459 1028,-1459 1028,-1385 1028,-1342.46 1052.17,-1298.58 1070.8,-1271.07"/>
<polygon fill="grey" stroke="grey" stroke-width="2" points="1073.48,-1273.34 1076.37,-1263.15 1067.76,-1269.32 1073.48,-1273.34"/>
</g>
<!-- 19&#45;&gt;23 -->
<g id="edge70" class="edge">
<title>19&#45;&gt;23</title>
<path fill="none" stroke="grey" stroke-width="2" d="M1044.65,-1583.34C1051.28,-1575.85 1059.16,-1566.95 1066.53,-1558.63"/>
<polygon fill="grey" stroke="grey" stroke-width="2" points="1069.13,-1560.97 1073.14,-1551.17 1063.89,-1556.33 1069.13,-1560.97"/>
</g>
<!-- 20 -->
<g id="node21" class="node">
<title>20</title>
<path fill="none" stroke="#56b1d8" stroke-width="2" d="M1140.88,-1332C1140.88,-1332 1103.12,-1332 1103.12,-1332 1097.12,-1332 1091.12,-1326 1091.12,-1320 1091.12,-1320 1091.12,-1308 1091.12,-1308 1091.12,-1302 1097.12,-1296 1103.12,-1296 1103.12,-1296 1140.88,-1296 1140.88,-1296 1146.88,-1296 1152.88,-1302 1152.88,-1308 1152.88,-1308 1152.88,-1320 1152.88,-1320 1152.88,-1326 1146.88,-1332 1140.88,-1332"/>
<text text-anchor="middle" x="1122" y="-1310.12" font-family="sans" font-size="10.00">tkregister2</text>
</g>
<!-- 20&#45;&gt;0 -->
<g id="edge30" class="edge">
<title>20&#45;&gt;0</title>
<path fill="none" stroke="grey" stroke-width="2" d="M1153.62,-1301.8C1200.76,-1282.83 1284,-1239.63 1284,-1171 1284,-1171 1284,-1171 1284,-1097 1284,-982.92 1314.74,-142.43 1225,-72 1189.51,-44.15 882.64,-26.47 770.67,-20.9"/>
<polygon fill="grey" stroke="grey" stroke-width="2" points="770.89,-17.41 760.73,-20.41 770.55,-24.4 770.89,-17.41"/>
</g>
<!-- 20&#45;&gt;18 -->
<g id="edge62" class="edge">
<title>20&#45;&gt;18</title>
<path fill="none" stroke="grey" stroke-width="2" d="M1114.43,-1295.34C1111.5,-1288.51 1108.07,-1280.5 1104.79,-1272.83"/>
<polygon fill="grey" stroke="grey" stroke-width="2" points="1108.02,-1271.5 1100.86,-1263.68 1101.59,-1274.25 1108.02,-1271.5"/>
</g>
<!-- 21 -->
<g id="node22" class="node">
<title>21</title>
<path fill="none" stroke="#61d856" stroke-width="2" d="M1158.38,-1404C1158.38,-1404 1123.62,-1404 1123.62,-1404 1117.62,-1404 1111.62,-1398 1111.62,-1392 1111.62,-1392 1111.62,-1380 1111.62,-1380 1111.62,-1374 1117.62,-1368 1123.62,-1368 1123.62,-1368 1158.38,-1368 1158.38,-1368 1164.38,-1368 1170.38,-1374 1170.38,-1380 1170.38,-1380 1170.38,-1392 1170.38,-1392 1170.38,-1398 1164.38,-1404 1158.38,-1404"/>
<text text-anchor="middle" x="1141" y="-1382.12" font-family="sans" font-size="10.00">bbregister</text>
</g>
<!-- 21&#45;&gt;0 -->
<g id="edge17" class="edge">
<title>21&#45;&gt;0</title>
<path fill="none" stroke="grey" stroke-width="2" d="M1171.03,-1382.68C1276.11,-1373.76 1621,-1337.29 1621,-1243 1621,-1243 1621,-1243 1621,-161 1621,-100.5 1573.96,-94.99 1518,-72 1448.6,-43.48 921.76,-24.98 770.49,-20.22"/>
<polygon fill="grey" stroke="grey" stroke-width="2" points="770.98,-16.73 760.87,-19.92 770.76,-23.73 770.98,-16.73"/>
</g>
<!-- 21&#45;&gt;20 -->
<g id="edge65" class="edge">
<title>21&#45;&gt;20</title>
<path fill="none" stroke="grey" stroke-width="2" d="M1136.21,-1367.34C1134.4,-1360.67 1132.28,-1352.89 1130.25,-1345.39"/>
<polygon fill="grey" stroke="grey" stroke-width="2" points="1133.65,-1344.56 1127.65,-1335.82 1126.89,-1346.39 1133.65,-1344.56"/>
</g>
<!-- 22 -->
<g id="node23" class="node">
<title>22</title>
<path fill="none" stroke="#56a9d8" stroke-width="2" d="M1138.38,-1476C1138.38,-1476 1067.62,-1476 1067.62,-1476 1061.62,-1476 1055.62,-1470 1055.62,-1464 1055.62,-1464 1055.62,-1452 1055.62,-1452 1055.62,-1446 1061.62,-1440 1067.62,-1440 1067.62,-1440 1138.38,-1440 1138.38,-1440 1144.38,-1440 1150.38,-1446 1150.38,-1452 1150.38,-1452 1150.38,-1464 1150.38,-1464 1150.38,-1470 1144.38,-1476 1138.38,-1476"/>
<text text-anchor="middle" x="1103" y="-1454.12" font-family="sans" font-size="10.00">remove_bias_field</text>
</g>
<!-- 22&#45;&gt;20 -->
<g id="edge66" class="edge">
<title>22&#45;&gt;20</title>
<path fill="none" stroke="grey" stroke-width="2" d="M1101.21,-1439.12C1099.82,-1421.03 1098.77,-1392.36 1103,-1368 1104.33,-1360.32 1106.68,-1352.28 1109.28,-1344.86"/>
<polygon fill="grey" stroke="grey" stroke-width="2" points="1112.53,-1346.15 1112.83,-1335.56 1105.99,-1343.66 1112.53,-1346.15"/>
</g>
<!-- 22&#45;&gt;21 -->
<g id="edge67" class="edge">
<title>22&#45;&gt;21</title>
<path fill="none" stroke="grey" stroke-width="2" d="M1112.59,-1439.34C1116.39,-1432.34 1120.85,-1424.12 1125.11,-1416.28"/>
<polygon fill="grey" stroke="grey" stroke-width="2" points="1128.14,-1418.02 1129.84,-1407.56 1121.99,-1414.68 1128.14,-1418.02"/>
</g>
<!-- 23&#45;&gt;22 -->
<g id="edge68" class="edge">
<title>23&#45;&gt;22</title>
<path fill="none" stroke="grey" stroke-width="2" d="M1094.03,-1511.34C1095.16,-1504.75 1096.47,-1497.08 1097.74,-1489.67"/>
<polygon fill="grey" stroke="grey" stroke-width="2" points="1101.18,-1490.33 1099.42,-1479.89 1094.28,-1489.15 1101.18,-1490.33"/>
</g>
<!-- 24&#45;&gt;0 -->
<g id="edge28" class="edge">
<title>24&#45;&gt;0</title>
<path fill="none" stroke="grey" stroke-width="2" d="M977.39,-1079.26C985,-1052.56 998,-1000.36 998,-955 998,-955 998,-955 998,-881 998,-780.65 1070,-767.35 1070,-667 1070,-667 1070,-667 1070,-161 1070,-32.62 861.03,-18.26 770.75,-18.04"/>
<polygon fill="grey" stroke="grey" stroke-width="2" points="770.83,-14.54 760.85,-18.09 770.87,-21.54 770.83,-14.54"/>
</g>
<!-- 24&#45;&gt;25 -->
<g id="edge73" class="edge">
<title>24&#45;&gt;25</title>
<path fill="none" stroke="grey" stroke-width="2" d="M935.4,-1092.78C838.41,-1081.59 573.22,-1051.01 441.43,-1035.81"/>
<polygon fill="grey" stroke="grey" stroke-width="2" points="442.06,-1032.36 431.73,-1034.7 441.26,-1039.32 442.06,-1032.36"/>
</g>
<!-- 25&#45;&gt;0 -->
<g id="edge8" class="edge">
<title>25&#45;&gt;0</title>
<path fill="none" stroke="grey" stroke-width="2" d="M341.35,-1007.31C313.41,-985.2 267.39,-944.77 241,-900 232.04,-884.79 152,-612.65 152,-595 152,-595 152,-595 152,-161 152,-117.07 158.99,-97.16 195,-72 235.3,-43.85 571.55,-26.14 689.39,-20.75"/>
<polygon fill="grey" stroke="grey" stroke-width="2" points="689.47,-24.25 699.3,-20.3 689.16,-17.26 689.47,-24.25"/>
</g>
<!-- 26 -->
<g id="node27" class="node">
<title>26</title>
<path fill="none" stroke="#56d8a2" stroke-width="2" d="M391.75,-972C391.75,-972 338.25,-972 338.25,-972 332.25,-972 326.25,-966 326.25,-960 326.25,-960 326.25,-948 326.25,-948 326.25,-942 332.25,-936 338.25,-936 338.25,-936 391.75,-936 391.75,-936 397.75,-936 403.75,-942 403.75,-948 403.75,-948 403.75,-960 403.75,-960 403.75,-966 397.75,-972 391.75,-972"/>
<text text-anchor="middle" x="365" y="-950.12" font-family="sans" font-size="10.00">diff_res_mask</text>
</g>
<!-- 25&#45;&gt;26 -->
<g id="edge74" class="edge">
<title>25&#45;&gt;26</title>
<path fill="none" stroke="grey" stroke-width="2" d="M365,-1007.34C365,-1000.75 365,-993.08 365,-985.67"/>
<polygon fill="grey" stroke="grey" stroke-width="2" points="368.5,-985.93 365,-975.93 361.5,-985.93 368.5,-985.93"/>
</g>
<!-- 25&#45;&gt;31 -->
<g id="edge85" class="edge">
<title>25&#45;&gt;31</title>
<path fill="none" stroke="grey" stroke-width="2" d="M309.14,-1007.06C279.65,-997.59 243.28,-985.92 212.47,-976.02"/>
<polygon fill="grey" stroke="grey" stroke-width="2" points="213.56,-972.7 202.97,-972.97 211.42,-979.36 213.56,-972.7"/>
</g>
<!-- 26&#45;&gt;0 -->
<g id="edge23" class="edge">
<title>26&#45;&gt;0</title>
<path fill="none" stroke="grey" stroke-width="2" d="M359.43,-935.02C353.17,-916.36 341.92,-886.76 327,-864 290.81,-808.78 255.81,-814.4 225,-756 190.83,-691.23 190,-668.23 190,-595 190,-595 190,-595 190,-161 190,-117.07 197.08,-97.29 233,-72 306.15,-20.49 583.93,-17.58 689.22,-18.39"/>
<polygon fill="grey" stroke="grey" stroke-width="2" points="688.97,-21.89 699.01,-18.48 689.04,-14.89 688.97,-21.89"/>
</g>
<!-- 27 -->
<g id="node28" class="node">
<title>27</title>
<path fill="none" stroke="#56c1d8" stroke-width="2" d="M306.25,-900C306.25,-900 261.75,-900 261.75,-900 255.75,-900 249.75,-894 249.75,-888 249.75,-888 249.75,-876 249.75,-876 249.75,-870 255.75,-864 261.75,-864 261.75,-864 306.25,-864 306.25,-864 312.25,-864 318.25,-870 318.25,-876 318.25,-876 318.25,-888 318.25,-888 318.25,-894 312.25,-900 306.25,-900"/>
<text text-anchor="middle" x="284" y="-878.12" font-family="sans" font-size="10.00">dilate_mask</text>
</g>
<!-- 26&#45;&gt;27 -->
<g id="edge75" class="edge">
<title>26&#45;&gt;27</title>
<path fill="none" stroke="grey" stroke-width="2" d="M344.56,-935.34C335.42,-927.44 324.46,-917.96 314.39,-909.26"/>
<polygon fill="grey" stroke="grey" stroke-width="2" points="316.86,-906.77 307.01,-902.88 312.28,-912.07 316.86,-906.77"/>
</g>
<!-- 35 -->
<g id="node36" class="node">
<title>35</title>
<path fill="none" stroke="#d8cb56" stroke-width="2" d="M370.88,-684C370.88,-684 279.12,-684 279.12,-684 273.12,-684 267.12,-678 267.12,-672 267.12,-672 267.12,-660 267.12,-660 267.12,-654 273.12,-648 279.12,-648 279.12,-648 370.88,-648 370.88,-648 376.88,-648 382.88,-654 382.88,-660 382.88,-660 382.88,-672 382.88,-672 382.88,-678 376.88,-684 370.88,-684"/>
<text text-anchor="middle" x="325" y="-662.12" font-family="sans" font-size="10.00">new_nodif_brain_mask</text>
</g>
<!-- 26&#45;&gt;35 -->
<g id="edge92" class="edge">
<title>26&#45;&gt;35</title>
<path fill="none" stroke="grey" stroke-width="2" d="M365.85,-935C366.95,-905.11 367.88,-843.41 360,-792 354.94,-758.96 343.99,-722.24 335.68,-697.2"/>
<polygon fill="grey" stroke="grey" stroke-width="2" points="339.01,-696.12 332.48,-687.78 332.38,-698.38 339.01,-696.12"/>
</g>
<!-- 36 -->
<g id="node37" class="node">
<title>36</title>
<path fill="none" stroke="#56d892" stroke-width="2" d="M382,-612C382,-612 306,-612 306,-612 300,-612 294,-606 294,-600 294,-600 294,-588 294,-588 294,-582 300,-576 306,-576 306,-576 382,-576 382,-576 388,-576 394,-582 394,-588 394,-588 394,-600 394,-600 394,-606 388,-612 382,-612"/>
<text text-anchor="middle" x="344" y="-590.12" font-family="sans" font-size="10.00">calculate_coverage</text>
</g>
<!-- 26&#45;&gt;36 -->
<g id="edge93" class="edge">
<title>26&#45;&gt;36</title>
<path fill="none" stroke="grey" stroke-width="2" d="M377.37,-935.09C394.13,-909.03 422,-858.55 422,-811 422,-811 422,-811 422,-737 422,-695.26 413.12,-684 392,-648 386.61,-638.81 379.45,-629.83 372.3,-621.95"/>
<polygon fill="grey" stroke="grey" stroke-width="2" points="374.92,-619.63 365.48,-614.81 369.85,-624.46 374.92,-619.63"/>
</g>
<!-- 27&#45;&gt;0 -->
<g id="edge29" class="edge">
<title>27&#45;&gt;0</title>
<path fill="none" stroke="grey" stroke-width="2" d="M319.06,-868.17C410.11,-832.68 653.34,-723.55 746,-540 821.94,-389.57 658.87,-345.47 627,-180 623.97,-164.29 621.59,-159.06 627,-144 641.26,-104.28 674.2,-68.17 699.01,-45.09"/>
<polygon fill="grey" stroke="grey" stroke-width="2" points="701.08,-47.94 706.16,-38.64 696.39,-42.74 701.08,-47.94"/>
</g>
<!-- 33 -->
<g id="node34" class="node">
<title>33</title>
<path fill="none" stroke="#56d863" stroke-width="2" d="M182.38,-828C182.38,-828 123.62,-828 123.62,-828 117.62,-828 111.62,-822 111.62,-816 111.62,-816 111.62,-804 111.62,-804 111.62,-798 117.62,-792 123.62,-792 123.62,-792 182.38,-792 182.38,-792 188.38,-792 194.38,-798 194.38,-804 194.38,-804 194.38,-816 194.38,-816 194.38,-822 188.38,-828 182.38,-828"/>
<text text-anchor="middle" x="153" y="-806.12" font-family="sans" font-size="10.00">fov_mask_data</text>
</g>
<!-- 27&#45;&gt;33 -->
<g id="edge88" class="edge">
<title>27&#45;&gt;33</title>
<path fill="none" stroke="grey" stroke-width="2" d="M250.6,-863.15C234.44,-854.52 214.8,-844.02 197.39,-834.72"/>
<polygon fill="grey" stroke="grey" stroke-width="2" points="199.47,-831.87 189,-830.24 196.17,-838.04 199.47,-831.87"/>
</g>
<!-- 28&#45;&gt;0 -->
<g id="edge32" class="edge">
<title>28&#45;&gt;0</title>
<path fill="none" stroke="grey" stroke-width="2" d="M1202.97,-1007.23C1210,-980.5 1222,-928.25 1222,-883 1222,-883 1222,-883 1222,-305 1222,-200.9 1271.24,-145.98 1198,-72 1168.14,-41.84 878.89,-25.74 770.63,-20.73"/>
<polygon fill="grey" stroke="grey" stroke-width="2" points="770.94,-17.24 760.79,-20.29 770.62,-24.23 770.94,-17.24"/>
</g>
<!-- 37 -->
<g id="node38" class="node">
<title>37</title>
<path fill="none" stroke="#56d89a" stroke-width="2" d="M515.88,-684C515.88,-684 478.12,-684 478.12,-684 472.12,-684 466.12,-678 466.12,-672 466.12,-672 466.12,-660 466.12,-660 466.12,-654 472.12,-648 478.12,-648 478.12,-648 515.88,-648 515.88,-648 521.88,-648 527.88,-654 527.88,-660 527.88,-660 527.88,-672 527.88,-672 527.88,-678 521.88,-684 515.88,-684"/>
<text text-anchor="middle" x="497" y="-662.12" font-family="sans" font-size="10.00">create_mif</text>
</g>
<!-- 28&#45;&gt;37 -->
<g id="edge96" class="edge">
<title>28&#45;&gt;37</title>
<path fill="none" stroke="grey" stroke-width="2" d="M1162.76,-1007C1045.37,-947.05 667.86,-754.26 539.89,-688.9"/>
<polygon fill="grey" stroke="grey" stroke-width="2" points="541.84,-685.97 531.35,-684.54 538.66,-692.21 541.84,-685.97"/>
</g>
<!-- 29&#45;&gt;28 -->
<g id="edge77" class="edge">
<title>29&#45;&gt;28</title>
<path fill="none" stroke="grey" stroke-width="2" d="M1182.94,-2015.17C1188.5,-1988.36 1198,-1936.02 1198,-1891 1198,-1891 1198,-1891 1198,-1169 1198,-1130.65 1198,-1086.48 1198,-1057.72"/>
<polygon fill="grey" stroke="grey" stroke-width="2" points="1201.5,-1057.96 1198,-1047.96 1194.5,-1057.96 1201.5,-1057.96"/>
</g>
<!-- 30&#45;&gt;29 -->
<g id="edge78" class="edge">
<title>30&#45;&gt;29</title>
<path fill="none" stroke="grey" stroke-width="2" d="M1178.25,-2087.34C1178.35,-2080.75 1178.46,-2073.08 1178.56,-2065.67"/>
<polygon fill="grey" stroke="grey" stroke-width="2" points="1182.06,-2065.98 1178.7,-2055.93 1175.06,-2065.88 1182.06,-2065.98"/>
</g>
<!-- 31&#45;&gt;0 -->
<g id="edge5" class="edge">
<title>31&#45;&gt;0</title>
<path fill="none" stroke="grey" stroke-width="2" d="M100.69,-935.07C84.62,-926.69 67.92,-915.15 57,-900 33.35,-867.19 38,-851.45 38,-811 38,-811 38,-811 38,-161 38,-117.63 42.57,-97.01 78,-72 127.89,-36.77 554.3,-23.33 689.23,-19.93"/>
<polygon fill="grey" stroke="grey" stroke-width="2" points="689.14,-23.43 699.05,-19.69 688.97,-16.43 689.14,-23.43"/>
</g>
<!-- 32 -->
<g id="node33" class="node">
<title>32</title>
<path fill="none" stroke="#70d856" stroke-width="2" d="M144.12,-900C144.12,-900 77.88,-900 77.88,-900 71.88,-900 65.88,-894 65.88,-888 65.88,-888 65.88,-876 65.88,-876 65.88,-870 71.88,-864 77.88,-864 77.88,-864 144.12,-864 144.12,-864 150.12,-864 156.12,-870 156.12,-876 156.12,-876 156.12,-888 156.12,-888 156.12,-894 150.12,-900 144.12,-900"/>
<text text-anchor="middle" x="111" y="-878.12" font-family="sans" font-size="10.00">adjust_fov_mask</text>
</g>
<!-- 31&#45;&gt;32 -->
<g id="edge86" class="edge">
<title>31&#45;&gt;32</title>
<path fill="none" stroke="grey" stroke-width="2" d="M137.92,-935.34C134.32,-928.34 130.09,-920.12 126.06,-912.28"/>
<polygon fill="grey" stroke="grey" stroke-width="2" points="129.28,-910.89 121.59,-903.59 123.05,-914.09 129.28,-910.89"/>
</g>
<!-- 31&#45;&gt;33 -->
<g id="edge87" class="edge">
<title>31&#45;&gt;33</title>
<path fill="none" stroke="grey" stroke-width="2" d="M154.67,-935.22C158.61,-925.11 163,-912.08 165,-900 168.22,-880.48 165.3,-858.45 161.54,-841.19"/>
<polygon fill="grey" stroke="grey" stroke-width="2" points="165,-840.6 159.23,-831.72 158.2,-842.26 165,-840.6"/>
</g>
<!-- 32&#45;&gt;0 -->
<g id="edge15" class="edge">
<title>32&#45;&gt;0</title>
<path fill="none" stroke="grey" stroke-width="2" d="M103.75,-863.41C93.5,-836.91 76,-784.96 76,-739 76,-739 76,-739 76,-161 76,-118.5 76.93,-97.41 111,-72 157.29,-37.48 559.37,-23.62 689.53,-20.02"/>
<polygon fill="grey" stroke="grey" stroke-width="2" points="689.37,-23.52 699.27,-19.75 689.18,-16.53 689.37,-23.52"/>
</g>
<!-- 32&#45;&gt;33 -->
<g id="edge89" class="edge">
<title>32&#45;&gt;33</title>
<path fill="none" stroke="grey" stroke-width="2" d="M121.6,-863.34C125.84,-856.26 130.85,-847.92 135.6,-840"/>
<polygon fill="grey" stroke="grey" stroke-width="2" points="138.56,-841.87 140.7,-831.5 132.56,-838.27 138.56,-841.87"/>
</g>
<!-- 33&#45;&gt;0 -->
<g id="edge18" class="edge">
<title>33&#45;&gt;0</title>
<path fill="none" stroke="grey" stroke-width="2" d="M144.73,-791.05C133.28,-764.53 114,-713.02 114,-667 114,-667 114,-667 114,-161 114,-120.03 106.62,-98.34 138,-72 180.13,-36.63 562.79,-23.41 689.48,-19.98"/>
<polygon fill="grey" stroke="grey" stroke-width="2" points="689.35,-23.49 699.25,-19.73 689.16,-16.49 689.35,-23.49"/>
</g>
<!-- 34 -->
<g id="node35" class="node">
<title>34</title>
<path fill="none" stroke="#56d873" stroke-width="2" d="M301.88,-756C301.88,-756 246.12,-756 246.12,-756 240.12,-756 234.12,-750 234.12,-744 234.12,-744 234.12,-732 234.12,-732 234.12,-726 240.12,-720 246.12,-720 246.12,-720 301.88,-720 301.88,-720 307.88,-720 313.88,-726 313.88,-732 313.88,-732 313.88,-744 313.88,-744 313.88,-750 307.88,-756 301.88,-756"/>
<text text-anchor="middle" x="274" y="-734.12" font-family="sans" font-size="10.00">threshold_data</text>
</g>
<!-- 33&#45;&gt;34 -->
<g id="edge90" class="edge">
<title>33&#45;&gt;34</title>
<path fill="none" stroke="grey" stroke-width="2" d="M183.85,-791.15C198.5,-782.68 216.23,-772.42 232.07,-763.25"/>
<polygon fill="grey" stroke="grey" stroke-width="2" points="233.69,-766.37 240.59,-758.33 230.18,-760.31 233.69,-766.37"/>
</g>
<!-- 34&#45;&gt;0 -->
<g id="edge19" class="edge">
<title>34&#45;&gt;0</title>
<path fill="none" stroke="grey" stroke-width="2" d="M264.24,-719.22C250.74,-692.9 228,-641.65 228,-595 228,-595 228,-595 228,-161 228,-117.45 233.73,-97.54 269,-72 335.67,-23.72 589.66,-18.75 689.43,-18.71"/>
<polygon fill="grey" stroke="grey" stroke-width="2" points="689.14,-22.21 699.15,-18.72 689.15,-15.21 689.14,-22.21"/>
</g>
<!-- 34&#45;&gt;35 -->
<g id="edge91" class="edge">
<title>34&#45;&gt;35</title>
<path fill="none" stroke="grey" stroke-width="2" d="M286.87,-719.34C292.2,-712.01 298.53,-703.34 304.47,-695.18"/>
<polygon fill="grey" stroke="grey" stroke-width="2" points="307.11,-697.49 310.17,-687.35 301.46,-693.37 307.11,-697.49"/>
</g>
<!-- 34&#45;&gt;37 -->
<g id="edge95" class="edge">
<title>34&#45;&gt;37</title>
<path fill="none" stroke="grey" stroke-width="2" d="M314.64,-724.24C353.75,-711.97 412.72,-693.46 452.94,-680.83"/>
<polygon fill="grey" stroke="grey" stroke-width="2" points="453.91,-684.2 462.4,-677.86 451.81,-677.52 453.91,-684.2"/>
</g>
<!-- 35&#45;&gt;0 -->
<g id="edge6" class="edge">
<title>35&#45;&gt;0</title>
<path fill="none" stroke="grey" stroke-width="2" d="M308.4,-647.15C300.2,-637.43 290.84,-624.79 285,-612 268.2,-575.21 266,-563.45 266,-523 266,-523 266,-523 266,-161 266,-118.33 268.16,-97.99 302,-72 362.07,-25.88 594.48,-19.55 689.33,-18.93"/>
<polygon fill="grey" stroke="grey" stroke-width="2" points="689.28,-22.43 699.27,-18.89 689.25,-15.43 689.28,-22.43"/>
</g>
<!-- 35&#45;&gt;36 -->
<g id="edge94" class="edge">
<title>35&#45;&gt;36</title>
<path fill="none" stroke="grey" stroke-width="2" d="M329.79,-647.34C331.6,-640.67 333.72,-632.89 335.75,-625.39"/>
<polygon fill="grey" stroke="grey" stroke-width="2" points="339.11,-626.39 338.35,-615.82 332.35,-624.56 339.11,-626.39"/>
</g>
<!-- 36&#45;&gt;0 -->
<g id="edge21" class="edge">
<title>36&#45;&gt;0</title>
<path fill="none" stroke="grey" stroke-width="2" d="M335.52,-575.08C323.78,-548.58 304,-497.1 304,-451 304,-451 304,-451 304,-161 304,-120.03 297.18,-98.99 328,-72 381.14,-25.46 598.04,-19.32 689.26,-18.84"/>
<polygon fill="grey" stroke="grey" stroke-width="2" points="689.26,-22.34 699.25,-18.81 689.25,-15.34 689.26,-22.34"/>
</g>
<!-- 37&#45;&gt;0 -->
<g id="edge22" class="edge">
<title>37&#45;&gt;0</title>
<path fill="none" stroke="grey" stroke-width="2" d="M479.82,-647.27C439.46,-604.84 342,-497.56 342,-451 342,-451 342,-451 342,-161 342,-117.45 348.21,-98.19 383,-72 430.68,-36.11 608.49,-24.11 689.42,-20.46"/>
<polygon fill="grey" stroke="grey" stroke-width="2" points="689.13,-23.97 698.98,-20.05 688.84,-16.98 689.13,-23.97"/>
</g>
<!-- 39 -->
<g id="node40" class="node">
<title>39</title>
<path fill="none" stroke="#97d856" stroke-width="2" d="M591,-612C591,-612 533,-612 533,-612 527,-612 521,-606 521,-600 521,-600 521,-588 521,-588 521,-582 527,-576 533,-576 533,-576 591,-576 591,-576 597,-576 603,-582 603,-588 603,-588 603,-600 603,-600 603,-606 597,-612 591,-612"/>
<text text-anchor="middle" x="562" y="-590.12" font-family="sans" font-size="10.00">bias_correction</text>
</g>
<!-- 37&#45;&gt;39 -->
<g id="edge97" class="edge">
<title>37&#45;&gt;39</title>
<path fill="none" stroke="grey" stroke-width="2" d="M513.4,-647.34C520.43,-639.77 528.8,-630.75 536.6,-622.35"/>
<polygon fill="grey" stroke="grey" stroke-width="2" points="539.08,-624.83 543.32,-615.12 533.95,-620.07 539.08,-624.83"/>
</g>
<!-- 38 -->
<g id="node39" class="node">
<title>38</title>
<path fill="none" stroke="#d87d56" stroke-width="2" d="M888,-396C888,-396 806,-396 806,-396 800,-396 794,-390 794,-384 794,-384 794,-372 794,-372 794,-366 800,-360 806,-360 806,-360 888,-360 888,-360 894,-360 900,-366 900,-372 900,-372 900,-384 900,-384 900,-390 894,-396 888,-396"/>
<text text-anchor="middle" x="847" y="-374.12" font-family="sans" font-size="10.00">tissue_segmentation</text>
</g>
<!-- 38&#45;&gt;0 -->
<g id="edge3" class="edge">
<title>38&#45;&gt;0</title>
<path fill="none" stroke="grey" stroke-width="2" d="M869.92,-359.17C879.96,-349.9 890.66,-337.65 896,-324 913.73,-278.71 890.5,-216.13 864,-144 851.52,-110.04 851.34,-97.83 826,-72 810.14,-55.84 788.29,-43.25 769.45,-34.41"/>
<polygon fill="grey" stroke="grey" stroke-width="2" points="770.91,-31.23 760.35,-30.37 768.07,-37.63 770.91,-31.23"/>
</g>
<!-- 45 -->
<g id="node46" class="node">
<title>45</title>
<path fill="none" stroke="#afd856" stroke-width="2" d="M875.38,-324C875.38,-324 810.62,-324 810.62,-324 804.62,-324 798.62,-318 798.62,-312 798.62,-312 798.62,-300 798.62,-300 798.62,-294 804.62,-288 810.62,-288 810.62,-288 875.38,-288 875.38,-288 881.38,-288 887.38,-294 887.38,-300 887.38,-300 887.38,-312 887.38,-312 887.38,-318 881.38,-324 875.38,-324"/>
<text text-anchor="middle" x="843" y="-302.12" font-family="sans" font-size="10.00">run_tractography</text>
</g>
<!-- 38&#45;&gt;45 -->
<g id="edge106" class="edge">
<title>38&#45;&gt;45</title>
<path fill="none" stroke="grey" stroke-width="2" d="M845.99,-359.34C845.61,-352.75 845.18,-345.08 844.75,-337.67"/>
<polygon fill="grey" stroke="grey" stroke-width="2" points="848.26,-337.71 844.2,-327.92 841.27,-338.11 848.26,-337.71"/>
</g>
<!-- 46 -->
<g id="node47" class="node">
<title>46</title>
<path fill="none" stroke="#56d8d0" stroke-width="2" d="M786,-252C786,-252 756,-252 756,-252 750,-252 744,-246 744,-240 744,-240 744,-228 744,-228 744,-222 750,-216 756,-216 756,-216 786,-216 786,-216 792,-216 798,-222 798,-228 798,-228 798,-240 798,-240 798,-246 792,-252 786,-252"/>
<text text-anchor="middle" x="771" y="-230.12" font-family="sans" font-size="10.00">run_sift</text>
</g>
<!-- 38&#45;&gt;46 -->
<g id="edge108" class="edge">
<title>38&#45;&gt;46</title>
<path fill="none" stroke="grey" stroke-width="2" d="M821.44,-359.02C810.16,-349.79 797.73,-337.63 790,-324 779.92,-306.24 775.18,-283.72 772.95,-265.78"/>
<polygon fill="grey" stroke="grey" stroke-width="2" points="776.43,-265.45 771.97,-255.85 769.47,-266.14 776.43,-265.45"/>
</g>
<!-- 39&#45;&gt;0 -->
<g id="edge13" class="edge">
<title>39&#45;&gt;0</title>
<path fill="none" stroke="grey" stroke-width="2" d="M520.09,-584.91C490.85,-577.45 452.47,-563.81 426,-540 392.9,-510.22 380,-495.53 380,-451 380,-451 380,-451 380,-161 380,-118.33 382.74,-98.72 416,-72 457.57,-38.6 614.8,-25.44 689.77,-20.98"/>
<polygon fill="grey" stroke="grey" stroke-width="2" points="689.53,-24.5 699.32,-20.44 689.14,-17.51 689.53,-24.5"/>
</g>
<!-- 40 -->
<g id="node41" class="node">
<title>40</title>
<path fill="none" stroke="#56d8a9" stroke-width="2" d="M484,-468C484,-468 420,-468 420,-468 414,-468 408,-462 408,-456 408,-456 408,-444 408,-444 408,-438 414,-432 420,-432 420,-432 484,-432 484,-432 490,-432 496,-438 496,-444 496,-444 496,-456 496,-456 496,-462 490,-468 484,-468"/>
<text text-anchor="middle" x="452" y="-446.12" font-family="sans" font-size="10.00">create_mean_b0</text>
</g>
<!-- 39&#45;&gt;40 -->
<g id="edge98" class="edge">
<title>39&#45;&gt;40</title>
<path fill="none" stroke="grey" stroke-width="2" d="M520.1,-587.3C491.41,-580.97 455.35,-567.71 437,-540 425.47,-522.59 430.01,-499.19 437.01,-480.76"/>
<polygon fill="grey" stroke="grey" stroke-width="2" points="440.17,-482.27 440.89,-471.7 433.73,-479.51 440.17,-482.27"/>
</g>
<!-- 41 -->
<g id="node42" class="node">
<title>41</title>
<path fill="none" stroke="#56d8c1" stroke-width="2" d="M570,-540C570,-540 458,-540 458,-540 452,-540 446,-534 446,-528 446,-528 446,-516 446,-516 446,-510 452,-504 458,-504 458,-504 570,-504 570,-504 576,-504 582,-510 582,-516 582,-516 582,-528 582,-528 582,-534 576,-540 570,-540"/>
<text text-anchor="middle" x="514" y="-518.12" font-family="sans" font-size="10.00">extract_response_functions</text>
</g>
<!-- 39&#45;&gt;41 -->
<g id="edge99" class="edge">
<title>39&#45;&gt;41</title>
<path fill="none" stroke="grey" stroke-width="2" d="M549.89,-575.34C544.92,-568.1 539.05,-559.53 533.51,-551.45"/>
<polygon fill="grey" stroke="grey" stroke-width="2" points="536.53,-549.67 527.99,-543.4 530.76,-553.62 536.53,-549.67"/>
</g>
<!-- 42 -->
<g id="node43" class="node">
<title>42</title>
<path fill="none" stroke="#56d8c9" stroke-width="2" d="M708.38,-540C708.38,-540 649.62,-540 649.62,-540 643.62,-540 637.62,-534 637.62,-528 637.62,-528 637.62,-516 637.62,-516 637.62,-510 643.62,-504 649.62,-504 649.62,-504 708.38,-504 708.38,-504 714.38,-504 720.38,-510 720.38,-516 720.38,-516 720.38,-528 720.38,-528 720.38,-534 714.38,-540 708.38,-540"/>
<text text-anchor="middle" x="679" y="-518.12" font-family="sans" font-size="10.00">generate_mask</text>
</g>
<!-- 39&#45;&gt;42 -->
<g id="edge100" class="edge">
<title>39&#45;&gt;42</title>
<path fill="none" stroke="grey" stroke-width="2" d="M591.83,-575.15C605.99,-566.68 623.14,-556.42 638.46,-547.25"/>
<polygon fill="grey" stroke="grey" stroke-width="2" points="639.85,-550.5 646.63,-542.37 636.25,-544.5 639.85,-550.5"/>
</g>
<!-- 43 -->
<g id="node44" class="node">
<title>43</title>
<path fill="none" stroke="#ced856" stroke-width="2" d="M612.12,-468C612.12,-468 563.88,-468 563.88,-468 557.88,-468 551.88,-462 551.88,-456 551.88,-456 551.88,-444 551.88,-444 551.88,-438 557.88,-432 563.88,-432 563.88,-432 612.12,-432 612.12,-432 618.12,-432 624.12,-438 624.12,-444 624.12,-444 624.12,-456 624.12,-456 624.12,-462 618.12,-468 612.12,-468"/>
<text text-anchor="middle" x="588" y="-446.12" font-family="sans" font-size="10.00">generate_fod</text>
</g>
<!-- 39&#45;&gt;43 -->
<g id="edge101" class="edge">
<title>39&#45;&gt;43</title>
<path fill="none" stroke="grey" stroke-width="2" d="M574.61,-575.31C580.87,-565.43 587.78,-552.6 591,-540 595.87,-520.97 595.16,-498.91 593.22,-481.51"/>
<polygon fill="grey" stroke="grey" stroke-width="2" points="596.7,-481.15 591.89,-471.71 589.77,-482.09 596.7,-481.15"/>
</g>
<!-- 53 -->
<g id="node54" class="node">
<title>53</title>
<path fill="none" stroke="#5673d8" stroke-width="2" d="M982,-108C982,-108 952,-108 952,-108 946,-108 940,-102 940,-96 940,-96 940,-84 940,-84 940,-78 946,-72 952,-72 952,-72 982,-72 982,-72 988,-72 994,-78 994,-84 994,-84 994,-96 994,-96 994,-102 988,-108 982,-108"/>
<text text-anchor="middle" x="967" y="-86.12" font-family="sans" font-size="10.00">qc_sc</text>
</g>
<!-- 39&#45;&gt;53 -->
<g id="edge119" class="edge">
<title>39&#45;&gt;53</title>
<path fill="none" stroke="grey" stroke-width="2" d="M603.86,-586.41C642.53,-579.09 700.69,-564.87 746,-540 830.74,-493.48 850.66,-473.07 909,-396 973.31,-311.05 989.29,-283.88 1013,-180 1016.56,-164.4 1018.6,-158.99 1013,-144 1009.5,-134.64 1003.52,-125.83 997.01,-118.19"/>
<polygon fill="grey" stroke="grey" stroke-width="2" points="999.75,-115.99 990.37,-111.07 994.63,-120.77 999.75,-115.99"/>
</g>
<!-- 55 -->
<g id="node56" class="node">
<title>55</title>
<path fill="none" stroke="#a7d856" stroke-width="2" d="M709.88,-180C709.88,-180 648.12,-180 648.12,-180 642.12,-180 636.12,-174 636.12,-168 636.12,-168 636.12,-156 636.12,-156 636.12,-150 642.12,-144 648.12,-144 648.12,-144 709.88,-144 709.88,-144 715.88,-144 721.88,-150 721.88,-156 721.88,-156 721.88,-168 721.88,-168 721.88,-174 715.88,-180 709.88,-180"/>
<text text-anchor="middle" x="679" y="-158.12" font-family="sans" font-size="10.00">qc_tractography</text>
</g>
<!-- 39&#45;&gt;55 -->
<g id="edge125" class="edge">
<title>39&#45;&gt;55</title>
<path fill="none" stroke="grey" stroke-width="2" d="M603.83,-592.72C643.3,-589.95 700.53,-578.91 729,-540 749.41,-512.11 703,-277.73 685.41,-193.22"/>
<polygon fill="grey" stroke="grey" stroke-width="2" points="688.85,-192.59 683.38,-183.53 682,-194.03 688.85,-192.59"/>
</g>
<!-- 40&#45;&gt;0 -->
<g id="edge24" class="edge">
<title>40&#45;&gt;0</title>
<path fill="none" stroke="grey" stroke-width="2" d="M444.96,-431.39C435,-404.87 418,-352.88 418,-307 418,-307 418,-307 418,-161 418,-120.03 411.88,-99.77 442,-72 477.47,-39.31 618.61,-25.96 689.27,-21.24"/>
<polygon fill="grey" stroke="grey" stroke-width="2" points="689.22,-24.75 698.98,-20.63 688.78,-17.77 689.22,-24.75"/>
</g>
<!-- 41&#45;&gt;0 -->
<g id="edge25" class="edge">
<title>41&#45;&gt;0</title>
<path fill="none" stroke="grey" stroke-width="2" d="M513.62,-503.03C512.89,-484.88 510.84,-456.15 505,-432 490.98,-374 456,-366.67 456,-307 456,-307 456,-307 456,-161 456,-118.16 460.19,-99.54 493,-72 522.42,-47.3 630.03,-30.91 689.62,-23.51"/>
<polygon fill="grey" stroke="grey" stroke-width="2" points="689.75,-27.02 699.26,-22.35 688.91,-20.08 689.75,-27.02"/>
</g>
<!-- 41&#45;&gt;43 -->
<g id="edge102" class="edge">
<title>41&#45;&gt;43</title>
<path fill="none" stroke="grey" stroke-width="2" d="M532.67,-503.34C540.85,-495.6 550.62,-486.36 559.66,-477.81"/>
<polygon fill="grey" stroke="grey" stroke-width="2" points="562.02,-480.4 566.88,-470.98 557.21,-475.31 562.02,-480.4"/>
</g>
<!-- 42&#45;&gt;0 -->
<g id="edge26" class="edge">
<title>42&#45;&gt;0</title>
<path fill="none" stroke="grey" stroke-width="2" d="M670.93,-503.07C662.39,-484.71 648.09,-455.59 633,-432 622.08,-414.92 615.48,-413.35 605,-396 564.38,-328.75 532,-313.57 532,-235 532,-235 532,-235 532,-161 532,-118.16 537.58,-101.12 569,-72 602.2,-41.23 653.65,-28.3 689.41,-22.88"/>
<polygon fill="grey" stroke="grey" stroke-width="2" points="689.84,-26.36 699.28,-21.56 688.9,-19.42 689.84,-26.36"/>
</g>
<!-- 42&#45;&gt;43 -->
<g id="edge103" class="edge">
<title>42&#45;&gt;43</title>
<path fill="none" stroke="grey" stroke-width="2" d="M656.04,-503.34C645.56,-495.27 632.94,-485.57 621.43,-476.72"/>
<polygon fill="grey" stroke="grey" stroke-width="2" points="623.73,-474.07 613.67,-470.75 619.46,-479.62 623.73,-474.07"/>
</g>
<!-- 44 -->
<g id="node45" class="node">
<title>44</title>
<path fill="none" stroke="#56a2d8" stroke-width="2" d="M678.38,-396C678.38,-396 625.62,-396 625.62,-396 619.62,-396 613.62,-390 613.62,-384 613.62,-384 613.62,-372 613.62,-372 613.62,-366 619.62,-360 625.62,-360 625.62,-360 678.38,-360 678.38,-360 684.38,-360 690.38,-366 690.38,-372 690.38,-372 690.38,-384 690.38,-384 690.38,-390 684.38,-396 678.38,-396"/>
<text text-anchor="middle" x="652" y="-374.12" font-family="sans" font-size="10.00">normalize_fod</text>
</g>
<!-- 42&#45;&gt;44 -->
<g id="edge105" class="edge">
<title>42&#45;&gt;44</title>
<path fill="none" stroke="grey" stroke-width="2" d="M677,-503.17C674.83,-485.12 671,-456.48 666,-432 664.46,-424.45 662.49,-416.37 660.52,-408.85"/>
<polygon fill="grey" stroke="grey" stroke-width="2" points="663.97,-408.2 657.96,-399.47 657.21,-410.04 663.97,-408.2"/>
</g>
<!-- 43&#45;&gt;0 -->
<g id="edge9" class="edge">
<title>43&#45;&gt;0</title>
<path fill="none" stroke="grey" stroke-width="2" d="M566.2,-431.31C538.43,-406.64 494,-359.03 494,-307 494,-307 494,-307 494,-161 494,-120.03 488.77,-100.7 518,-72 542.07,-48.37 635.01,-31.99 689.51,-24.2"/>
<polygon fill="grey" stroke="grey" stroke-width="2" points="689.73,-27.7 699.15,-22.86 688.76,-20.77 689.73,-27.7"/>
</g>
<!-- 43&#45;&gt;44 -->
<g id="edge104" class="edge">
<title>43&#45;&gt;44</title>
<path fill="none" stroke="grey" stroke-width="2" d="M604.15,-431.34C611.07,-423.77 619.31,-414.75 626.99,-406.35"/>
<polygon fill="grey" stroke="grey" stroke-width="2" points="629.43,-408.88 633.59,-399.14 624.26,-404.15 629.43,-408.88"/>
</g>
<!-- 44&#45;&gt;0 -->
<g id="edge31" class="edge">
<title>44&#45;&gt;0</title>
<path fill="none" stroke="grey" stroke-width="2" d="M633.39,-359.17C609.2,-333.98 570,-285.39 570,-235 570,-235 570,-235 570,-161 570,-120.03 566.64,-102.49 594,-72 618.55,-44.64 658.93,-31.27 689.33,-24.82"/>
<polygon fill="grey" stroke="grey" stroke-width="2" points="689.95,-28.27 699.11,-22.96 688.63,-21.39 689.95,-28.27"/>
</g>
<!-- 44&#45;&gt;45 -->
<g id="edge107" class="edge">
<title>44&#45;&gt;45</title>
<path fill="none" stroke="grey" stroke-width="2" d="M691.11,-362.67C718.35,-352.68 755.13,-339.2 785.68,-328.01"/>
<polygon fill="grey" stroke="grey" stroke-width="2" points="786.88,-331.3 795.06,-324.57 784.47,-324.72 786.88,-331.3"/>
</g>
<!-- 44&#45;&gt;46 -->
<g id="edge109" class="edge">
<title>44&#45;&gt;46</title>
<path fill="none" stroke="grey" stroke-width="2" d="M667.07,-359.02C687.46,-334.69 724.01,-291.07 747.88,-262.58"/>
<polygon fill="grey" stroke="grey" stroke-width="2" points="750.37,-265.07 754.11,-255.16 745,-260.57 750.37,-265.07"/>
</g>
<!-- 45&#45;&gt;0 -->
<g id="edge11" class="edge">
<title>45&#45;&gt;0</title>
<path fill="none" stroke="grey" stroke-width="2" d="M847.05,-287.45C853.21,-257.16 862.48,-193.56 845,-144 830.48,-102.82 794.28,-67.46 766.34,-44.96"/>
<polygon fill="grey" stroke="grey" stroke-width="2" points="768.52,-42.22 758.48,-38.84 764.22,-47.75 768.52,-42.22"/>
</g>
<!-- 45&#45;&gt;46 -->
<g id="edge110" class="edge">
<title>45&#45;&gt;46</title>
<path fill="none" stroke="grey" stroke-width="2" d="M824.83,-287.34C816.88,-279.6 807.37,-270.36 798.57,-261.81"/>
<polygon fill="grey" stroke="grey" stroke-width="2" points="801.19,-259.47 791.58,-255.01 796.31,-264.49 801.19,-259.47"/>
</g>
<!-- 52 -->
<g id="node53" class="node">
<title>52</title>
<path fill="none" stroke="#d8d356" stroke-width="2" d="M824.38,-180C824.38,-180 789.62,-180 789.62,-180 783.62,-180 777.62,-174 777.62,-168 777.62,-168 777.62,-156 777.62,-156 777.62,-150 783.62,-144 789.62,-144 789.62,-144 824.38,-144 824.38,-144 830.38,-144 836.38,-150 836.38,-156 836.38,-156 836.38,-168 836.38,-168 836.38,-174 830.38,-180 824.38,-180"/>
<text text-anchor="middle" x="807" y="-158.12" font-family="sans" font-size="10.00">create_sc</text>
</g>
<!-- 45&#45;&gt;52 -->
<g id="edge116" class="edge">
<title>45&#45;&gt;52</title>
<path fill="none" stroke="grey" stroke-width="2" d="M838.44,-287.02C832.46,-263.44 821.89,-221.73 814.67,-193.25"/>
<polygon fill="grey" stroke="grey" stroke-width="2" points="818.12,-192.61 812.27,-183.77 811.33,-194.33 818.12,-192.61"/>
</g>
<!-- 54 -->
<g id="node55" class="node">
<title>54</title>
<path fill="none" stroke="#5682d8" stroke-width="2" d="M992.25,-180C992.25,-180 941.75,-180 941.75,-180 935.75,-180 929.75,-174 929.75,-168 929.75,-168 929.75,-156 929.75,-156 929.75,-150 935.75,-144 941.75,-144 941.75,-144 992.25,-144 992.25,-144 998.25,-144 1004.25,-150 1004.25,-156 1004.25,-156 1004.25,-168 1004.25,-168 1004.25,-174 998.25,-180 992.25,-180"/>
<text text-anchor="middle" x="967" y="-158.12" font-family="sans" font-size="10.00">create_sc_dk</text>
</g>
<!-- 45&#45;&gt;54 -->
<g id="edge123" class="edge">
<title>45&#45;&gt;54</title>
<path fill="none" stroke="grey" stroke-width="2" d="M858.7,-287.02C879.95,-262.69 918.04,-219.07 942.91,-190.58"/>
<polygon fill="grey" stroke="grey" stroke-width="2" points="945.49,-192.95 949.43,-183.12 940.22,-188.35 945.49,-192.95"/>
</g>
<!-- 45&#45;&gt;55 -->
<g id="edge126" class="edge">
<title>45&#45;&gt;55</title>
<path fill="none" stroke="grey" stroke-width="2" d="M797.86,-289.44C777.08,-280.71 753.09,-268.28 735,-252 716.52,-235.37 701.86,-211.25 692.18,-192.32"/>
<polygon fill="grey" stroke="grey" stroke-width="2" points="695.39,-190.93 687.87,-183.47 689.1,-193.99 695.39,-190.93"/>
</g>
<!-- 46&#45;&gt;0 -->
<g id="edge27" class="edge">
<title>46&#45;&gt;0</title>
<path fill="none" stroke="grey" stroke-width="2" d="M767.57,-215.12C760.58,-178.62 744.59,-95.13 735.89,-49.74"/>
<polygon fill="grey" stroke="grey" stroke-width="2" points="739.33,-49.11 734.01,-39.95 732.46,-50.43 739.33,-49.11"/>
</g>
<!-- 46&#45;&gt;52 -->
<g id="edge117" class="edge">
<title>46&#45;&gt;52</title>
<path fill="none" stroke="grey" stroke-width="2" d="M780.08,-215.34C783.68,-208.34 787.91,-200.12 791.94,-192.28"/>
<polygon fill="grey" stroke="grey" stroke-width="2" points="794.95,-194.09 796.41,-183.59 788.72,-190.89 794.95,-194.09"/>
</g>
<!-- 46&#45;&gt;54 -->
<g id="edge124" class="edge">
<title>46&#45;&gt;54</title>
<path fill="none" stroke="grey" stroke-width="2" d="M798.67,-223.12C829.29,-212.18 879.27,-194.33 916.84,-180.92"/>
<polygon fill="grey" stroke="grey" stroke-width="2" points="917.96,-184.23 926.2,-177.57 915.61,-177.64 917.96,-184.23"/>
</g>
<!-- 46&#45;&gt;55 -->
<g id="edge127" class="edge">
<title>46&#45;&gt;55</title>
<path fill="none" stroke="grey" stroke-width="2" d="M747.78,-215.34C737.19,-207.27 724.43,-197.57 712.8,-188.72"/>
<polygon fill="grey" stroke="grey" stroke-width="2" points="715.01,-186 704.94,-182.73 710.78,-191.58 715.01,-186"/>
</g>
<!-- 47 -->
<g id="node48" class="node">
<title>47</title>
<path fill="none" stroke="#565bd8" stroke-width="2" d="M1562.75,-396C1562.75,-396 1527.25,-396 1527.25,-396 1521.25,-396 1515.25,-390 1515.25,-384 1515.25,-384 1515.25,-372 1515.25,-372 1515.25,-366 1521.25,-360 1527.25,-360 1527.25,-360 1562.75,-360 1562.75,-360 1568.75,-360 1574.75,-366 1574.75,-372 1574.75,-372 1574.75,-384 1574.75,-384 1574.75,-390 1568.75,-396 1562.75,-396"/>
<text text-anchor="middle" x="1545" y="-374.12" font-family="sans" font-size="10.00">mmp2surf</text>
</g>
<!-- 47&#45;&gt;0 -->
<g id="edge36" class="edge">
<title>47&#45;&gt;0</title>
<path fill="none" stroke="grey" stroke-width="2" d="M1553.06,-359.03C1564.21,-332.48 1583,-280.94 1583,-235 1583,-235 1583,-235 1583,-161 1583,-90.24 1517.86,-95.15 1451,-72 1323.85,-27.98 903.92,-20.52 770.83,-19.26"/>
<polygon fill="grey" stroke="grey" stroke-width="2" points="770.87,-15.76 760.84,-19.17 770.81,-22.76 770.87,-15.76"/>
</g>
<!-- 48 -->
<g id="node49" class="node">
<title>48</title>
<path fill="none" stroke="#d85e56" stroke-width="2" d="M1542.88,-324C1542.88,-324 1511.12,-324 1511.12,-324 1505.12,-324 1499.12,-318 1499.12,-312 1499.12,-312 1499.12,-300 1499.12,-300 1499.12,-294 1505.12,-288 1511.12,-288 1511.12,-288 1542.88,-288 1542.88,-288 1548.88,-288 1554.88,-294 1554.88,-300 1554.88,-300 1554.88,-312 1554.88,-312 1554.88,-318 1548.88,-324 1542.88,-324"/>
<text text-anchor="middle" x="1527" y="-302.12" font-family="sans" font-size="10.00">mmp2vol</text>
</g>
<!-- 47&#45;&gt;48 -->
<g id="edge111" class="edge">
<title>47&#45;&gt;48</title>
<path fill="none" stroke="grey" stroke-width="2" d="M1540.46,-359.34C1538.74,-352.67 1536.74,-344.89 1534.81,-337.39"/>
<polygon fill="grey" stroke="grey" stroke-width="2" points="1538.24,-336.65 1532.36,-327.83 1531.46,-338.39 1538.24,-336.65"/>
</g>
<!-- 48&#45;&gt;0 -->
<g id="edge2" class="edge">
<title>48&#45;&gt;0</title>
<path fill="none" stroke="grey" stroke-width="2" d="M1530.16,-287C1532.63,-268.58 1534.41,-239.42 1526,-216 1498.23,-138.65 1482.7,-110.33 1410,-72 1353.42,-42.17 907.99,-24.94 770.37,-20.29"/>
<polygon fill="grey" stroke="grey" stroke-width="2" points="770.81,-16.8 760.69,-19.97 770.57,-23.8 770.81,-16.8"/>
</g>
<!-- 49 -->
<g id="node50" class="node">
<title>49</title>
<path fill="none" stroke="#567bd8" stroke-width="2" d="M1504.62,-252C1504.62,-252 1429.38,-252 1429.38,-252 1423.38,-252 1417.38,-246 1417.38,-240 1417.38,-240 1417.38,-228 1417.38,-228 1417.38,-222 1423.38,-216 1429.38,-216 1429.38,-216 1504.62,-216 1504.62,-216 1510.62,-216 1516.62,-222 1516.62,-228 1516.62,-228 1516.62,-240 1516.62,-240 1516.62,-246 1510.62,-252 1504.62,-252"/>
<text text-anchor="middle" x="1467" y="-230.12" font-family="sans" font-size="10.00">mmp_vol_to_mrtrix</text>
</g>
<!-- 48&#45;&gt;49 -->
<g id="edge112" class="edge">
<title>48&#45;&gt;49</title>
<path fill="none" stroke="grey" stroke-width="2" d="M1511.86,-287.34C1505.44,-279.85 1497.81,-270.95 1490.68,-262.63"/>
<polygon fill="grey" stroke="grey" stroke-width="2" points="1493.48,-260.51 1484.31,-255.2 1488.16,-265.07 1493.48,-260.51"/>
</g>
<!-- 49&#45;&gt;0 -->
<g id="edge35" class="edge">
<title>49&#45;&gt;0</title>
<path fill="none" stroke="grey" stroke-width="2" d="M1463.32,-215.24C1455,-180.27 1431.1,-103.18 1377,-72 1324.54,-41.77 904.34,-24.95 770.67,-20.32"/>
<polygon fill="grey" stroke="grey" stroke-width="2" points="771.08,-16.84 760.97,-19.99 770.84,-23.83 771.08,-16.84"/>
</g>
<!-- 51 -->
<g id="node52" class="node">
<title>51</title>
<path fill="none" stroke="#9fd856" stroke-width="2" d="M1406,-180C1406,-180 1376,-180 1376,-180 1370,-180 1364,-174 1364,-168 1364,-168 1364,-156 1364,-156 1364,-150 1370,-144 1376,-144 1376,-144 1406,-144 1406,-144 1412,-144 1418,-150 1418,-156 1418,-156 1418,-168 1418,-168 1418,-174 1412,-180 1406,-180"/>
<text text-anchor="middle" x="1391" y="-158.12" font-family="sans" font-size="10.00">qc_parc</text>
</g>
<!-- 49&#45;&gt;51 -->
<g id="edge113" class="edge">
<title>49&#45;&gt;51</title>
<path fill="none" stroke="grey" stroke-width="2" d="M1447.82,-215.34C1439.34,-207.52 1429.18,-198.16 1419.81,-189.53"/>
<polygon fill="grey" stroke="grey" stroke-width="2" points="1422.39,-187.15 1412.66,-182.95 1417.65,-192.3 1422.39,-187.15"/>
</g>
<!-- 49&#45;&gt;52 -->
<g id="edge115" class="edge">
<title>49&#45;&gt;52</title>
<path fill="none" stroke="grey" stroke-width="2" d="M1416.54,-217.53C1414,-216.96 1411.48,-216.45 1409,-216 1195.01,-177.2 1137.14,-204.05 921,-180 897.28,-177.36 870.93,-173.49 849.53,-170.11"/>
<polygon fill="grey" stroke="grey" stroke-width="2" points="850.34,-166.7 839.91,-168.56 849.23,-173.61 850.34,-166.7"/>
</g>
<!-- 49&#45;&gt;53 -->
<g id="edge118" class="edge">
<title>49&#45;&gt;53</title>
<path fill="none" stroke="grey" stroke-width="2" d="M1416.4,-218.14C1413.9,-217.41 1411.42,-216.7 1409,-216 1261.22,-173.45 1085.27,-124.07 1007.45,-102.3"/>
<polygon fill="grey" stroke="grey" stroke-width="2" points="1008.44,-98.94 997.87,-99.62 1006.55,-105.68 1008.44,-98.94"/>
</g>
<!-- 50 -->
<g id="node51" class="node">
<title>50</title>
<path fill="none" stroke="#78d856" stroke-width="2" d="M1387.62,-252C1387.62,-252 1300.38,-252 1300.38,-252 1294.38,-252 1288.38,-246 1288.38,-240 1288.38,-240 1288.38,-228 1288.38,-228 1288.38,-222 1294.38,-216 1300.38,-216 1300.38,-216 1387.62,-216 1387.62,-216 1393.62,-216 1399.62,-222 1399.62,-228 1399.62,-228 1399.62,-240 1399.62,-240 1399.62,-246 1393.62,-252 1387.62,-252"/>
<text text-anchor="middle" x="1344" y="-230.12" font-family="sans" font-size="10.00">desikan_vol_to_mrtrix</text>
</g>
<!-- 50&#45;&gt;0 -->
<g id="edge14" class="edge">
<title>50&#45;&gt;0</title>
<path fill="none" stroke="grey" stroke-width="2" d="M1346.57,-215.23C1350.31,-181.62 1352.89,-108.79 1312,-72 1271.84,-35.86 895.64,-23.17 770.36,-19.93"/>
<polygon fill="grey" stroke="grey" stroke-width="2" points="770.81,-16.44 760.72,-19.68 770.63,-23.43 770.81,-16.44"/>
</g>
<!-- 50&#45;&gt;51 -->
<g id="edge114" class="edge">
<title>50&#45;&gt;51</title>
<path fill="none" stroke="grey" stroke-width="2" d="M1355.86,-215.34C1360.72,-208.1 1366.47,-199.53 1371.9,-191.45"/>
<polygon fill="grey" stroke="grey" stroke-width="2" points="1374.62,-193.67 1377.29,-183.41 1368.81,-189.77 1374.62,-193.67"/>
</g>
<!-- 50&#45;&gt;54 -->
<g id="edge122" class="edge">
<title>50&#45;&gt;54</title>
<path fill="none" stroke="grey" stroke-width="2" d="M1287.56,-222.52C1214.37,-208.93 1087.79,-185.43 1017.59,-172.39"/>
<polygon fill="grey" stroke="grey" stroke-width="2" points="1018.61,-169.02 1008.13,-170.64 1017.33,-175.9 1018.61,-169.02"/>
</g>
<!-- 51&#45;&gt;0 -->
<g id="edge12" class="edge">
<title>51&#45;&gt;0</title>
<path fill="none" stroke="grey" stroke-width="2" d="M1388.24,-143.24C1383.98,-122.41 1373.67,-88.62 1350,-72 1302.66,-38.76 900.59,-24.04 770.46,-20.12"/>
<polygon fill="grey" stroke="grey" stroke-width="2" points="770.82,-16.63 760.72,-19.83 770.61,-23.63 770.82,-16.63"/>
</g>
<!-- 52&#45;&gt;0 -->
<g id="edge7" class="edge">
<title>52&#45;&gt;0</title>
<path fill="none" stroke="grey" stroke-width="2" d="M799.2,-143.29C791.02,-125.1 777.49,-96.11 764,-72 759.48,-63.92 754.23,-55.39 749.23,-47.59"/>
<polygon fill="grey" stroke="grey" stroke-width="2" points="752.25,-45.81 743.85,-39.36 746.39,-49.64 752.25,-45.81"/>
</g>
<!-- 52&#45;&gt;53 -->
<g id="edge120" class="edge">
<title>52&#45;&gt;53</title>
<path fill="none" stroke="grey" stroke-width="2" d="M837.09,-147.83C862.64,-136.66 899.5,-120.53 927.43,-108.31"/>
<polygon fill="grey" stroke="grey" stroke-width="2" points="928.65,-111.6 936.41,-104.38 925.84,-105.19 928.65,-111.6"/>
</g>
<!-- 53&#45;&gt;0 -->
<g id="edge34" class="edge">
<title>53&#45;&gt;0</title>
<path fill="none" stroke="grey" stroke-width="2" d="M939.01,-79.42C931.56,-76.94 923.49,-74.31 916,-72 866.07,-56.57 808.09,-40.31 770.32,-29.94"/>
<polygon fill="grey" stroke="grey" stroke-width="2" points="771.33,-26.58 760.76,-27.32 769.48,-33.34 771.33,-26.58"/>
</g>
<!-- 54&#45;&gt;53 -->
<g id="edge121" class="edge">
<title>54&#45;&gt;53</title>
<path fill="none" stroke="grey" stroke-width="2" d="M967,-143.34C967,-136.75 967,-129.08 967,-121.67"/>
<polygon fill="grey" stroke="grey" stroke-width="2" points="970.5,-121.93 967,-111.93 963.5,-121.93 970.5,-121.93"/>
</g>
<!-- 55&#45;&gt;0 -->
<g id="edge10" class="edge">
<title>55&#45;&gt;0</title>
<path fill="none" stroke="grey" stroke-width="2" d="M685.46,-143.02C693.97,-119.33 709.04,-77.35 719.27,-48.86"/>
<polygon fill="grey" stroke="grey" stroke-width="2" points="722.48,-50.28 722.57,-39.69 715.9,-47.92 722.48,-50.28"/>
</g>
</g>
</svg>
