<?xml version="1.0" encoding="UTF-8" standalone="no"?>
<!DOCTYPE svg PUBLIC "-//W3C//DTD SVG 1.1//EN"
 "http://www.w3.org/Graphics/SVG/1.1/DTD/svg11.dtd">
<!-- Generated by graphviz version 9.0.0 (20230911.1827)
 -->
<!-- Title: snakemake_dag Pages: 1 -->
<svg width="468pt" height="1484pt"
 viewBox="0.00 0.00 468.12 1484.00" xmlns="http://www.w3.org/2000/svg" xmlns:xlink="http://www.w3.org/1999/xlink">
<g id="graph0" class="graph" transform="scale(1 1) rotate(0) translate(4 1480)">
<title>snakemake_dag</title>
<polygon fill="white" stroke="none" points="-4,4 -4,-1480 464.12,-1480 464.12,4 -4,4"/>
<!-- 0 -->
<g id="node1" class="node">
<title>0</title>
<path fill="none" stroke="#d87556" stroke-width="2" d="M161.12,-36C161.12,-36 131.12,-36 131.12,-36 125.12,-36 119.12,-30 119.12,-24 119.12,-24 119.12,-12 119.12,-12 119.12,-6 125.12,0 131.12,0 131.12,0 161.12,0 161.12,0 167.12,0 173.12,-6 173.12,-12 173.12,-12 173.12,-24 173.12,-24 173.12,-30 167.12,-36 161.12,-36"/>
<text text-anchor="middle" x="146.12" y="-14.12" font-family="sans" font-size="10.00">all</text>
</g>
<!-- 1 -->
<g id="node2" class="node">
<title>1</title>
<path fill="none" stroke="#d89c56" stroke-width="2" d="M192,-108C192,-108 100.25,-108 100.25,-108 94.25,-108 88.25,-102 88.25,-96 88.25,-96 88.25,-84 88.25,-84 88.25,-78 94.25,-72 100.25,-72 100.25,-72 192,-72 192,-72 198,-72 204,-78 204,-84 204,-84 204,-96 204,-96 204,-102 198,-108 192,-108"/>
<text text-anchor="middle" x="146.12" y="-86.12" font-family="sans" font-size="10.00">new_nodif_brain_mask</text>
</g>
<!-- 1&#45;&gt;0 -->
<g id="edge1" class="edge">
<title>1&#45;&gt;0</title>
<path fill="none" stroke="grey" stroke-width="2" d="M146.12,-71.34C146.12,-64.75 146.12,-57.08 146.12,-49.67"/>
<polygon fill="grey" stroke="grey" stroke-width="2" points="149.63,-49.93 146.13,-39.93 142.63,-49.93 149.63,-49.93"/>
</g>
<!-- 2 -->
<g id="node3" class="node">
<title>2</title>
<path fill="none" stroke="#56d892" stroke-width="2" d="M176.88,-396C176.88,-396 123.38,-396 123.38,-396 117.38,-396 111.38,-390 111.38,-384 111.38,-384 111.38,-372 111.38,-372 111.38,-366 117.38,-360 123.38,-360 123.38,-360 176.88,-360 176.88,-360 182.88,-360 188.88,-366 188.88,-372 188.88,-372 188.88,-384 188.88,-384 188.88,-390 182.88,-396 176.88,-396"/>
<text text-anchor="middle" x="150.12" y="-374.12" font-family="sans" font-size="10.00">diff_res_mask</text>
</g>
<!-- 2&#45;&gt;1 -->
<g id="edge4" class="edge">
<title>2&#45;&gt;1</title>
<path fill="none" stroke="grey" stroke-width="2" d="M135.01,-359.16C127.77,-349.44 119.88,-336.8 116.12,-324 93.62,-247.23 95.75,-221.36 116.12,-144 118.32,-135.68 122.15,-127.29 126.35,-119.72"/>
<polygon fill="grey" stroke="grey" stroke-width="2" points="129.32,-121.58 131.51,-111.22 123.33,-117.95 129.32,-121.58"/>
</g>
<!-- 24 -->
<g id="node25" class="node">
<title>24</title>
<path fill="none" stroke="#56b9d8" stroke-width="2" d="M181.38,-324C181.38,-324 136.88,-324 136.88,-324 130.88,-324 124.88,-318 124.88,-312 124.88,-312 124.88,-300 124.88,-300 124.88,-294 130.88,-288 136.88,-288 136.88,-288 181.38,-288 181.38,-288 187.38,-288 193.38,-294 193.38,-300 193.38,-300 193.38,-312 193.38,-312 193.38,-318 187.38,-324 181.38,-324"/>
<text text-anchor="middle" x="159.12" y="-302.12" font-family="sans" font-size="10.00">dilate_mask</text>
</g>
<!-- 2&#45;&gt;24 -->
<g id="edge38" class="edge">
<title>2&#45;&gt;24</title>
<path fill="none" stroke="grey" stroke-width="2" d="M152.4,-359.34C153.24,-352.75 154.23,-345.08 155.18,-337.67"/>
<polygon fill="grey" stroke="grey" stroke-width="2" points="158.63,-338.27 156.44,-327.9 151.69,-337.38 158.63,-338.27"/>
</g>
<!-- 3 -->
<g id="node4" class="node">
<title>3</title>
<path fill="none" stroke="#56d8d8" stroke-width="2" d="M200.88,-468C200.88,-468 99.38,-468 99.38,-468 93.38,-468 87.38,-462 87.38,-456 87.38,-456 87.38,-444 87.38,-444 87.38,-438 93.38,-432 99.38,-432 99.38,-432 200.88,-432 200.88,-432 206.88,-432 212.88,-438 212.88,-444 212.88,-444 212.88,-456 212.88,-456 212.88,-462 206.88,-468 200.88,-468"/>
<text text-anchor="middle" x="150.12" y="-446.12" font-family="sans" font-size="10.00">diff_res_structural_space</text>
</g>
<!-- 3&#45;&gt;2 -->
<g id="edge6" class="edge">
<title>3&#45;&gt;2</title>
<path fill="none" stroke="grey" stroke-width="2" d="M150.12,-431.34C150.12,-424.75 150.12,-417.08 150.12,-409.67"/>
<polygon fill="grey" stroke="grey" stroke-width="2" points="153.63,-409.93 150.13,-399.93 146.63,-409.93 153.63,-409.93"/>
</g>
<!-- 23 -->
<g id="node24" class="node">
<title>23</title>
<path fill="none" stroke="#56d8c9" stroke-width="2" d="M316.38,-396C316.38,-396 235.88,-396 235.88,-396 229.88,-396 223.88,-390 223.88,-384 223.88,-384 223.88,-372 223.88,-372 223.88,-366 229.88,-360 235.88,-360 235.88,-360 316.38,-360 316.38,-360 322.38,-360 328.38,-366 328.38,-372 328.38,-372 328.38,-384 328.38,-384 328.38,-390 322.38,-396 316.38,-396"/>
<text text-anchor="middle" x="276.12" y="-374.12" font-family="sans" font-size="10.00">register_diff_to_T1w</text>
</g>
<!-- 3&#45;&gt;23 -->
<g id="edge37" class="edge">
<title>3&#45;&gt;23</title>
<path fill="none" stroke="grey" stroke-width="2" d="M182.25,-431.15C197.65,-422.6 216.32,-412.22 232.95,-402.99"/>
<polygon fill="grey" stroke="grey" stroke-width="2" points="234.37,-406.2 241.42,-398.28 230.98,-400.08 234.37,-406.2"/>
</g>
<!-- 4 -->
<g id="node5" class="node">
<title>4</title>
<path fill="none" stroke="#56d8b9" stroke-width="2" d="M315.5,-1044C315.5,-1044 256.75,-1044 256.75,-1044 250.75,-1044 244.75,-1038 244.75,-1032 244.75,-1032 244.75,-1020 244.75,-1020 244.75,-1014 250.75,-1008 256.75,-1008 256.75,-1008 315.5,-1008 315.5,-1008 321.5,-1008 327.5,-1014 327.5,-1020 327.5,-1020 327.5,-1032 327.5,-1032 327.5,-1038 321.5,-1044 315.5,-1044"/>
<text text-anchor="middle" x="286.12" y="-1022.12" font-family="sans" font-size="10.00">mask_out_data</text>
</g>
<!-- 4&#45;&gt;3 -->
<g id="edge8" class="edge">
<title>4&#45;&gt;3</title>
<path fill="none" stroke="grey" stroke-width="2" d="M250.04,-1007.14C209.75,-984.35 150.12,-940.86 150.12,-883 150.12,-883 150.12,-883 150.12,-593 150.12,-554.65 150.12,-510.48 150.12,-481.72"/>
<polygon fill="grey" stroke="grey" stroke-width="2" points="153.63,-481.96 150.13,-471.96 146.63,-481.96 153.63,-481.96"/>
</g>
<!-- 13 -->
<g id="node14" class="node">
<title>13</title>
<path fill="none" stroke="#70d856" stroke-width="2" d="M382.38,-540C382.38,-540 253.88,-540 253.88,-540 247.88,-540 241.88,-534 241.88,-528 241.88,-528 241.88,-516 241.88,-516 241.88,-510 247.88,-504 253.88,-504 253.88,-504 382.38,-504 382.38,-504 388.38,-504 394.38,-510 394.38,-516 394.38,-516 394.38,-528 394.38,-528 394.38,-534 388.38,-540 382.38,-540"/>
<text text-anchor="middle" x="318.12" y="-518.12" font-family="sans" font-size="10.00">apply_warp3_and_remove_bias</text>
</g>
<!-- 4&#45;&gt;13 -->
<g id="edge18" class="edge">
<title>4&#45;&gt;13</title>
<path fill="none" stroke="grey" stroke-width="2" d="M303.58,-1007.29C312.2,-997.6 322.02,-984.96 328.12,-972 345.36,-935.41 347.12,-923.45 347.12,-883 347.12,-883 347.12,-883 347.12,-665 347.12,-625.68 336.32,-581.46 327.9,-552.97"/>
<polygon fill="grey" stroke="grey" stroke-width="2" points="331.3,-552.12 325.02,-543.59 324.61,-554.18 331.3,-552.12"/>
</g>
<!-- 15 -->
<g id="node16" class="node">
<title>15</title>
<path fill="none" stroke="#56c9d8" stroke-width="2" d="M307.25,-972C307.25,-972 265,-972 265,-972 259,-972 253,-966 253,-960 253,-960 253,-948 253,-948 253,-942 259,-936 265,-936 265,-936 307.25,-936 307.25,-936 313.25,-936 319.25,-942 319.25,-948 319.25,-948 319.25,-960 319.25,-960 319.25,-966 313.25,-972 307.25,-972"/>
<text text-anchor="middle" x="286.12" y="-950.12" font-family="sans" font-size="10.00">epi_reg_dof</text>
</g>
<!-- 4&#45;&gt;15 -->
<g id="edge22" class="edge">
<title>4&#45;&gt;15</title>
<path fill="none" stroke="grey" stroke-width="2" d="M286.12,-1007.34C286.12,-1000.75 286.12,-993.08 286.12,-985.67"/>
<polygon fill="grey" stroke="grey" stroke-width="2" points="289.63,-985.93 286.13,-975.93 282.63,-985.93 289.63,-985.93"/>
</g>
<!-- 19 -->
<g id="node20" class="node">
<title>19</title>
<path fill="none" stroke="#56d863" stroke-width="2" d="M249.5,-900C249.5,-900 202.75,-900 202.75,-900 196.75,-900 190.75,-894 190.75,-888 190.75,-888 190.75,-876 190.75,-876 190.75,-870 196.75,-864 202.75,-864 202.75,-864 249.5,-864 249.5,-864 255.5,-864 261.5,-870 261.5,-876 261.5,-876 261.5,-888 261.5,-888 261.5,-894 255.5,-900 249.5,-900"/>
<text text-anchor="middle" x="226.12" y="-878.12" font-family="sans" font-size="10.00">apply_warp2</text>
</g>
<!-- 4&#45;&gt;19 -->
<g id="edge27" class="edge">
<title>4&#45;&gt;19</title>
<path fill="none" stroke="grey" stroke-width="2" d="M268.61,-1007.32C259.98,-997.64 250.16,-984.99 244.12,-972 235.59,-953.63 231.09,-931.29 228.72,-913.58"/>
<polygon fill="grey" stroke="grey" stroke-width="2" points="232.22,-913.37 227.61,-903.83 225.27,-914.16 232.22,-913.37"/>
</g>
<!-- 4&#45;&gt;23 -->
<g id="edge34" class="edge">
<title>4&#45;&gt;23</title>
<path fill="none" stroke="grey" stroke-width="2" d="M322.21,-1007.14C362.5,-984.35 422.12,-940.86 422.12,-883 422.12,-883 422.12,-883 422.12,-521 422.12,-466.75 369.68,-426.52 327.65,-402.99"/>
<polygon fill="grey" stroke="grey" stroke-width="2" points="329.54,-400.03 319.07,-398.38 326.22,-406.2 329.54,-400.03"/>
</g>
<!-- 5 -->
<g id="node6" class="node">
<title>5</title>
<path fill="none" stroke="#56d8a9" stroke-width="2" d="M387.62,-1116C387.62,-1116 320.62,-1116 320.62,-1116 314.62,-1116 308.62,-1110 308.62,-1104 308.62,-1104 308.62,-1092 308.62,-1092 308.62,-1086 314.62,-1080 320.62,-1080 320.62,-1080 387.62,-1080 387.62,-1080 393.62,-1080 399.62,-1086 399.62,-1092 399.62,-1092 399.62,-1104 399.62,-1104 399.62,-1110 393.62,-1116 387.62,-1116"/>
<text text-anchor="middle" x="354.12" y="-1094.12" font-family="sans" font-size="10.00">create_fov_mask</text>
</g>
<!-- 5&#45;&gt;4 -->
<g id="edge10" class="edge">
<title>5&#45;&gt;4</title>
<path fill="none" stroke="grey" stroke-width="2" d="M336.97,-1079.34C329.53,-1071.69 320.66,-1062.56 312.43,-1054.08"/>
<polygon fill="grey" stroke="grey" stroke-width="2" points="315.1,-1051.81 305.62,-1047.07 310.08,-1056.68 315.1,-1051.81"/>
</g>
<!-- 5&#45;&gt;23 -->
<g id="edge36" class="edge">
<title>5&#45;&gt;23</title>
<path fill="none" stroke="grey" stroke-width="2" d="M379.78,-1079.1C411.16,-1054.89 460.12,-1008.53 460.12,-955 460.12,-955 460.12,-955 460.12,-521 460.12,-459.23 394.34,-420.56 341.44,-399.45"/>
<polygon fill="grey" stroke="grey" stroke-width="2" points="342.76,-396.21 332.17,-395.91 340.27,-402.75 342.76,-396.21"/>
</g>
<!-- 6 -->
<g id="node7" class="node">
<title>6</title>
<path fill="none" stroke="#56d8a2" stroke-width="2" d="M306.5,-1188C306.5,-1188 253.75,-1188 253.75,-1188 247.75,-1188 241.75,-1182 241.75,-1176 241.75,-1176 241.75,-1164 241.75,-1164 241.75,-1158 247.75,-1152 253.75,-1152 253.75,-1152 306.5,-1152 306.5,-1152 312.5,-1152 318.5,-1158 318.5,-1164 318.5,-1164 318.5,-1176 318.5,-1176 318.5,-1182 312.5,-1188 306.5,-1188"/>
<text text-anchor="middle" x="280.12" y="-1166.12" font-family="sans" font-size="10.00">combine_data</text>
</g>
<!-- 6&#45;&gt;4 -->
<g id="edge9" class="edge">
<title>6&#45;&gt;4</title>
<path fill="none" stroke="grey" stroke-width="2" d="M280.88,-1151.02C281.88,-1127.54 283.63,-1086.11 284.83,-1057.64"/>
<polygon fill="grey" stroke="grey" stroke-width="2" points="288.32,-1058 285.24,-1047.86 281.32,-1057.71 288.32,-1058"/>
</g>
<!-- 6&#45;&gt;5 -->
<g id="edge11" class="edge">
<title>6&#45;&gt;5</title>
<path fill="none" stroke="grey" stroke-width="2" d="M298.8,-1151.34C306.97,-1143.6 316.75,-1134.36 325.79,-1125.81"/>
<polygon fill="grey" stroke="grey" stroke-width="2" points="328.14,-1128.4 333,-1118.98 323.33,-1123.31 328.14,-1128.4"/>
</g>
<!-- 7 -->
<g id="node8" class="node">
<title>7</title>
<path fill="none" stroke="#d8cb56" stroke-width="2" d="M159.62,-1260C159.62,-1260 116.62,-1260 116.62,-1260 110.62,-1260 104.62,-1254 104.62,-1248 104.62,-1248 104.62,-1236 104.62,-1236 104.62,-1230 110.62,-1224 116.62,-1224 116.62,-1224 159.62,-1224 159.62,-1224 165.62,-1224 171.62,-1230 171.62,-1236 171.62,-1236 171.62,-1248 171.62,-1248 171.62,-1254 165.62,-1260 159.62,-1260"/>
<text text-anchor="middle" x="138.12" y="-1238.12" font-family="sans" font-size="10.00">merge_data</text>
</g>
<!-- 7&#45;&gt;6 -->
<g id="edge13" class="edge">
<title>7&#45;&gt;6</title>
<path fill="none" stroke="grey" stroke-width="2" d="M172.5,-1224.05C190.46,-1215.2 212.73,-1204.22 232.34,-1194.56"/>
<polygon fill="grey" stroke="grey" stroke-width="2" points="233.7,-1197.79 241.12,-1190.23 230.6,-1191.51 233.7,-1197.79"/>
</g>
<!-- 26 -->
<g id="node27" class="node">
<title>26</title>
<path fill="none" stroke="#80d856" stroke-width="2" d="M129.75,-1116C129.75,-1116 36.5,-1116 36.5,-1116 30.5,-1116 24.5,-1110 24.5,-1104 24.5,-1104 24.5,-1092 24.5,-1092 24.5,-1086 30.5,-1080 36.5,-1080 36.5,-1080 129.75,-1080 129.75,-1080 135.75,-1080 141.75,-1086 141.75,-1092 141.75,-1092 141.75,-1104 141.75,-1104 141.75,-1110 135.75,-1116 129.75,-1116"/>
<text text-anchor="middle" x="83.12" y="-1094.12" font-family="sans" font-size="10.00">average_rotated_bvecs</text>
</g>
<!-- 7&#45;&gt;26 -->
<g id="edge43" class="edge">
<title>7&#45;&gt;26</title>
<path fill="none" stroke="grey" stroke-width="2" d="M110.65,-1223.21C99.25,-1214.18 87.28,-1202.12 81.12,-1188 73.2,-1169.8 73.73,-1147.45 76.23,-1129.71"/>
<polygon fill="grey" stroke="grey" stroke-width="2" points="79.67,-1130.34 77.95,-1119.88 72.77,-1129.13 79.67,-1130.34"/>
</g>
<!-- 27 -->
<g id="node28" class="node">
<title>27</title>
<path fill="none" stroke="#d8bc56" stroke-width="2" d="M174.25,-1188C174.25,-1188 102,-1188 102,-1188 96,-1188 90,-1182 90,-1176 90,-1176 90,-1164 90,-1164 90,-1158 96,-1152 102,-1152 102,-1152 174.25,-1152 174.25,-1152 180.25,-1152 186.25,-1158 186.25,-1164 186.25,-1164 186.25,-1176 186.25,-1176 186.25,-1182 180.25,-1188 174.25,-1188"/>
<text text-anchor="middle" x="138.12" y="-1166.12" font-family="sans" font-size="10.00">get_rotated_bvecs</text>
</g>
<!-- 7&#45;&gt;27 -->
<g id="edge44" class="edge">
<title>7&#45;&gt;27</title>
<path fill="none" stroke="grey" stroke-width="2" d="M138.12,-1223.34C138.12,-1216.75 138.12,-1209.08 138.12,-1201.67"/>
<polygon fill="grey" stroke="grey" stroke-width="2" points="141.63,-1201.93 138.13,-1191.93 134.63,-1201.93 141.63,-1201.93"/>
</g>
<!-- 8 -->
<g id="node9" class="node">
<title>8</title>
<path fill="none" stroke="#bed856" stroke-width="2" d="M126.25,-1332C126.25,-1332 12,-1332 12,-1332 6,-1332 0,-1326 0,-1320 0,-1320 0,-1308 0,-1308 0,-1302 6,-1296 12,-1296 12,-1296 126.25,-1296 126.25,-1296 132.25,-1296 138.25,-1302 138.25,-1308 138.25,-1308 138.25,-1320 138.25,-1320 138.25,-1326 132.25,-1332 126.25,-1332"/>
<text text-anchor="middle" x="69.12" y="-1310.12" font-family="sans" font-size="10.00">rescale_series_conditionally</text>
</g>
<!-- 8&#45;&gt;7 -->
<g id="edge15" class="edge">
<title>8&#45;&gt;7</title>
<path fill="none" stroke="grey" stroke-width="2" d="M86.54,-1295.34C94.08,-1287.69 103.08,-1278.56 111.43,-1270.08"/>
<polygon fill="grey" stroke="grey" stroke-width="2" points="113.83,-1272.64 118.35,-1263.06 108.84,-1267.72 113.83,-1272.64"/>
</g>
<!-- 9 -->
<g id="node10" class="node">
<title>9</title>
<path fill="none" stroke="#68d856" stroke-width="2" d="M84.12,-1404C84.12,-1404 54.12,-1404 54.12,-1404 48.12,-1404 42.12,-1398 42.12,-1392 42.12,-1392 42.12,-1380 42.12,-1380 42.12,-1374 48.12,-1368 54.12,-1368 54.12,-1368 84.12,-1368 84.12,-1368 90.12,-1368 96.12,-1374 96.12,-1380 96.12,-1380 96.12,-1392 96.12,-1392 96.12,-1398 90.12,-1404 84.12,-1404"/>
<text text-anchor="middle" x="69.12" y="-1382.12" font-family="sans" font-size="10.00">meants</text>
</g>
<!-- 9&#45;&gt;8 -->
<g id="edge16" class="edge">
<title>9&#45;&gt;8</title>
<path fill="none" stroke="grey" stroke-width="2" d="M69.12,-1367.34C69.12,-1360.75 69.12,-1353.08 69.12,-1345.67"/>
<polygon fill="grey" stroke="grey" stroke-width="2" points="72.63,-1345.93 69.13,-1335.93 65.63,-1345.93 72.63,-1345.93"/>
</g>
<!-- 10 -->
<g id="node11" class="node">
<title>10</title>
<path fill="none" stroke="#56a9d8" stroke-width="2" d="M99.25,-1476C99.25,-1476 39,-1476 39,-1476 33,-1476 27,-1470 27,-1464 27,-1464 27,-1452 27,-1452 27,-1446 33,-1440 39,-1440 39,-1440 99.25,-1440 99.25,-1440 105.25,-1440 111.25,-1446 111.25,-1452 111.25,-1452 111.25,-1464 111.25,-1464 111.25,-1470 105.25,-1476 99.25,-1476"/>
<text text-anchor="middle" x="69.12" y="-1454.12" font-family="sans" font-size="10.00">calculate_mean</text>
</g>
<!-- 10&#45;&gt;9 -->
<g id="edge17" class="edge">
<title>10&#45;&gt;9</title>
<path fill="none" stroke="grey" stroke-width="2" d="M69.12,-1439.34C69.12,-1432.75 69.12,-1425.08 69.12,-1417.67"/>
<polygon fill="grey" stroke="grey" stroke-width="2" points="72.63,-1417.93 69.13,-1407.93 65.63,-1417.93 72.63,-1417.93"/>
</g>
<!-- 11 -->
<g id="node12" class="node">
<title>11</title>
<path fill="none" stroke="#59d856" stroke-width="2" d="M248,-1332C248,-1332 168.25,-1332 168.25,-1332 162.25,-1332 156.25,-1326 156.25,-1320 156.25,-1320 156.25,-1308 156.25,-1308 156.25,-1302 162.25,-1296 168.25,-1296 168.25,-1296 248,-1296 248,-1296 254,-1296 260,-1302 260,-1308 260,-1308 260,-1320 260,-1320 260,-1326 254,-1332 248,-1332"/>
<text text-anchor="middle" x="208.12" y="-1310.12" font-family="sans" font-size="10.00">extract_b0_volumes</text>
</g>
<!-- 11&#45;&gt;7 -->
<g id="edge14" class="edge">
<title>11&#45;&gt;7</title>
<path fill="none" stroke="grey" stroke-width="2" d="M190.46,-1295.34C182.81,-1287.69 173.68,-1278.56 165.2,-1270.08"/>
<polygon fill="grey" stroke="grey" stroke-width="2" points="167.71,-1267.64 158.17,-1263.04 162.76,-1272.59 167.71,-1267.64"/>
</g>
<!-- 12 -->
<g id="node13" class="node">
<title>12</title>
<path fill="none" stroke="#5682d8" stroke-width="2" d="M296,-1260C296,-1260 222.25,-1260 222.25,-1260 216.25,-1260 210.25,-1254 210.25,-1248 210.25,-1248 210.25,-1236 210.25,-1236 210.25,-1230 216.25,-1224 222.25,-1224 222.25,-1224 296,-1224 296,-1224 302,-1224 308,-1230 308,-1236 308,-1236 308,-1248 308,-1248 308,-1254 302,-1260 296,-1260"/>
<text text-anchor="middle" x="259.12" y="-1238.12" font-family="sans" font-size="10.00">create_series_files</text>
</g>
<!-- 12&#45;&gt;6 -->
<g id="edge12" class="edge">
<title>12&#45;&gt;6</title>
<path fill="none" stroke="grey" stroke-width="2" d="M264.42,-1223.34C266.45,-1216.59 268.82,-1208.69 271.09,-1201.11"/>
<polygon fill="grey" stroke="grey" stroke-width="2" points="274.36,-1202.39 273.88,-1191.8 267.66,-1200.37 274.36,-1202.39"/>
</g>
<!-- 12&#45;&gt;26 -->
<g id="edge41" class="edge">
<title>12&#45;&gt;26</title>
<path fill="none" stroke="grey" stroke-width="2" d="M249.96,-1223.23C239.1,-1203.64 219.4,-1172.22 195.12,-1152 180.76,-1140.03 163.23,-1130.08 146.35,-1122.15"/>
<polygon fill="grey" stroke="grey" stroke-width="2" points="148.13,-1119.11 137.57,-1118.22 145.27,-1125.5 148.13,-1119.11"/>
</g>
<!-- 13&#45;&gt;3 -->
<g id="edge7" class="edge">
<title>13&#45;&gt;3</title>
<path fill="none" stroke="grey" stroke-width="2" d="M275.3,-503.15C253.95,-494.26 227.9,-483.41 205.1,-473.91"/>
<polygon fill="grey" stroke="grey" stroke-width="2" points="206.54,-470.71 195.96,-470.1 203.85,-477.18 206.54,-470.71"/>
</g>
<!-- 14 -->
<g id="node15" class="node">
<title>14</title>
<path fill="none" stroke="#5692d8" stroke-width="2" d="M306,-612C306,-612 190.25,-612 190.25,-612 184.25,-612 178.25,-606 178.25,-600 178.25,-600 178.25,-588 178.25,-588 178.25,-582 184.25,-576 190.25,-576 190.25,-576 306,-576 306,-576 312,-576 318,-582 318,-588 318,-588 318,-600 318,-600 318,-606 312,-612 306,-612"/>
<text text-anchor="middle" x="248.12" y="-590.12" font-family="sans" font-size="10.00">get_transformation_matrices</text>
</g>
<!-- 14&#45;&gt;13 -->
<g id="edge19" class="edge">
<title>14&#45;&gt;13</title>
<path fill="none" stroke="grey" stroke-width="2" d="M265.79,-575.34C273.44,-567.69 282.57,-558.56 291.05,-550.08"/>
<polygon fill="grey" stroke="grey" stroke-width="2" points="293.49,-552.59 298.08,-543.04 288.54,-547.64 293.49,-552.59"/>
</g>
<!-- 14&#45;&gt;23 -->
<g id="edge35" class="edge">
<title>14&#45;&gt;23</title>
<path fill="none" stroke="grey" stroke-width="2" d="M241.73,-575.11C238.44,-564.96 234.78,-551.93 233.12,-540 226.59,-492.95 246.13,-440.02 260.98,-408.11"/>
<polygon fill="grey" stroke="grey" stroke-width="2" points="264.04,-409.82 265.26,-399.3 257.74,-406.77 264.04,-409.82"/>
</g>
<!-- 25 -->
<g id="node26" class="node">
<title>25</title>
<path fill="none" stroke="#c6d856" stroke-width="2" d="M110,-540C110,-540 18.25,-540 18.25,-540 12.25,-540 6.25,-534 6.25,-528 6.25,-528 6.25,-516 6.25,-516 6.25,-510 12.25,-504 18.25,-504 18.25,-504 110,-504 110,-504 116,-504 122,-510 122,-516 122,-516 122,-528 122,-528 122,-534 116,-540 110,-540"/>
<text text-anchor="middle" x="64.12" y="-518.12" font-family="sans" font-size="10.00">rotate_bvecs_to_struct</text>
</g>
<!-- 14&#45;&gt;25 -->
<g id="edge40" class="edge">
<title>14&#45;&gt;25</title>
<path fill="none" stroke="grey" stroke-width="2" d="M201.22,-575.15C177.52,-566.14 148.52,-555.11 123.3,-545.51"/>
<polygon fill="grey" stroke="grey" stroke-width="2" points="124.69,-542.29 114.1,-542.01 122.2,-548.84 124.69,-542.29"/>
</g>
<!-- 15&#45;&gt;14 -->
<g id="edge20" class="edge">
<title>15&#45;&gt;14</title>
<path fill="none" stroke="grey" stroke-width="2" d="M289.44,-935.14C294.13,-908.3 302.12,-855.9 302.12,-811 302.12,-811 302.12,-811 302.12,-737 302.12,-696.55 298.76,-685.3 283.12,-648 279.57,-639.53 274.63,-630.96 269.57,-623.25"/>
<polygon fill="grey" stroke="grey" stroke-width="2" points="272.54,-621.39 263.96,-615.17 266.79,-625.38 272.54,-621.39"/>
</g>
<!-- 15&#45;&gt;19 -->
<g id="edge28" class="edge">
<title>15&#45;&gt;19</title>
<path fill="none" stroke="grey" stroke-width="2" d="M270.98,-935.34C264.57,-927.85 256.94,-918.95 249.81,-910.63"/>
<polygon fill="grey" stroke="grey" stroke-width="2" points="252.6,-908.51 243.44,-903.2 247.29,-913.07 252.6,-908.51"/>
</g>
<!-- 16 -->
<g id="node17" class="node">
<title>16</title>
<path fill="none" stroke="#8fd856" stroke-width="2" d="M262,-684C262,-684 224.25,-684 224.25,-684 218.25,-684 212.25,-678 212.25,-672 212.25,-672 212.25,-660 212.25,-660 212.25,-654 218.25,-648 224.25,-648 224.25,-648 262,-648 262,-648 268,-648 274,-654 274,-660 274,-660 274,-672 274,-672 274,-678 268,-684 262,-684"/>
<text text-anchor="middle" x="243.12" y="-662.12" font-family="sans" font-size="10.00">tkregister2</text>
</g>
<!-- 16&#45;&gt;14 -->
<g id="edge21" class="edge">
<title>16&#45;&gt;14</title>
<path fill="none" stroke="grey" stroke-width="2" d="M244.39,-647.34C244.86,-640.75 245.41,-633.08 245.93,-625.67"/>
<polygon fill="grey" stroke="grey" stroke-width="2" points="249.41,-626.15 246.63,-615.92 242.43,-625.65 249.41,-626.15"/>
</g>
<!-- 17 -->
<g id="node18" class="node">
<title>17</title>
<path fill="none" stroke="#5663d8" stroke-width="2" d="M224.5,-756C224.5,-756 189.75,-756 189.75,-756 183.75,-756 177.75,-750 177.75,-744 177.75,-744 177.75,-732 177.75,-732 177.75,-726 183.75,-720 189.75,-720 189.75,-720 224.5,-720 224.5,-720 230.5,-720 236.5,-726 236.5,-732 236.5,-732 236.5,-744 236.5,-744 236.5,-750 230.5,-756 224.5,-756"/>
<text text-anchor="middle" x="207.12" y="-734.12" font-family="sans" font-size="10.00">bbregister</text>
</g>
<!-- 17&#45;&gt;16 -->
<g id="edge24" class="edge">
<title>17&#45;&gt;16</title>
<path fill="none" stroke="grey" stroke-width="2" d="M216.21,-719.34C219.81,-712.34 224.04,-704.12 228.07,-696.28"/>
<polygon fill="grey" stroke="grey" stroke-width="2" points="231.07,-698.09 232.53,-687.59 224.85,-694.89 231.07,-698.09"/>
</g>
<!-- 18 -->
<g id="node19" class="node">
<title>18</title>
<path fill="none" stroke="#d6d856" stroke-width="2" d="M261.5,-828C261.5,-828 190.75,-828 190.75,-828 184.75,-828 178.75,-822 178.75,-816 178.75,-816 178.75,-804 178.75,-804 178.75,-798 184.75,-792 190.75,-792 190.75,-792 261.5,-792 261.5,-792 267.5,-792 273.5,-798 273.5,-804 273.5,-804 273.5,-816 273.5,-816 273.5,-822 267.5,-828 261.5,-828"/>
<text text-anchor="middle" x="226.12" y="-806.12" font-family="sans" font-size="10.00">remove_bias_field</text>
</g>
<!-- 18&#45;&gt;16 -->
<g id="edge23" class="edge">
<title>18&#45;&gt;16</title>
<path fill="none" stroke="grey" stroke-width="2" d="M234.22,-791.27C238.38,-781.16 243.02,-768.13 245.12,-756 248.47,-736.78 248.03,-714.87 246.72,-697.6"/>
<polygon fill="grey" stroke="grey" stroke-width="2" points="250.23,-697.53 245.82,-687.9 243.26,-698.18 250.23,-697.53"/>
</g>
<!-- 18&#45;&gt;17 -->
<g id="edge25" class="edge">
<title>18&#45;&gt;17</title>
<path fill="none" stroke="grey" stroke-width="2" d="M221.33,-791.34C219.52,-784.67 217.41,-776.89 215.37,-769.39"/>
<polygon fill="grey" stroke="grey" stroke-width="2" points="218.77,-768.56 212.78,-759.82 212.02,-770.39 218.77,-768.56"/>
</g>
<!-- 19&#45;&gt;18 -->
<g id="edge26" class="edge">
<title>19&#45;&gt;18</title>
<path fill="none" stroke="grey" stroke-width="2" d="M226.12,-863.34C226.12,-856.75 226.12,-849.08 226.12,-841.67"/>
<polygon fill="grey" stroke="grey" stroke-width="2" points="229.63,-841.93 226.13,-831.93 222.63,-841.93 229.63,-841.93"/>
</g>
<!-- 20 -->
<g id="node21" class="node">
<title>20</title>
<path fill="none" stroke="#56d882" stroke-width="2" d="M193,-180C193,-180 137.25,-180 137.25,-180 131.25,-180 125.25,-174 125.25,-168 125.25,-168 125.25,-156 125.25,-156 125.25,-150 131.25,-144 137.25,-144 137.25,-144 193,-144 193,-144 199,-144 205,-150 205,-156 205,-156 205,-168 205,-168 205,-174 199,-180 193,-180"/>
<text text-anchor="middle" x="165.12" y="-158.12" font-family="sans" font-size="10.00">threshold_data</text>
</g>
<!-- 20&#45;&gt;1 -->
<g id="edge5" class="edge">
<title>20&#45;&gt;1</title>
<path fill="none" stroke="grey" stroke-width="2" d="M160.33,-143.34C158.52,-136.67 156.41,-128.89 154.37,-121.39"/>
<polygon fill="grey" stroke="grey" stroke-width="2" points="157.77,-120.56 151.78,-111.82 151.02,-122.39 157.77,-120.56"/>
</g>
<!-- 21 -->
<g id="node22" class="node">
<title>21</title>
<path fill="none" stroke="#9fd856" stroke-width="2" d="M250.5,-252C250.5,-252 191.75,-252 191.75,-252 185.75,-252 179.75,-246 179.75,-240 179.75,-240 179.75,-228 179.75,-228 179.75,-222 185.75,-216 191.75,-216 191.75,-216 250.5,-216 250.5,-216 256.5,-216 262.5,-222 262.5,-228 262.5,-228 262.5,-240 262.5,-240 262.5,-246 256.5,-252 250.5,-252"/>
<text text-anchor="middle" x="221.12" y="-230.12" font-family="sans" font-size="10.00">fov_mask_data</text>
</g>
<!-- 21&#45;&gt;0 -->
<g id="edge3" class="edge">
<title>21&#45;&gt;0</title>
<path fill="none" stroke="grey" stroke-width="2" d="M224.74,-215.35C230.16,-184.37 237.34,-119.02 213.12,-72 206.64,-59.41 195.67,-48.84 184.47,-40.53"/>
<polygon fill="grey" stroke="grey" stroke-width="2" points="186.53,-37.7 176.29,-34.97 182.59,-43.49 186.53,-37.7"/>
</g>
<!-- 21&#45;&gt;20 -->
<g id="edge29" class="edge">
<title>21&#45;&gt;20</title>
<path fill="none" stroke="grey" stroke-width="2" d="M206.99,-215.34C201.07,-207.93 194.04,-199.14 187.45,-190.9"/>
<polygon fill="grey" stroke="grey" stroke-width="2" points="190.32,-188.89 181.34,-183.27 184.85,-193.26 190.32,-188.89"/>
</g>
<!-- 22 -->
<g id="node23" class="node">
<title>22</title>
<path fill="none" stroke="#d8ac56" stroke-width="2" d="M327.25,-324C327.25,-324 261,-324 261,-324 255,-324 249,-318 249,-312 249,-312 249,-300 249,-300 249,-294 255,-288 261,-288 261,-288 327.25,-288 327.25,-288 333.25,-288 339.25,-294 339.25,-300 339.25,-300 339.25,-312 339.25,-312 339.25,-318 333.25,-324 327.25,-324"/>
<text text-anchor="middle" x="294.12" y="-302.12" font-family="sans" font-size="10.00">adjust_fov_mask</text>
</g>
<!-- 22&#45;&gt;21 -->
<g id="edge30" class="edge">
<title>22&#45;&gt;21</title>
<path fill="none" stroke="grey" stroke-width="2" d="M275.7,-287.34C267.64,-279.6 258,-270.36 249.08,-261.81"/>
<polygon fill="grey" stroke="grey" stroke-width="2" points="251.62,-259.39 241.98,-255 246.77,-264.44 251.62,-259.39"/>
</g>
<!-- 23&#45;&gt;21 -->
<g id="edge32" class="edge">
<title>23&#45;&gt;21</title>
<path fill="none" stroke="grey" stroke-width="2" d="M261.6,-359.38C254.16,-349.52 245.54,-336.69 240.12,-324 232.16,-305.33 227.4,-282.99 224.64,-265.36"/>
<polygon fill="grey" stroke="grey" stroke-width="2" points="228.14,-265.08 223.28,-255.66 221.2,-266.05 228.14,-265.08"/>
</g>
<!-- 23&#45;&gt;22 -->
<g id="edge33" class="edge">
<title>23&#45;&gt;22</title>
<path fill="none" stroke="grey" stroke-width="2" d="M280.67,-359.34C282.38,-352.67 284.38,-344.89 286.31,-337.39"/>
<polygon fill="grey" stroke="grey" stroke-width="2" points="289.67,-338.39 288.77,-327.83 282.89,-336.65 289.67,-338.39"/>
</g>
<!-- 24&#45;&gt;21 -->
<g id="edge31" class="edge">
<title>24&#45;&gt;21</title>
<path fill="none" stroke="grey" stroke-width="2" d="M174.77,-287.34C181.4,-279.85 189.29,-270.95 196.66,-262.63"/>
<polygon fill="grey" stroke="grey" stroke-width="2" points="199.25,-264.97 203.26,-255.17 194.01,-260.33 199.25,-264.97"/>
</g>
<!-- 25&#45;&gt;0 -->
<g id="edge2" class="edge">
<title>25&#45;&gt;0</title>
<path fill="none" stroke="grey" stroke-width="2" d="M63.09,-503.07C61.62,-476.15 59.12,-423.65 59.12,-379 59.12,-379 59.12,-379 59.12,-161 59.12,-120.46 57.55,-106.32 79.12,-72 86.35,-60.51 96.97,-50.46 107.63,-42.3"/>
<polygon fill="grey" stroke="grey" stroke-width="2" points="109.61,-45.18 115.72,-36.53 105.55,-39.48 109.61,-45.18"/>
</g>
<!-- 26&#45;&gt;25 -->
<g id="edge39" class="edge">
<title>26&#45;&gt;25</title>
<path fill="none" stroke="grey" stroke-width="2" d="M80.64,-1079.11C77.12,-1052.22 71.12,-999.78 71.12,-955 71.12,-955 71.12,-955 71.12,-665 71.12,-626.61 68.54,-582.45 66.51,-553.7"/>
<polygon fill="grey" stroke="grey" stroke-width="2" points="70.02,-553.66 65.8,-543.94 63.04,-554.17 70.02,-553.66"/>
</g>
<!-- 27&#45;&gt;26 -->
<g id="edge42" class="edge">
<title>27&#45;&gt;26</title>
<path fill="none" stroke="grey" stroke-width="2" d="M124.25,-1151.34C118.43,-1143.93 111.52,-1135.14 105.05,-1126.9"/>
<polygon fill="grey" stroke="grey" stroke-width="2" points="107.99,-1124.98 99.06,-1119.28 102.49,-1129.31 107.99,-1124.98"/>
</g>
</g>
</svg>
